M48
;GenerationSoftware,Autodesk,EAGLE,9.5.2*%
;CreationDate,2019-12-17T10:30:18Z*%
FMAT,2
ICI,OFF
METRIC,TZ,000.000
T8C0.500
T7C0.813
T6C1.016
T5C1.194
T4C1.620
T3C2.007
T2C3.200
T1C5.000
%
G90
M71
T1
X70130Y51100
X70130Y44100
T2
X17860Y55723
X2766Y88937
X51239Y7589
X7751Y51077
X60960Y55723
X71021Y78375
X17860Y92223
X60960Y92223
T3
X13138Y60457
X8362Y60457
X67310Y22090
X67310Y11930
X8362Y64470
X8362Y68483
X13138Y68483
X13138Y64470
T4
X70960Y71370
X70960Y65920
X70960Y60470
T5
X48860Y92835
X53940Y92835
X73820Y92875
X68740Y92875
X27660Y92735
X32740Y92735
X38260Y92735
X43340Y92735
T6
X39600Y73390
X39600Y70850
X60796Y75789
X60796Y78329
X60796Y80869
X60796Y83409
X20843Y32160
X19210Y34106
X17577Y36051
X22475Y30214
X24108Y28268
X25741Y26323
X52380Y75890
X20160Y77260
X22700Y77260
X25240Y77260
X13710Y95600
X11170Y95600
X8630Y95600
X6090Y95600
X52380Y83510
X52380Y80970
X52380Y78430
X52380Y73350
X52380Y70810
X39600Y83550
X39600Y81010
X39600Y78470
X39600Y75930
T7
X53390Y58080
X53390Y55540
X47490Y58090
X47490Y55550
X41590Y58000
X41590Y55460
X7100Y78050
X39470Y19240
X39470Y21780
X45990Y27890
X31850Y21780
X9640Y78050
X45990Y17730
X7060Y85780
X31850Y19240
X9600Y85780
X43010Y27970
X43010Y17810
X31850Y26860
X31850Y24320
X39470Y26860
X39470Y24320
T8
X16200Y76180
X47000Y30000
X29510Y36170
M30