G04 EAGLE Gerber RS-274X export*
G75*
%MOMM*%
%FSLAX34Y34*%
%LPD*%
%INSoldermask Top*%
%IPPOS*%
%AMOC8*
5,1,8,0,0,1.08239X$1,22.5*%
G01*
%ADD10C,3.403200*%
%ADD11C,1.727200*%
%ADD12P,1.951982X8X202.500000*%
%ADD13C,1.803400*%
%ADD14C,4.800600*%
%ADD15P,5.196121X8X337.500000*%
%ADD16C,2.082800*%
%ADD17C,1.879600*%
%ADD18C,1.993900*%
%ADD19C,2.743200*%
%ADD20R,2.633200X2.633200*%
%ADD21C,2.633200*%
%ADD22C,1.524000*%
%ADD23R,2.203200X1.803200*%
%ADD24R,1.803200X2.203200*%
%ADD25P,3.477827X8X292.500000*%
%ADD26R,3.153200X1.203200*%
%ADD27P,6.731600X8X112.500000*%
%ADD28C,2.133600*%
%ADD29C,1.676400*%
%ADD30C,1.981200*%
%ADD31P,6.731600X8X22.500000*%
%ADD32R,3.003200X4.003200*%
%ADD33R,1.553200X4.803200*%
%ADD34R,11.003200X9.603200*%
%ADD35C,2.753200*%
%ADD36C,3.203200*%
%ADD37C,1.703200*%
%ADD38C,1.009600*%


D10*
X1504840Y1114402D03*
X1139080Y1114402D03*
X295783Y1114873D03*
X613396Y126023D03*
X178510Y560905D03*
X295784Y683073D03*
X128669Y939505D03*
X1188818Y126023D03*
X1504840Y682602D03*
X1623700Y560905D03*
X1673545Y939500D03*
X661540Y1114872D03*
D11*
X1025410Y786420D02*
X1040650Y786420D01*
X1040650Y761020D02*
X1025410Y761020D01*
X1025410Y735620D02*
X1040650Y735620D01*
D12*
X625300Y718000D03*
D13*
X650700Y718000D03*
D12*
X1115300Y879030D03*
D13*
X1140700Y879030D03*
D12*
X1115300Y801960D03*
D13*
X1140700Y801960D03*
D12*
X625300Y778000D03*
D13*
X650700Y778000D03*
D12*
X625300Y838000D03*
D13*
X650700Y838000D03*
D14*
X486439Y335941D03*
D15*
X558281Y264099D03*
D16*
X755580Y1107700D03*
X755580Y1082300D03*
D17*
X1268130Y858460D03*
X1369730Y858460D03*
D16*
X965930Y1107700D03*
X965930Y1082300D03*
D18*
X1030600Y1079697D02*
X1030600Y1097604D01*
X1081400Y1097604D02*
X1081400Y1079697D01*
D19*
X1415362Y805780D02*
X1415362Y780380D01*
X1190318Y780380D02*
X1190318Y805780D01*
D20*
X747230Y780730D03*
D21*
X747230Y835230D03*
X747230Y889730D03*
D11*
X1346920Y936680D02*
X1346920Y951920D01*
X1321520Y951920D02*
X1321520Y936680D01*
X1296120Y936680D02*
X1296120Y951920D01*
X1047620Y529050D02*
X1032380Y529050D01*
X1032380Y554450D02*
X1047620Y554450D01*
X1047620Y579850D02*
X1032380Y579850D01*
X1032380Y375980D02*
X1047620Y375980D01*
X1047620Y350580D02*
X1032380Y350580D01*
X1032380Y325180D02*
X1047620Y325180D01*
X1047620Y401380D02*
X1032380Y401380D01*
D22*
X748920Y177390D03*
X723520Y177390D03*
X723520Y101190D03*
X748920Y101190D03*
X698120Y177390D03*
X672720Y177390D03*
X698120Y101190D03*
X672720Y101190D03*
D23*
X1294100Y263300D03*
X1294100Y235300D03*
X1245760Y288670D03*
X1245760Y260670D03*
D24*
X919610Y833300D03*
X891610Y833300D03*
X919760Y799950D03*
X891760Y799950D03*
D18*
X179910Y1025647D02*
X179910Y1043554D01*
X230710Y1043554D02*
X230710Y1025647D01*
D25*
X833568Y993306D03*
X873700Y993306D03*
X913832Y993306D03*
X913832Y945554D03*
X873700Y945554D03*
X833568Y945554D03*
D26*
X372840Y619110D03*
X372840Y594110D03*
X372840Y569110D03*
X372840Y544110D03*
X372840Y519110D03*
X372840Y494110D03*
X572340Y494110D03*
X572340Y519110D03*
X572340Y544110D03*
X572340Y569110D03*
X572340Y594110D03*
X572340Y619110D03*
D27*
X1597230Y1001970D03*
X1597230Y1071970D03*
D28*
X1113130Y568160D03*
X1113130Y542760D03*
X1113130Y517360D03*
X1113130Y491960D03*
X1113130Y466560D03*
X1113130Y441160D03*
X1113130Y415760D03*
X1113130Y390360D03*
X1113130Y364960D03*
X1113130Y339560D03*
X1113130Y314160D03*
X1113130Y288760D03*
X1113130Y263360D03*
X1113130Y237960D03*
X1113130Y212560D03*
X1341730Y568160D03*
X1341730Y542760D03*
X1341730Y517360D03*
X1341730Y491960D03*
X1341730Y466560D03*
X1341730Y441160D03*
X1341730Y415760D03*
X1341730Y390360D03*
X1341730Y364960D03*
X1341730Y339560D03*
X1341730Y314160D03*
X1341730Y288760D03*
X1341730Y263360D03*
X1341730Y237960D03*
X1341730Y212560D03*
D29*
X978360Y122030D03*
X978360Y147430D03*
X978360Y172830D03*
X978360Y198230D03*
X978360Y223630D03*
X978360Y249030D03*
X978360Y274430D03*
X978360Y299830D03*
X978360Y325230D03*
X978360Y350630D03*
X978360Y376030D03*
X978360Y401430D03*
X825960Y401430D03*
X825960Y376030D03*
X825960Y350630D03*
X825960Y325230D03*
X825960Y299830D03*
X825960Y274430D03*
X825960Y249030D03*
X825960Y223630D03*
X825960Y198230D03*
X825960Y172830D03*
X825960Y147430D03*
X978360Y96630D03*
X825960Y122030D03*
X825960Y96630D03*
X978360Y71230D03*
X825960Y71230D03*
X978360Y426830D03*
X825960Y426830D03*
X978360Y452230D03*
X978360Y477630D03*
X978360Y503030D03*
X978360Y528430D03*
X978360Y553830D03*
X978360Y579230D03*
X978360Y604630D03*
X978360Y630030D03*
X978360Y655430D03*
X825960Y655430D03*
X825960Y630030D03*
X825960Y604630D03*
X825960Y579230D03*
X825960Y553830D03*
X825960Y528430D03*
X825960Y503030D03*
X825960Y477630D03*
X825960Y452230D03*
X851360Y96630D03*
X851360Y147430D03*
X851360Y172830D03*
X851360Y198230D03*
D30*
X855240Y799320D02*
X837460Y799320D01*
X837460Y773920D02*
X855240Y773920D01*
X855240Y824720D02*
X837460Y824720D01*
X837460Y850120D02*
X855240Y850120D01*
X855240Y875520D02*
X837460Y875520D01*
X837460Y748520D02*
X855240Y748520D01*
X855240Y723120D02*
X837460Y723120D01*
X837460Y697720D02*
X855240Y697720D01*
D18*
X1444667Y352390D02*
X1462574Y352390D01*
X1462574Y403190D02*
X1444667Y403190D01*
D31*
X1445570Y489160D03*
X1515570Y489160D03*
D11*
X217620Y756500D02*
X202380Y756500D01*
X202380Y781900D02*
X217620Y781900D01*
X217620Y807300D02*
X202380Y807300D01*
X202380Y832700D02*
X217620Y832700D01*
X217620Y858100D02*
X202380Y858100D01*
X202380Y883500D02*
X217620Y883500D01*
X322380Y756500D02*
X337620Y756500D01*
X337620Y781900D02*
X322380Y781900D01*
X322380Y807300D02*
X337620Y807300D01*
X337620Y832700D02*
X322380Y832700D01*
X322380Y858100D02*
X337620Y858100D01*
X337620Y883500D02*
X322380Y883500D01*
X1462380Y786500D02*
X1477620Y786500D01*
X1477620Y811900D02*
X1462380Y811900D01*
X1462380Y837300D02*
X1477620Y837300D01*
X1477620Y862700D02*
X1462380Y862700D01*
X1462380Y888100D02*
X1477620Y888100D01*
X1477620Y913500D02*
X1462380Y913500D01*
X1582380Y786500D02*
X1597620Y786500D01*
X1597620Y811900D02*
X1582380Y811900D01*
X1582380Y837300D02*
X1597620Y837300D01*
X1597620Y862700D02*
X1582380Y862700D01*
X1582380Y888100D02*
X1597620Y888100D01*
X1597620Y913500D02*
X1582380Y913500D01*
D18*
X351280Y1079697D02*
X351280Y1097604D01*
X402080Y1097604D02*
X402080Y1079697D01*
X452880Y1079697D02*
X452880Y1097604D01*
X503680Y1097604D02*
X503680Y1079697D01*
X554480Y1079697D02*
X554480Y1097604D01*
X605280Y1097604D02*
X605280Y1079697D01*
X1194580Y1079697D02*
X1194580Y1097604D01*
X1245380Y1097604D02*
X1245380Y1079697D01*
X1296180Y1079697D02*
X1296180Y1097604D01*
X1346980Y1097604D02*
X1346980Y1079697D01*
X1397780Y1079697D02*
X1397780Y1097604D01*
X1448580Y1097604D02*
X1448580Y1079697D01*
D32*
X243480Y610120D03*
X317480Y610120D03*
D17*
X168070Y975540D03*
X269670Y975540D03*
D33*
X451120Y785180D03*
D34*
X476620Y876680D03*
D33*
X502120Y785180D03*
D11*
X465920Y697130D02*
X465920Y681890D01*
X440520Y681890D02*
X440520Y697130D01*
X415120Y697130D02*
X415120Y681890D01*
X491320Y681890D02*
X491320Y697130D01*
X516720Y697130D02*
X516720Y681890D01*
X542120Y681890D02*
X542120Y697130D01*
X1309140Y696300D02*
X1309140Y681060D01*
X1283740Y681060D02*
X1283740Y696300D01*
X1258340Y696300D02*
X1258340Y681060D01*
X1334540Y681060D02*
X1334540Y696300D01*
X1359940Y696300D02*
X1359940Y681060D01*
X1385340Y681060D02*
X1385340Y696300D01*
D23*
X871600Y554240D03*
X871600Y526240D03*
D35*
X1496920Y567490D02*
X1522420Y567490D01*
X1522420Y607090D02*
X1496920Y607090D01*
D11*
X1296130Y980940D02*
X1296130Y996180D01*
X1321530Y996180D02*
X1321530Y980940D01*
X1346930Y980940D02*
X1346930Y996180D01*
D35*
X884640Y1082250D02*
X884640Y1107750D01*
X845040Y1107750D02*
X845040Y1082250D01*
D11*
X1096770Y732530D02*
X1096770Y717290D01*
X1122170Y717290D02*
X1122170Y732530D01*
X1147570Y732530D02*
X1147570Y717290D01*
X258030Y539870D02*
X242790Y539870D01*
X242790Y514470D02*
X258030Y514470D01*
D24*
X1307420Y339360D03*
X1279420Y339360D03*
D11*
X715370Y374100D02*
X700130Y374100D01*
X700130Y399500D02*
X715370Y399500D01*
X745280Y311250D02*
X760520Y311250D01*
X760520Y285850D02*
X745280Y285850D01*
X746270Y692700D02*
X731030Y692700D01*
X731030Y718100D02*
X746270Y718100D01*
X1561150Y727080D02*
X1561150Y742320D01*
X1586550Y742320D02*
X1586550Y727080D01*
X1611950Y727080D02*
X1611950Y742320D01*
X1559550Y674370D02*
X1559550Y659130D01*
X1584950Y659130D02*
X1584950Y674370D01*
X1610350Y674370D02*
X1610350Y659130D01*
D16*
X300861Y391589D03*
X282900Y409550D03*
X264939Y427511D03*
D36*
X456450Y599700D03*
D37*
X380000Y310000D03*
X541055Y569205D03*
D38*
X451210Y750880D03*
X589120Y746190D03*
X642600Y951050D03*
X775100Y604650D03*
M02*
