G04 EAGLE Gerber RS-274X export*
G75*
%MOMM*%
%FSLAX34Y34*%
%LPD*%
%INBottom Copper*%
%IPPOS*%
%AMOC8*
5,1,8,0,0,1.08239X$1,22.5*%
G01*
%ADD10P,1.732040X8X112.500000*%
%ADD11C,1.600200*%
%ADD12C,4.597400*%
%ADD13P,4.976180X8X292.500000*%
%ADD14C,1.879600*%
%ADD15C,1.320800*%
%ADD16R,2.000000X1.016000*%
%ADD17R,2.000000X1.270000*%
%ADD18R,2.430000X2.430000*%
%ADD19C,2.430000*%
%ADD20R,2.000000X1.600000*%
%ADD21P,1.429621X8X112.500000*%
%ADD22P,1.429621X8X292.500000*%
%ADD23P,3.257886X8X22.500000*%
%ADD24C,1.790700*%
%ADD25C,1.524000*%
%ADD26P,6.511658X8X292.500000*%
%ADD27C,1.016000*%
%ADD28C,0.906400*%
%ADD29C,0.508000*%
%ADD30C,0.406400*%
%ADD31C,0.812800*%
%ADD32C,0.304800*%
%ADD33C,2.000000*%

G36*
X756581Y10016D02*
X756581Y10016D01*
X756583Y10016D01*
X756585Y10016D01*
X756732Y10033D01*
X761783Y11125D01*
X761809Y11136D01*
X761837Y11139D01*
X761974Y11195D01*
X766547Y13602D01*
X766569Y13619D01*
X766595Y13630D01*
X766712Y13720D01*
X770471Y17266D01*
X770488Y17288D01*
X770510Y17306D01*
X770599Y17424D01*
X773269Y21848D01*
X773280Y21874D01*
X773296Y21897D01*
X773350Y22035D01*
X774736Y27013D01*
X774736Y27015D01*
X774737Y27018D01*
X774761Y27163D01*
X774937Y29746D01*
X774935Y29763D01*
X774939Y29797D01*
X774939Y968482D01*
X774936Y968498D01*
X774937Y968531D01*
X774774Y971023D01*
X774774Y971024D01*
X774750Y971168D01*
X773460Y975981D01*
X773450Y976004D01*
X773446Y976027D01*
X773433Y976055D01*
X773432Y976061D01*
X773428Y976068D01*
X773385Y976162D01*
X770893Y980478D01*
X770878Y980497D01*
X770868Y980519D01*
X770774Y980633D01*
X767251Y984157D01*
X767231Y984171D01*
X767215Y984190D01*
X767095Y984276D01*
X762780Y986768D01*
X762757Y986776D01*
X762737Y986790D01*
X762599Y986843D01*
X757785Y988132D01*
X757784Y988133D01*
X757640Y988156D01*
X755149Y988320D01*
X755132Y988318D01*
X755100Y988321D01*
X51268Y988321D01*
X51263Y988320D01*
X49121Y988321D01*
X49096Y988321D01*
X49079Y988319D01*
X49046Y988320D01*
X46481Y988148D01*
X46479Y988147D01*
X46478Y988147D01*
X46332Y988122D01*
X41388Y986758D01*
X41363Y986747D01*
X41336Y986742D01*
X41202Y986679D01*
X36800Y984047D01*
X36779Y984029D01*
X36755Y984017D01*
X36643Y983921D01*
X33101Y980212D01*
X33085Y980189D01*
X33065Y980171D01*
X32982Y980048D01*
X30556Y975529D01*
X30556Y975528D01*
X30555Y975526D01*
X30499Y975390D01*
X29763Y972927D01*
X29760Y972910D01*
X29750Y972878D01*
X29716Y972730D01*
X29716Y972726D01*
X29714Y972720D01*
X25212Y951453D01*
X25212Y951446D01*
X25208Y951433D01*
X21283Y929969D01*
X21283Y929959D01*
X21278Y929941D01*
X21018Y928118D01*
X20999Y928072D01*
X20967Y928017D01*
X20942Y927925D01*
X20934Y927904D01*
X20934Y927893D01*
X20931Y927885D01*
X19928Y926283D01*
X19925Y926277D01*
X19918Y926267D01*
X18955Y924641D01*
X18921Y924605D01*
X18870Y924566D01*
X18812Y924492D01*
X18796Y924475D01*
X18791Y924465D01*
X18786Y924458D01*
X17248Y923364D01*
X17243Y923359D01*
X17233Y923353D01*
X15719Y922218D01*
X15673Y922198D01*
X15611Y922182D01*
X15529Y922135D01*
X15509Y922126D01*
X15500Y922118D01*
X15493Y922114D01*
X13656Y921692D01*
X13649Y921690D01*
X13637Y921688D01*
X11802Y921218D01*
X11752Y921217D01*
X11689Y921226D01*
X11595Y921214D01*
X11572Y921213D01*
X11562Y921209D01*
X11553Y921208D01*
X9790Y921506D01*
X9769Y921506D01*
X9722Y921514D01*
X5903Y921803D01*
X5902Y921803D01*
X5754Y921800D01*
X-1901Y920847D01*
X-1926Y920840D01*
X-1952Y920839D01*
X-2093Y920796D01*
X-9229Y917865D01*
X-9251Y917851D01*
X-9276Y917844D01*
X-9401Y917766D01*
X-10165Y917178D01*
X-15515Y913062D01*
X-15533Y913043D01*
X-15555Y913029D01*
X-15655Y912921D01*
X-20318Y906775D01*
X-20330Y906752D01*
X-20347Y906733D01*
X-20416Y906603D01*
X-23299Y899447D01*
X-23305Y899422D01*
X-23317Y899399D01*
X-23349Y899255D01*
X-24250Y891594D01*
X-24249Y891568D01*
X-24254Y891543D01*
X-24247Y891395D01*
X-23103Y883766D01*
X-23095Y883742D01*
X-23094Y883716D01*
X-23048Y883575D01*
X-19939Y876515D01*
X-19925Y876494D01*
X-19916Y876469D01*
X-19835Y876346D01*
X-14980Y870351D01*
X-14961Y870334D01*
X-14946Y870312D01*
X-14836Y870215D01*
X-8575Y865707D01*
X-8552Y865695D01*
X-8533Y865678D01*
X-8400Y865613D01*
X-1175Y862910D01*
X-1175Y862909D01*
X-1174Y862909D01*
X-1031Y862872D01*
X2747Y862267D01*
X2769Y862267D01*
X2816Y862259D01*
X4601Y862140D01*
X4653Y862124D01*
X4710Y862096D01*
X4803Y862078D01*
X4825Y862072D01*
X4836Y862072D01*
X4846Y862070D01*
X6511Y861193D01*
X6517Y861191D01*
X6527Y861184D01*
X8224Y860345D01*
X8265Y860311D01*
X8307Y860263D01*
X8386Y860211D01*
X8404Y860196D01*
X8414Y860193D01*
X8423Y860187D01*
X9626Y858738D01*
X9632Y858734D01*
X9639Y858724D01*
X10883Y857300D01*
X10908Y857253D01*
X10929Y857193D01*
X10982Y857114D01*
X10993Y857094D01*
X11001Y857087D01*
X11007Y857078D01*
X11565Y855278D01*
X11568Y855272D01*
X11571Y855260D01*
X12175Y853470D01*
X12181Y853417D01*
X12177Y853353D01*
X12196Y853260D01*
X12198Y853238D01*
X12202Y853228D01*
X12205Y853217D01*
X12036Y851393D01*
X12037Y851382D01*
X12034Y851362D01*
X10725Y825430D01*
X10726Y825417D01*
X10724Y825393D01*
X10676Y773302D01*
X10678Y773286D01*
X10677Y773253D01*
X10812Y771181D01*
X11154Y765936D01*
X11496Y760691D01*
X11838Y755447D01*
X11838Y755446D01*
X12180Y750202D01*
X13303Y732969D01*
X13645Y727724D01*
X13986Y722480D01*
X13986Y722479D01*
X14065Y721273D01*
X14069Y721257D01*
X14070Y721224D01*
X20879Y669580D01*
X20883Y669564D01*
X20887Y669531D01*
X31087Y618450D01*
X31093Y618434D01*
X31098Y618401D01*
X44646Y568104D01*
X44651Y568092D01*
X44656Y568068D01*
X52643Y543357D01*
X52648Y543347D01*
X52653Y543328D01*
X53291Y541600D01*
X53296Y541555D01*
X53294Y541491D01*
X53316Y541399D01*
X53318Y541376D01*
X53323Y541366D01*
X53324Y541361D01*
X53204Y539474D01*
X53205Y539467D01*
X53203Y539456D01*
X53129Y537560D01*
X53117Y537516D01*
X53090Y537458D01*
X53075Y537365D01*
X53069Y537343D01*
X53070Y537332D01*
X53069Y537327D01*
X52237Y535631D01*
X52235Y535625D01*
X52229Y535615D01*
X51434Y533890D01*
X51406Y533854D01*
X51359Y533810D01*
X51309Y533730D01*
X51295Y533712D01*
X51292Y533702D01*
X51289Y533697D01*
X49873Y532451D01*
X49869Y532446D01*
X49859Y532439D01*
X48463Y531148D01*
X48423Y531125D01*
X48363Y531102D01*
X48287Y531047D01*
X48267Y531036D01*
X48260Y531028D01*
X48256Y531025D01*
X47246Y530680D01*
X46559Y530446D01*
X46540Y530436D01*
X46496Y530421D01*
X43003Y528861D01*
X43002Y528861D01*
X42874Y528787D01*
X36604Y524316D01*
X36585Y524298D01*
X36563Y524285D01*
X36458Y524180D01*
X31584Y518219D01*
X31571Y518196D01*
X31553Y518178D01*
X31480Y518049D01*
X28344Y511016D01*
X28337Y510991D01*
X28324Y510968D01*
X28288Y510825D01*
X27110Y503215D01*
X27111Y503189D01*
X27104Y503164D01*
X27106Y503016D01*
X27971Y495364D01*
X27978Y495339D01*
X27979Y495313D01*
X28019Y495171D01*
X30865Y488015D01*
X30878Y487993D01*
X30886Y487968D01*
X30962Y487842D01*
X35589Y481686D01*
X35607Y481668D01*
X35621Y481646D01*
X35728Y481544D01*
X41810Y476820D01*
X41832Y476808D01*
X41851Y476790D01*
X41981Y476720D01*
X49091Y473761D01*
X49116Y473755D01*
X49139Y473743D01*
X49283Y473710D01*
X56920Y472723D01*
X56946Y472724D01*
X56972Y472719D01*
X57119Y472724D01*
X64747Y473780D01*
X64748Y473780D01*
X64749Y473780D01*
X64892Y473815D01*
X68496Y475078D01*
X68515Y475088D01*
X68560Y475103D01*
X70185Y475847D01*
X70240Y475858D01*
X70304Y475860D01*
X70395Y475889D01*
X70417Y475893D01*
X70426Y475899D01*
X70438Y475903D01*
X72314Y475923D01*
X72321Y475924D01*
X72333Y475923D01*
X74225Y475992D01*
X74280Y475981D01*
X74340Y475959D01*
X74435Y475951D01*
X74457Y475946D01*
X74468Y475948D01*
X74480Y475947D01*
X76219Y475248D01*
X76226Y475247D01*
X76237Y475241D01*
X78013Y474580D01*
X78060Y474549D01*
X78107Y474506D01*
X78191Y474462D01*
X78210Y474449D01*
X78221Y474446D01*
X78231Y474441D01*
X79571Y473129D01*
X79577Y473125D01*
X79585Y473116D01*
X80972Y471826D01*
X81004Y471779D01*
X81031Y471722D01*
X81092Y471649D01*
X81104Y471630D01*
X81113Y471623D01*
X81121Y471614D01*
X81838Y469935D01*
X81843Y469926D01*
X81850Y469906D01*
X92826Y446901D01*
X92833Y446890D01*
X92842Y446868D01*
X117076Y401841D01*
X117086Y401828D01*
X117100Y401799D01*
X144199Y358437D01*
X144210Y358424D01*
X144226Y358396D01*
X174077Y316880D01*
X174088Y316868D01*
X174106Y316841D01*
X206583Y277345D01*
X206596Y277334D01*
X206615Y277309D01*
X241582Y239999D01*
X241595Y239989D01*
X241616Y239964D01*
X278926Y204998D01*
X278940Y204989D01*
X278962Y204966D01*
X318459Y172489D01*
X318473Y172481D01*
X318497Y172459D01*
X360014Y142609D01*
X360028Y142601D01*
X360054Y142582D01*
X403417Y115483D01*
X403432Y115476D01*
X403459Y115458D01*
X448486Y91225D01*
X448498Y91221D01*
X448518Y91208D01*
X471527Y80232D01*
X471537Y80228D01*
X471555Y80219D01*
X473239Y79499D01*
X473279Y79469D01*
X473324Y79424D01*
X473406Y79376D01*
X473424Y79363D01*
X473435Y79360D01*
X473444Y79354D01*
X474736Y77965D01*
X474742Y77960D01*
X474749Y77951D01*
X476064Y76607D01*
X476090Y76564D01*
X476114Y76505D01*
X476171Y76430D01*
X476183Y76410D01*
X476191Y76403D01*
X476198Y76395D01*
X476860Y74616D01*
X476863Y74610D01*
X476867Y74599D01*
X477567Y72854D01*
X477574Y72805D01*
X477574Y72741D01*
X477598Y72649D01*
X477601Y72627D01*
X477606Y72617D01*
X477609Y72607D01*
X477540Y70712D01*
X477541Y70705D01*
X477540Y70693D01*
X477519Y68812D01*
X477507Y68763D01*
X477482Y68704D01*
X477470Y68610D01*
X477464Y68588D01*
X477465Y68577D01*
X477464Y68567D01*
X476719Y66939D01*
X476714Y66919D01*
X476694Y66876D01*
X475427Y63265D01*
X475427Y63264D01*
X475426Y63264D01*
X475392Y63120D01*
X474331Y55479D01*
X474331Y55453D01*
X474325Y55428D01*
X474330Y55280D01*
X475315Y47629D01*
X475322Y47605D01*
X475323Y47579D01*
X475366Y47437D01*
X475478Y47168D01*
X475478Y47167D01*
X475789Y46418D01*
X475790Y46418D01*
X478327Y40314D01*
X478341Y40292D01*
X478348Y40267D01*
X478427Y40142D01*
X483156Y34048D01*
X483175Y34030D01*
X483189Y34009D01*
X483298Y33909D01*
X489463Y29271D01*
X489486Y29259D01*
X489505Y29242D01*
X489636Y29174D01*
X496803Y26320D01*
X496828Y26315D01*
X496851Y26303D01*
X496874Y26298D01*
X496886Y26293D01*
X496910Y26291D01*
X496996Y26272D01*
X504661Y25403D01*
X504687Y25404D01*
X504712Y25399D01*
X504859Y25407D01*
X512483Y26582D01*
X512508Y26590D01*
X512534Y26592D01*
X512674Y26638D01*
X519721Y29777D01*
X519743Y29791D01*
X519767Y29799D01*
X519890Y29881D01*
X525864Y34761D01*
X525882Y34781D01*
X525903Y34795D01*
X526000Y34906D01*
X530482Y41185D01*
X530482Y41186D01*
X530483Y41186D01*
X530556Y41314D01*
X532119Y44810D01*
X532124Y44831D01*
X532144Y44874D01*
X532722Y46568D01*
X532749Y46612D01*
X532791Y46660D01*
X532832Y46745D01*
X532844Y46764D01*
X532847Y46775D01*
X532851Y46784D01*
X534133Y48169D01*
X534137Y48175D01*
X534146Y48183D01*
X535394Y49602D01*
X535436Y49632D01*
X535493Y49660D01*
X535564Y49723D01*
X535582Y49736D01*
X535589Y49745D01*
X535596Y49751D01*
X537308Y50540D01*
X537314Y50543D01*
X537325Y50548D01*
X539024Y51382D01*
X539074Y51393D01*
X539138Y51398D01*
X539227Y51429D01*
X539249Y51434D01*
X539258Y51440D01*
X539267Y51443D01*
X541149Y51516D01*
X541155Y51517D01*
X541167Y51517D01*
X543058Y51638D01*
X543109Y51629D01*
X543170Y51609D01*
X543264Y51603D01*
X543287Y51599D01*
X543297Y51601D01*
X543307Y51601D01*
X545022Y50967D01*
X545033Y50965D01*
X545052Y50956D01*
X570364Y42792D01*
X570377Y42790D01*
X570401Y42781D01*
X621931Y29001D01*
X621948Y28999D01*
X621980Y28989D01*
X674324Y18722D01*
X674341Y18721D01*
X674374Y18714D01*
X727291Y12006D01*
X727304Y12007D01*
X727329Y12002D01*
X753927Y9994D01*
X753930Y9994D01*
X753933Y9993D01*
X753936Y9993D01*
X753955Y9995D01*
X753994Y9991D01*
X756581Y10016D01*
G37*
%LPC*%
G36*
X316883Y209671D02*
X316883Y209671D01*
X313895Y210909D01*
X311609Y213195D01*
X310371Y216183D01*
X310371Y216278D01*
X310355Y216374D01*
X310346Y216471D01*
X310336Y216494D01*
X310332Y216519D01*
X310286Y216605D01*
X310245Y216693D01*
X310224Y216719D01*
X310217Y216734D01*
X310198Y216751D01*
X310152Y216808D01*
X290764Y236195D01*
X288801Y238159D01*
X287795Y240586D01*
X287795Y328254D01*
X287779Y328350D01*
X287770Y328447D01*
X287760Y328470D01*
X287756Y328495D01*
X287710Y328581D01*
X287669Y328669D01*
X287648Y328695D01*
X287641Y328710D01*
X287622Y328727D01*
X287576Y328784D01*
X248734Y367625D01*
X246771Y369589D01*
X245765Y372016D01*
X245765Y493487D01*
X245781Y493528D01*
X245788Y493602D01*
X245794Y493626D01*
X245792Y493642D01*
X245795Y493675D01*
X245795Y758342D01*
X245779Y758438D01*
X245770Y758535D01*
X245760Y758558D01*
X245756Y758583D01*
X245710Y758669D01*
X245669Y758757D01*
X245648Y758783D01*
X245641Y758798D01*
X245622Y758815D01*
X245576Y758872D01*
X244647Y759800D01*
X243255Y763161D01*
X243255Y782039D01*
X244647Y785400D01*
X245576Y786328D01*
X245633Y786408D01*
X245695Y786483D01*
X245703Y786506D01*
X245718Y786527D01*
X245746Y786620D01*
X245781Y786711D01*
X245784Y786744D01*
X245789Y786760D01*
X245788Y786785D01*
X245795Y786858D01*
X245795Y846454D01*
X245779Y846550D01*
X245770Y846647D01*
X245760Y846670D01*
X245756Y846695D01*
X245710Y846781D01*
X245669Y846869D01*
X245648Y846895D01*
X245641Y846910D01*
X245622Y846927D01*
X245576Y846984D01*
X219384Y873176D01*
X219304Y873233D01*
X219229Y873295D01*
X219206Y873303D01*
X219185Y873318D01*
X219092Y873346D01*
X219001Y873381D01*
X218968Y873384D01*
X218952Y873389D01*
X218927Y873388D01*
X218854Y873395D01*
X174686Y873395D01*
X172259Y874401D01*
X131501Y915159D01*
X130495Y917586D01*
X130495Y941742D01*
X130479Y941838D01*
X130470Y941935D01*
X130460Y941958D01*
X130456Y941983D01*
X130410Y942069D01*
X130369Y942157D01*
X130348Y942183D01*
X130341Y942198D01*
X130322Y942215D01*
X130276Y942272D01*
X129347Y943200D01*
X127955Y946561D01*
X127955Y948646D01*
X127951Y948670D01*
X127954Y948695D01*
X127932Y948790D01*
X127916Y948887D01*
X127904Y948908D01*
X127898Y948932D01*
X127847Y949016D01*
X127801Y949102D01*
X127783Y949119D01*
X127770Y949140D01*
X127694Y949202D01*
X127623Y949269D01*
X127600Y949279D01*
X127581Y949295D01*
X127490Y949329D01*
X127400Y949370D01*
X127376Y949372D01*
X127353Y949381D01*
X127206Y949395D01*
X121594Y949395D01*
X121570Y949391D01*
X121545Y949394D01*
X121450Y949372D01*
X121353Y949356D01*
X121332Y949344D01*
X121308Y949338D01*
X121224Y949287D01*
X121138Y949241D01*
X121121Y949223D01*
X121100Y949210D01*
X121038Y949134D01*
X120971Y949063D01*
X120961Y949040D01*
X120945Y949021D01*
X120911Y948930D01*
X120870Y948840D01*
X120868Y948816D01*
X120859Y948793D01*
X120845Y948646D01*
X120845Y946561D01*
X119453Y943200D01*
X116880Y940627D01*
X113519Y939235D01*
X109881Y939235D01*
X106520Y940627D01*
X103947Y943200D01*
X102555Y946561D01*
X102555Y948646D01*
X102551Y948670D01*
X102554Y948695D01*
X102532Y948790D01*
X102516Y948887D01*
X102504Y948908D01*
X102498Y948932D01*
X102447Y949016D01*
X102401Y949102D01*
X102383Y949119D01*
X102370Y949140D01*
X102294Y949202D01*
X102223Y949269D01*
X102200Y949279D01*
X102181Y949295D01*
X102090Y949329D01*
X102000Y949370D01*
X101976Y949372D01*
X101953Y949381D01*
X101806Y949395D01*
X96194Y949395D01*
X96170Y949391D01*
X96145Y949394D01*
X96050Y949372D01*
X95953Y949356D01*
X95932Y949344D01*
X95908Y949338D01*
X95824Y949287D01*
X95738Y949241D01*
X95721Y949223D01*
X95700Y949210D01*
X95638Y949134D01*
X95571Y949063D01*
X95561Y949040D01*
X95545Y949021D01*
X95511Y948930D01*
X95470Y948840D01*
X95468Y948816D01*
X95459Y948793D01*
X95445Y948646D01*
X95445Y946561D01*
X94053Y943200D01*
X91480Y940627D01*
X88119Y939235D01*
X84481Y939235D01*
X81120Y940627D01*
X78547Y943200D01*
X77155Y946561D01*
X77155Y948646D01*
X77151Y948670D01*
X77154Y948695D01*
X77132Y948790D01*
X77116Y948887D01*
X77104Y948908D01*
X77098Y948932D01*
X77047Y949016D01*
X77001Y949102D01*
X76983Y949119D01*
X76970Y949140D01*
X76894Y949202D01*
X76823Y949269D01*
X76800Y949279D01*
X76781Y949295D01*
X76690Y949329D01*
X76600Y949370D01*
X76576Y949372D01*
X76553Y949381D01*
X76406Y949395D01*
X70794Y949395D01*
X70770Y949391D01*
X70745Y949394D01*
X70650Y949372D01*
X70553Y949356D01*
X70532Y949344D01*
X70508Y949338D01*
X70424Y949287D01*
X70338Y949241D01*
X70321Y949223D01*
X70300Y949210D01*
X70238Y949134D01*
X70171Y949063D01*
X70161Y949040D01*
X70145Y949021D01*
X70111Y948930D01*
X70070Y948840D01*
X70068Y948816D01*
X70059Y948793D01*
X70045Y948646D01*
X70045Y946561D01*
X68653Y943200D01*
X66080Y940627D01*
X62719Y939235D01*
X59081Y939235D01*
X55720Y940627D01*
X53147Y943200D01*
X51755Y946561D01*
X51755Y965439D01*
X53147Y968800D01*
X55720Y971373D01*
X59081Y972765D01*
X62719Y972765D01*
X66080Y971373D01*
X68653Y968800D01*
X70045Y965439D01*
X70045Y963354D01*
X70049Y963330D01*
X70046Y963305D01*
X70068Y963210D01*
X70084Y963113D01*
X70096Y963092D01*
X70102Y963068D01*
X70153Y962984D01*
X70199Y962898D01*
X70217Y962881D01*
X70230Y962860D01*
X70306Y962798D01*
X70377Y962731D01*
X70400Y962721D01*
X70419Y962705D01*
X70510Y962671D01*
X70600Y962630D01*
X70624Y962628D01*
X70647Y962619D01*
X70794Y962605D01*
X76406Y962605D01*
X76430Y962609D01*
X76455Y962606D01*
X76550Y962628D01*
X76647Y962644D01*
X76668Y962656D01*
X76692Y962662D01*
X76776Y962713D01*
X76862Y962759D01*
X76879Y962777D01*
X76900Y962790D01*
X76962Y962866D01*
X77029Y962937D01*
X77039Y962960D01*
X77055Y962979D01*
X77089Y963070D01*
X77130Y963160D01*
X77132Y963184D01*
X77141Y963207D01*
X77155Y963354D01*
X77155Y965439D01*
X78547Y968800D01*
X81120Y971373D01*
X84481Y972765D01*
X88119Y972765D01*
X91480Y971373D01*
X94053Y968800D01*
X95445Y965439D01*
X95445Y963354D01*
X95449Y963330D01*
X95446Y963305D01*
X95468Y963210D01*
X95484Y963113D01*
X95496Y963092D01*
X95502Y963068D01*
X95553Y962984D01*
X95599Y962898D01*
X95617Y962881D01*
X95630Y962860D01*
X95706Y962798D01*
X95777Y962731D01*
X95800Y962721D01*
X95819Y962705D01*
X95910Y962671D01*
X96000Y962630D01*
X96024Y962628D01*
X96047Y962619D01*
X96194Y962605D01*
X101806Y962605D01*
X101830Y962609D01*
X101855Y962606D01*
X101950Y962628D01*
X102047Y962644D01*
X102068Y962656D01*
X102092Y962662D01*
X102176Y962713D01*
X102262Y962759D01*
X102279Y962777D01*
X102300Y962790D01*
X102362Y962866D01*
X102429Y962937D01*
X102439Y962960D01*
X102455Y962979D01*
X102489Y963070D01*
X102530Y963160D01*
X102532Y963184D01*
X102541Y963207D01*
X102555Y963354D01*
X102555Y965439D01*
X103947Y968800D01*
X106520Y971373D01*
X109881Y972765D01*
X113519Y972765D01*
X116880Y971373D01*
X119453Y968800D01*
X120845Y965439D01*
X120845Y963354D01*
X120849Y963330D01*
X120846Y963305D01*
X120868Y963210D01*
X120884Y963113D01*
X120896Y963092D01*
X120902Y963068D01*
X120953Y962984D01*
X120999Y962898D01*
X121017Y962881D01*
X121030Y962860D01*
X121106Y962798D01*
X121177Y962731D01*
X121200Y962721D01*
X121219Y962705D01*
X121310Y962671D01*
X121400Y962630D01*
X121424Y962628D01*
X121447Y962619D01*
X121594Y962605D01*
X127206Y962605D01*
X127230Y962609D01*
X127255Y962606D01*
X127350Y962628D01*
X127447Y962644D01*
X127468Y962656D01*
X127492Y962662D01*
X127576Y962713D01*
X127662Y962759D01*
X127679Y962777D01*
X127700Y962790D01*
X127762Y962866D01*
X127829Y962937D01*
X127839Y962960D01*
X127855Y962979D01*
X127889Y963070D01*
X127930Y963160D01*
X127932Y963184D01*
X127941Y963207D01*
X127955Y963354D01*
X127955Y965439D01*
X129347Y968800D01*
X131920Y971373D01*
X135281Y972765D01*
X138919Y972765D01*
X142280Y971373D01*
X144853Y968800D01*
X146245Y965439D01*
X146245Y946561D01*
X144853Y943200D01*
X143924Y942272D01*
X143867Y942192D01*
X143805Y942117D01*
X143797Y942094D01*
X143782Y942073D01*
X143754Y941980D01*
X143719Y941889D01*
X143716Y941856D01*
X143711Y941840D01*
X143712Y941815D01*
X143705Y941742D01*
X143705Y921946D01*
X143721Y921850D01*
X143730Y921753D01*
X143740Y921730D01*
X143744Y921705D01*
X143790Y921619D01*
X143831Y921531D01*
X143852Y921505D01*
X143859Y921490D01*
X143878Y921473D01*
X143924Y921416D01*
X152615Y912725D01*
X152655Y912696D01*
X152689Y912661D01*
X152754Y912626D01*
X152814Y912583D01*
X152861Y912569D01*
X152904Y912546D01*
X152977Y912534D01*
X153047Y912512D01*
X153096Y912514D01*
X153145Y912506D01*
X153217Y912518D01*
X153291Y912520D01*
X153337Y912537D01*
X153386Y912545D01*
X153450Y912580D01*
X153519Y912606D01*
X153558Y912637D01*
X153601Y912660D01*
X153651Y912714D01*
X153708Y912761D01*
X153734Y912802D01*
X153768Y912838D01*
X153798Y912905D01*
X153837Y912968D01*
X153848Y913016D01*
X153869Y913060D01*
X153876Y913134D01*
X153893Y913205D01*
X153888Y913254D01*
X153893Y913303D01*
X153869Y913447D01*
X153869Y913448D01*
X153869Y913449D01*
X152438Y918788D01*
X152438Y925676D01*
X152560Y926130D01*
X152961Y927628D01*
X153162Y928377D01*
X153162Y928378D01*
X153564Y929876D01*
X153764Y930625D01*
X154166Y932124D01*
X154221Y932330D01*
X157665Y938295D01*
X162536Y943166D01*
X168501Y946610D01*
X175155Y948393D01*
X182043Y948393D01*
X188697Y946610D01*
X194662Y943166D01*
X199533Y938295D01*
X202977Y932330D01*
X204760Y925676D01*
X204760Y918788D01*
X204623Y918277D01*
X204623Y918276D01*
X204422Y917527D01*
X204221Y916778D01*
X204020Y916029D01*
X203619Y914530D01*
X203418Y913781D01*
X203017Y912283D01*
X203017Y912282D01*
X202977Y912134D01*
X199533Y906169D01*
X194662Y901298D01*
X188697Y897854D01*
X182043Y896071D01*
X175155Y896071D01*
X169816Y897502D01*
X169767Y897507D01*
X169720Y897521D01*
X169646Y897519D01*
X169573Y897526D01*
X169525Y897515D01*
X169476Y897513D01*
X169407Y897487D01*
X169335Y897470D01*
X169294Y897445D01*
X169248Y897427D01*
X169191Y897380D01*
X169128Y897342D01*
X169097Y897304D01*
X169059Y897273D01*
X169020Y897210D01*
X168973Y897153D01*
X168956Y897107D01*
X168930Y897065D01*
X168913Y896994D01*
X168887Y896925D01*
X168886Y896876D01*
X168874Y896828D01*
X168882Y896754D01*
X168879Y896681D01*
X168893Y896634D01*
X168898Y896585D01*
X168928Y896518D01*
X168950Y896447D01*
X168978Y896407D01*
X168999Y896363D01*
X169091Y896249D01*
X169092Y896249D01*
X169092Y896248D01*
X178516Y886824D01*
X178596Y886767D01*
X178671Y886705D01*
X178694Y886697D01*
X178715Y886682D01*
X178808Y886654D01*
X178899Y886619D01*
X178932Y886616D01*
X178948Y886611D01*
X178973Y886612D01*
X179046Y886605D01*
X223214Y886605D01*
X225641Y885599D01*
X257999Y853241D01*
X259005Y850814D01*
X259005Y786858D01*
X259021Y786762D01*
X259030Y786665D01*
X259040Y786642D01*
X259044Y786617D01*
X259090Y786531D01*
X259131Y786443D01*
X259152Y786417D01*
X259159Y786402D01*
X259178Y786385D01*
X259224Y786328D01*
X260153Y785400D01*
X261545Y782039D01*
X261545Y763161D01*
X260153Y759800D01*
X259224Y758872D01*
X259167Y758792D01*
X259105Y758717D01*
X259097Y758694D01*
X259082Y758673D01*
X259054Y758580D01*
X259019Y758489D01*
X259016Y758456D01*
X259011Y758440D01*
X259012Y758415D01*
X259005Y758342D01*
X259005Y490823D01*
X258989Y490782D01*
X258982Y490708D01*
X258976Y490684D01*
X258978Y490668D01*
X258975Y490635D01*
X258975Y376376D01*
X258980Y376345D01*
X258978Y376326D01*
X258992Y376265D01*
X259000Y376183D01*
X259010Y376160D01*
X259014Y376135D01*
X259028Y376110D01*
X259033Y376088D01*
X259069Y376031D01*
X259101Y375961D01*
X259122Y375935D01*
X259129Y375920D01*
X259148Y375903D01*
X259150Y375901D01*
X259162Y375881D01*
X259174Y375871D01*
X259194Y375846D01*
X298036Y337005D01*
X299999Y335041D01*
X301005Y332614D01*
X301005Y244946D01*
X301021Y244850D01*
X301030Y244753D01*
X301040Y244730D01*
X301044Y244705D01*
X301090Y244619D01*
X301131Y244531D01*
X301152Y244505D01*
X301159Y244490D01*
X301178Y244473D01*
X301224Y244416D01*
X319492Y226148D01*
X319572Y226091D01*
X319647Y226029D01*
X319670Y226021D01*
X319691Y226006D01*
X319784Y225978D01*
X319875Y225943D01*
X319908Y225940D01*
X319924Y225935D01*
X319949Y225936D01*
X320022Y225929D01*
X320117Y225929D01*
X323105Y224691D01*
X325391Y222405D01*
X326629Y219417D01*
X326629Y216183D01*
X325391Y213195D01*
X323105Y210909D01*
X320117Y209671D01*
X316883Y209671D01*
G37*
%LPD*%
%LPC*%
G36*
X460168Y434625D02*
X460168Y434625D01*
X459275Y435518D01*
X459275Y449482D01*
X460168Y450375D01*
X481432Y450375D01*
X482325Y449482D01*
X482325Y448838D01*
X482329Y448814D01*
X482326Y448789D01*
X482348Y448694D01*
X482364Y448597D01*
X482376Y448576D01*
X482382Y448552D01*
X482433Y448468D01*
X482479Y448382D01*
X482497Y448365D01*
X482510Y448344D01*
X482586Y448282D01*
X482657Y448215D01*
X482680Y448205D01*
X482699Y448189D01*
X482790Y448155D01*
X482880Y448114D01*
X482904Y448112D01*
X482927Y448103D01*
X483074Y448089D01*
X488175Y448089D01*
X488271Y448105D01*
X488368Y448114D01*
X488391Y448124D01*
X488415Y448128D01*
X488502Y448174D01*
X488590Y448215D01*
X488616Y448236D01*
X488631Y448243D01*
X488648Y448262D01*
X488705Y448308D01*
X524192Y483795D01*
X524249Y483875D01*
X524311Y483950D01*
X524319Y483973D01*
X524334Y483994D01*
X524362Y484087D01*
X524397Y484178D01*
X524400Y484211D01*
X524405Y484227D01*
X524404Y484252D01*
X524411Y484325D01*
X524411Y521488D01*
X525262Y523542D01*
X643592Y641872D01*
X643649Y641951D01*
X643711Y642026D01*
X643719Y642050D01*
X643734Y642070D01*
X643762Y642163D01*
X643797Y642255D01*
X643800Y642288D01*
X643805Y642304D01*
X643804Y642328D01*
X643811Y642402D01*
X643811Y675426D01*
X643807Y675450D01*
X643810Y675475D01*
X643788Y675570D01*
X643772Y675667D01*
X643760Y675688D01*
X643754Y675712D01*
X643703Y675796D01*
X643657Y675882D01*
X643639Y675899D01*
X643626Y675920D01*
X643550Y675982D01*
X643479Y676049D01*
X643456Y676059D01*
X643437Y676075D01*
X643346Y676109D01*
X643256Y676150D01*
X643232Y676152D01*
X643209Y676161D01*
X643062Y676175D01*
X638768Y676175D01*
X637875Y677068D01*
X637875Y694332D01*
X638768Y695225D01*
X660032Y695225D01*
X660925Y694332D01*
X660925Y677068D01*
X660032Y676175D01*
X655738Y676175D01*
X655714Y676171D01*
X655689Y676174D01*
X655594Y676152D01*
X655497Y676136D01*
X655476Y676124D01*
X655452Y676118D01*
X655368Y676067D01*
X655282Y676021D01*
X655265Y676003D01*
X655244Y675990D01*
X655182Y675914D01*
X655115Y675843D01*
X655105Y675820D01*
X655089Y675801D01*
X655055Y675710D01*
X655014Y675620D01*
X655012Y675596D01*
X655003Y675573D01*
X654989Y675426D01*
X654989Y638665D01*
X654138Y636611D01*
X600981Y583454D01*
X600953Y583414D01*
X600917Y583380D01*
X600882Y583315D01*
X600839Y583256D01*
X600825Y583209D01*
X600802Y583165D01*
X600790Y583092D01*
X600768Y583022D01*
X600770Y582973D01*
X600762Y582924D01*
X600774Y582852D01*
X600776Y582778D01*
X600793Y582732D01*
X600801Y582684D01*
X600836Y582619D01*
X600862Y582550D01*
X600893Y582512D01*
X600916Y582468D01*
X600970Y582418D01*
X601017Y582361D01*
X601058Y582335D01*
X601094Y582301D01*
X601161Y582271D01*
X601224Y582232D01*
X601272Y582221D01*
X601316Y582201D01*
X601390Y582193D01*
X601461Y582177D01*
X601510Y582181D01*
X601559Y582176D01*
X601703Y582200D01*
X601704Y582200D01*
X601705Y582200D01*
X606155Y583393D01*
X613043Y583393D01*
X619697Y581610D01*
X625662Y578166D01*
X630533Y573295D01*
X633977Y567330D01*
X635760Y560676D01*
X635760Y553788D01*
X635654Y553392D01*
X635453Y552643D01*
X635453Y552642D01*
X635051Y551144D01*
X634851Y550395D01*
X634449Y548896D01*
X634248Y548147D01*
X633977Y547134D01*
X630533Y541169D01*
X625662Y536298D01*
X619697Y532854D01*
X613043Y531071D01*
X606155Y531071D01*
X599501Y532854D01*
X593536Y536298D01*
X588665Y541169D01*
X585221Y547134D01*
X583438Y553788D01*
X583438Y560676D01*
X583591Y561245D01*
X583791Y561994D01*
X583792Y561994D01*
X583992Y562743D01*
X583992Y562744D01*
X584394Y564242D01*
X584594Y564991D01*
X584595Y564991D01*
X584631Y565126D01*
X584635Y565175D01*
X584650Y565222D01*
X584647Y565296D01*
X584655Y565369D01*
X584643Y565417D01*
X584642Y565466D01*
X584616Y565535D01*
X584599Y565606D01*
X584573Y565648D01*
X584556Y565694D01*
X584509Y565751D01*
X584470Y565814D01*
X584432Y565845D01*
X584401Y565883D01*
X584339Y565922D01*
X584282Y565969D01*
X584236Y565986D01*
X584194Y566012D01*
X584122Y566029D01*
X584054Y566055D01*
X584004Y566056D01*
X583957Y566068D01*
X583883Y566060D01*
X583810Y566063D01*
X583763Y566049D01*
X583714Y566044D01*
X583647Y566014D01*
X583576Y565992D01*
X583536Y565964D01*
X583491Y565943D01*
X583378Y565851D01*
X583378Y565850D01*
X583377Y565850D01*
X535808Y518281D01*
X535751Y518201D01*
X535689Y518126D01*
X535681Y518103D01*
X535666Y518082D01*
X535638Y517989D01*
X535603Y517898D01*
X535600Y517865D01*
X535595Y517849D01*
X535596Y517824D01*
X535589Y517751D01*
X535589Y480588D01*
X534738Y478534D01*
X493966Y437762D01*
X491912Y436911D01*
X483074Y436911D01*
X483050Y436907D01*
X483025Y436910D01*
X482930Y436888D01*
X482833Y436872D01*
X482812Y436860D01*
X482788Y436854D01*
X482704Y436803D01*
X482618Y436757D01*
X482601Y436739D01*
X482580Y436726D01*
X482518Y436650D01*
X482451Y436579D01*
X482441Y436556D01*
X482425Y436537D01*
X482391Y436446D01*
X482350Y436356D01*
X482348Y436332D01*
X482339Y436309D01*
X482325Y436162D01*
X482325Y435518D01*
X481432Y434625D01*
X460168Y434625D01*
G37*
%LPD*%
%LPC*%
G36*
X347608Y798575D02*
X347608Y798575D01*
X343372Y800330D01*
X266830Y876872D01*
X265075Y881108D01*
X265075Y929642D01*
X266065Y932031D01*
X266076Y932079D01*
X266096Y932124D01*
X266099Y932148D01*
X266107Y932171D01*
X266115Y932245D01*
X266120Y932269D01*
X266119Y932285D01*
X266122Y932318D01*
X266122Y938388D01*
X267717Y942239D01*
X270665Y945187D01*
X274516Y946782D01*
X278684Y946782D01*
X282535Y945187D01*
X285483Y942239D01*
X287078Y938388D01*
X287078Y932318D01*
X287082Y932294D01*
X287080Y932269D01*
X287091Y932222D01*
X287092Y932173D01*
X287114Y932102D01*
X287118Y932077D01*
X287126Y932063D01*
X287135Y932032D01*
X287135Y932031D01*
X288125Y929642D01*
X288125Y888484D01*
X288141Y888388D01*
X288150Y888291D01*
X288160Y888268D01*
X288164Y888243D01*
X288210Y888157D01*
X288251Y888069D01*
X288272Y888043D01*
X288279Y888028D01*
X288298Y888011D01*
X288344Y887954D01*
X354454Y821844D01*
X354534Y821787D01*
X354609Y821725D01*
X354632Y821717D01*
X354653Y821702D01*
X354746Y821674D01*
X354837Y821639D01*
X354870Y821636D01*
X354886Y821631D01*
X354911Y821632D01*
X354984Y821625D01*
X398292Y821625D01*
X402528Y819870D01*
X402934Y819464D01*
X403014Y819407D01*
X403089Y819345D01*
X403112Y819337D01*
X403133Y819322D01*
X403226Y819294D01*
X403317Y819259D01*
X403350Y819256D01*
X403366Y819251D01*
X403391Y819252D01*
X403464Y819245D01*
X405439Y819245D01*
X408800Y817853D01*
X411373Y815280D01*
X412765Y811919D01*
X412765Y808281D01*
X411373Y804920D01*
X408800Y802347D01*
X405439Y800955D01*
X403464Y800955D01*
X403368Y800939D01*
X403271Y800930D01*
X403248Y800920D01*
X403223Y800916D01*
X403137Y800870D01*
X403049Y800829D01*
X403023Y800808D01*
X403008Y800801D01*
X402991Y800782D01*
X402934Y800736D01*
X402528Y800330D01*
X398292Y798575D01*
X347608Y798575D01*
G37*
%LPD*%
%LPC*%
G36*
X372208Y823975D02*
X372208Y823975D01*
X367972Y825730D01*
X317630Y876072D01*
X315875Y880308D01*
X315875Y929642D01*
X316865Y932031D01*
X316876Y932079D01*
X316896Y932124D01*
X316899Y932148D01*
X316907Y932171D01*
X316915Y932245D01*
X316920Y932269D01*
X316919Y932285D01*
X316922Y932318D01*
X316922Y938388D01*
X318517Y942239D01*
X321465Y945187D01*
X325316Y946782D01*
X329484Y946782D01*
X333335Y945187D01*
X336283Y942239D01*
X337878Y938388D01*
X337878Y932318D01*
X337882Y932294D01*
X337880Y932269D01*
X337891Y932222D01*
X337892Y932173D01*
X337914Y932102D01*
X337918Y932077D01*
X337926Y932063D01*
X337935Y932032D01*
X337935Y932031D01*
X338925Y929642D01*
X338925Y887684D01*
X338941Y887588D01*
X338950Y887491D01*
X338960Y887468D01*
X338964Y887443D01*
X339010Y887357D01*
X339051Y887269D01*
X339072Y887243D01*
X339079Y887228D01*
X339098Y887211D01*
X339144Y887154D01*
X379054Y847244D01*
X379134Y847187D01*
X379209Y847125D01*
X379232Y847117D01*
X379253Y847102D01*
X379346Y847074D01*
X379437Y847039D01*
X379470Y847036D01*
X379486Y847031D01*
X379511Y847032D01*
X379584Y847025D01*
X398292Y847025D01*
X402528Y845270D01*
X402934Y844864D01*
X403014Y844807D01*
X403089Y844745D01*
X403112Y844737D01*
X403133Y844722D01*
X403226Y844694D01*
X403317Y844659D01*
X403350Y844656D01*
X403366Y844651D01*
X403391Y844652D01*
X403464Y844645D01*
X405439Y844645D01*
X408800Y843253D01*
X411373Y840680D01*
X412765Y837319D01*
X412765Y833681D01*
X411373Y830320D01*
X408800Y827747D01*
X405439Y826355D01*
X403464Y826355D01*
X403368Y826339D01*
X403271Y826330D01*
X403248Y826320D01*
X403223Y826316D01*
X403137Y826270D01*
X403049Y826229D01*
X403023Y826208D01*
X403008Y826201D01*
X402991Y826182D01*
X402934Y826136D01*
X402528Y825730D01*
X398292Y823975D01*
X372208Y823975D01*
G37*
%LPD*%
%LPC*%
G36*
X688209Y479395D02*
X688209Y479395D01*
X669695Y497909D01*
X669695Y524091D01*
X688209Y542605D01*
X714391Y542605D01*
X732905Y524091D01*
X732905Y497909D01*
X714391Y479395D01*
X688209Y479395D01*
G37*
%LPD*%
%LPC*%
G36*
X24216Y863209D02*
X24216Y863209D01*
X17562Y864992D01*
X11597Y868436D01*
X6726Y873306D01*
X3282Y879272D01*
X1499Y885925D01*
X1499Y892814D01*
X1593Y893163D01*
X1994Y894661D01*
X2195Y895410D01*
X2195Y895411D01*
X2597Y896909D01*
X2797Y897658D01*
X3199Y899157D01*
X3282Y899467D01*
X6726Y905433D01*
X11597Y910303D01*
X17562Y913747D01*
X24216Y915530D01*
X31104Y915530D01*
X37758Y913747D01*
X43723Y910303D01*
X48594Y905433D01*
X52038Y899467D01*
X53821Y892814D01*
X53821Y885925D01*
X53656Y885310D01*
X53656Y885309D01*
X53254Y883811D01*
X53053Y883062D01*
X52652Y881563D01*
X52451Y880814D01*
X52050Y879316D01*
X52050Y879315D01*
X52038Y879272D01*
X48594Y873306D01*
X43723Y868436D01*
X37758Y864992D01*
X31104Y863209D01*
X24216Y863209D01*
G37*
%LPD*%
%LPC*%
G36*
X706764Y757590D02*
X706764Y757590D01*
X700110Y759373D01*
X694145Y762817D01*
X689274Y767688D01*
X685830Y773653D01*
X684047Y780307D01*
X684047Y787195D01*
X684134Y787518D01*
X684134Y787519D01*
X684535Y789017D01*
X684536Y789017D01*
X684736Y789766D01*
X685138Y791265D01*
X685338Y792014D01*
X685339Y792014D01*
X685740Y793512D01*
X685740Y793513D01*
X685830Y793849D01*
X689274Y799814D01*
X694145Y804685D01*
X700110Y808129D01*
X706764Y809912D01*
X713652Y809912D01*
X720306Y808129D01*
X726271Y804685D01*
X731142Y799814D01*
X734586Y793849D01*
X736369Y787195D01*
X736369Y780307D01*
X736197Y779665D01*
X735795Y778167D01*
X735595Y777418D01*
X735595Y777417D01*
X735193Y775919D01*
X734992Y775170D01*
X734591Y773671D01*
X734586Y773653D01*
X731142Y767688D01*
X726271Y762817D01*
X720306Y759373D01*
X713652Y757590D01*
X706764Y757590D01*
G37*
%LPD*%
%LPC*%
G36*
X606155Y896071D02*
X606155Y896071D01*
X599501Y897854D01*
X593536Y901298D01*
X588665Y906169D01*
X585221Y912134D01*
X583438Y918788D01*
X583438Y925676D01*
X583560Y926130D01*
X583961Y927628D01*
X584162Y928377D01*
X584162Y928378D01*
X584564Y929876D01*
X584764Y930625D01*
X585166Y932124D01*
X585221Y932330D01*
X588665Y938295D01*
X593536Y943166D01*
X599501Y946610D01*
X606155Y948393D01*
X613043Y948393D01*
X619697Y946610D01*
X625662Y943166D01*
X630533Y938295D01*
X633977Y932330D01*
X635760Y925676D01*
X635760Y918788D01*
X635623Y918277D01*
X635623Y918276D01*
X635422Y917527D01*
X635221Y916778D01*
X635020Y916029D01*
X634619Y914530D01*
X634418Y913781D01*
X634017Y912283D01*
X634017Y912282D01*
X633977Y912134D01*
X630533Y906169D01*
X625662Y901298D01*
X619697Y897854D01*
X613043Y896071D01*
X606155Y896071D01*
G37*
%LPD*%
%LPC*%
G36*
X74061Y484609D02*
X74061Y484609D01*
X67408Y486392D01*
X61442Y489836D01*
X56572Y494707D01*
X53128Y500672D01*
X51345Y507326D01*
X51345Y514214D01*
X51499Y514791D01*
X51500Y514791D01*
X51500Y514792D01*
X51700Y515541D01*
X51901Y516290D01*
X52102Y517039D01*
X52303Y517788D01*
X52303Y517789D01*
X52503Y518538D01*
X52704Y519287D01*
X53106Y520785D01*
X53106Y520786D01*
X53128Y520868D01*
X56572Y526833D01*
X61442Y531704D01*
X67408Y535148D01*
X74061Y536931D01*
X80950Y536931D01*
X87603Y535148D01*
X93569Y531704D01*
X98439Y526833D01*
X101883Y520868D01*
X103666Y514214D01*
X103666Y507326D01*
X103562Y506938D01*
X103161Y505440D01*
X102960Y504691D01*
X102960Y504690D01*
X102559Y503192D01*
X102358Y502443D01*
X101956Y500944D01*
X101883Y500672D01*
X98439Y494707D01*
X93569Y489836D01*
X87603Y486392D01*
X80950Y484609D01*
X74061Y484609D01*
G37*
%LPD*%
%LPC*%
G36*
X175155Y531071D02*
X175155Y531071D01*
X168501Y532854D01*
X162536Y536298D01*
X157665Y541169D01*
X154221Y547134D01*
X152438Y553788D01*
X152438Y560676D01*
X152591Y561245D01*
X152791Y561994D01*
X152792Y561994D01*
X152992Y562743D01*
X152992Y562744D01*
X153193Y563493D01*
X153394Y564242D01*
X153594Y564991D01*
X153595Y564991D01*
X153795Y565740D01*
X153795Y565741D01*
X153996Y566490D01*
X154197Y567239D01*
X154221Y567330D01*
X157665Y573295D01*
X162536Y578166D01*
X168501Y581610D01*
X175155Y583393D01*
X182043Y583393D01*
X188697Y581610D01*
X194662Y578166D01*
X199533Y573295D01*
X202977Y567330D01*
X204760Y560676D01*
X204760Y553788D01*
X204654Y553392D01*
X204453Y552643D01*
X204453Y552642D01*
X204051Y551144D01*
X203851Y550395D01*
X203449Y548896D01*
X203248Y548147D01*
X202977Y547134D01*
X199533Y541169D01*
X194662Y536298D01*
X188697Y532854D01*
X182043Y531071D01*
X175155Y531071D01*
G37*
%LPD*%
%LPC*%
G36*
X508943Y49727D02*
X508943Y49727D01*
X502289Y51510D01*
X496324Y54954D01*
X491453Y59825D01*
X488009Y65790D01*
X486226Y72444D01*
X486226Y79332D01*
X486265Y79477D01*
X486466Y80226D01*
X486466Y80227D01*
X486867Y81725D01*
X487068Y82474D01*
X487470Y83973D01*
X487670Y84722D01*
X488009Y85986D01*
X491453Y91951D01*
X496324Y96822D01*
X502289Y100266D01*
X508943Y102049D01*
X515831Y102049D01*
X522485Y100266D01*
X528450Y96822D01*
X533321Y91951D01*
X536765Y85986D01*
X538548Y79332D01*
X538548Y72444D01*
X538529Y72373D01*
X538328Y71624D01*
X537927Y70126D01*
X537926Y70125D01*
X537726Y69376D01*
X537324Y67878D01*
X537124Y67129D01*
X537123Y67129D01*
X537123Y67128D01*
X536765Y65790D01*
X533321Y59825D01*
X528450Y54954D01*
X522485Y51510D01*
X515831Y49727D01*
X508943Y49727D01*
G37*
%LPD*%
%LPC*%
G36*
X668224Y196388D02*
X668224Y196388D01*
X659215Y200120D01*
X652320Y207015D01*
X648588Y216024D01*
X648588Y225776D01*
X652320Y234785D01*
X659215Y241680D01*
X668224Y245412D01*
X677976Y245412D01*
X686985Y241680D01*
X693880Y234785D01*
X697612Y225776D01*
X697612Y216024D01*
X693880Y207015D01*
X686985Y200120D01*
X677976Y196388D01*
X668224Y196388D01*
G37*
%LPD*%
%LPC*%
G36*
X124511Y628126D02*
X124511Y628126D01*
X114802Y637835D01*
X114802Y651565D01*
X124511Y661274D01*
X138241Y661274D01*
X146101Y653415D01*
X146121Y653400D01*
X146136Y653381D01*
X146219Y653330D01*
X146299Y653272D01*
X146323Y653265D01*
X146344Y653252D01*
X146439Y653230D01*
X146533Y653202D01*
X146557Y653202D01*
X146581Y653197D01*
X146679Y653206D01*
X146777Y653209D01*
X146800Y653218D01*
X146824Y653220D01*
X146913Y653261D01*
X147005Y653295D01*
X147024Y653311D01*
X147046Y653321D01*
X147161Y653415D01*
X158224Y664478D01*
X158281Y664557D01*
X158343Y664632D01*
X158351Y664656D01*
X158366Y664676D01*
X158394Y664769D01*
X158429Y664861D01*
X158432Y664894D01*
X158437Y664910D01*
X158436Y664935D01*
X158443Y665008D01*
X158443Y756481D01*
X158427Y756577D01*
X158418Y756674D01*
X158408Y756697D01*
X158404Y756722D01*
X158358Y756808D01*
X158317Y756896D01*
X158296Y756922D01*
X158289Y756937D01*
X158270Y756954D01*
X158224Y757011D01*
X156865Y758369D01*
X155943Y760595D01*
X155943Y763005D01*
X156865Y765231D01*
X158569Y766935D01*
X160795Y767857D01*
X163205Y767857D01*
X165431Y766935D01*
X167135Y765231D01*
X168057Y763005D01*
X168057Y760595D01*
X167135Y758369D01*
X165776Y757011D01*
X165719Y756931D01*
X165657Y756856D01*
X165649Y756833D01*
X165634Y756812D01*
X165606Y756719D01*
X165571Y756628D01*
X165568Y756595D01*
X165563Y756579D01*
X165564Y756554D01*
X165557Y756481D01*
X165557Y661751D01*
X163254Y659448D01*
X148170Y644364D01*
X148122Y644297D01*
X148100Y644273D01*
X148094Y644262D01*
X148051Y644209D01*
X148042Y644186D01*
X148028Y644165D01*
X147999Y644072D01*
X147965Y643981D01*
X147962Y643948D01*
X147957Y643932D01*
X147957Y643907D01*
X147950Y643834D01*
X147950Y637835D01*
X138241Y628126D01*
X124511Y628126D01*
G37*
%LPD*%
%LPC*%
G36*
X696818Y700025D02*
X696818Y700025D01*
X695925Y700918D01*
X695925Y707362D01*
X695921Y707386D01*
X695924Y707411D01*
X695902Y707506D01*
X695886Y707603D01*
X695874Y707624D01*
X695868Y707648D01*
X695817Y707732D01*
X695771Y707818D01*
X695753Y707835D01*
X695740Y707856D01*
X695664Y707918D01*
X695593Y707985D01*
X695570Y707995D01*
X695551Y708011D01*
X695460Y708045D01*
X695370Y708086D01*
X695346Y708088D01*
X695323Y708097D01*
X695176Y708111D01*
X661674Y708111D01*
X661650Y708107D01*
X661625Y708110D01*
X661530Y708088D01*
X661433Y708072D01*
X661412Y708060D01*
X661388Y708054D01*
X661304Y708003D01*
X661218Y707957D01*
X661201Y707939D01*
X661180Y707926D01*
X661118Y707850D01*
X661051Y707779D01*
X661041Y707756D01*
X661025Y707737D01*
X660991Y707646D01*
X660950Y707556D01*
X660948Y707532D01*
X660939Y707509D01*
X660925Y707362D01*
X660925Y705068D01*
X660032Y704175D01*
X638768Y704175D01*
X637875Y705068D01*
X637875Y722332D01*
X638768Y723225D01*
X660032Y723225D01*
X660925Y722332D01*
X660925Y720038D01*
X660929Y720014D01*
X660926Y719989D01*
X660948Y719894D01*
X660964Y719797D01*
X660976Y719776D01*
X660982Y719752D01*
X661033Y719668D01*
X661079Y719582D01*
X661097Y719565D01*
X661110Y719544D01*
X661186Y719482D01*
X661257Y719415D01*
X661280Y719405D01*
X661299Y719389D01*
X661390Y719355D01*
X661480Y719314D01*
X661504Y719312D01*
X661527Y719303D01*
X661674Y719289D01*
X695176Y719289D01*
X695200Y719293D01*
X695225Y719290D01*
X695320Y719312D01*
X695417Y719328D01*
X695438Y719340D01*
X695462Y719346D01*
X695546Y719397D01*
X695632Y719443D01*
X695649Y719461D01*
X695670Y719474D01*
X695732Y719550D01*
X695799Y719621D01*
X695809Y719644D01*
X695825Y719663D01*
X695859Y719754D01*
X695900Y719844D01*
X695902Y719868D01*
X695911Y719891D01*
X695925Y720038D01*
X695925Y726482D01*
X696818Y727375D01*
X722382Y727375D01*
X723275Y726482D01*
X723275Y700918D01*
X722382Y700025D01*
X696818Y700025D01*
G37*
%LPD*%
%LPC*%
G36*
X505768Y355675D02*
X505768Y355675D01*
X504875Y356568D01*
X504875Y373832D01*
X505768Y374725D01*
X512602Y374725D01*
X512626Y374729D01*
X512651Y374726D01*
X512746Y374748D01*
X512843Y374764D01*
X512864Y374776D01*
X512888Y374782D01*
X512972Y374833D01*
X513058Y374879D01*
X513075Y374897D01*
X513096Y374910D01*
X513158Y374986D01*
X513225Y375057D01*
X513235Y375080D01*
X513251Y375099D01*
X513285Y375190D01*
X513326Y375280D01*
X513328Y375304D01*
X513337Y375327D01*
X513351Y375474D01*
X513351Y447663D01*
X536637Y470949D01*
X547526Y470949D01*
X547550Y470953D01*
X547575Y470950D01*
X547670Y470972D01*
X547767Y470988D01*
X547788Y471000D01*
X547812Y471006D01*
X547896Y471057D01*
X547982Y471103D01*
X547999Y471121D01*
X548020Y471134D01*
X548082Y471210D01*
X548149Y471281D01*
X548159Y471304D01*
X548175Y471323D01*
X548209Y471414D01*
X548250Y471504D01*
X548252Y471528D01*
X548261Y471551D01*
X548275Y471698D01*
X548275Y474882D01*
X549168Y475775D01*
X570432Y475775D01*
X571325Y474882D01*
X571325Y460918D01*
X570432Y460025D01*
X549168Y460025D01*
X548275Y460918D01*
X548275Y464102D01*
X548271Y464126D01*
X548274Y464151D01*
X548252Y464246D01*
X548236Y464343D01*
X548224Y464364D01*
X548218Y464388D01*
X548167Y464472D01*
X548121Y464558D01*
X548103Y464575D01*
X548090Y464596D01*
X548014Y464658D01*
X547943Y464725D01*
X547920Y464735D01*
X547901Y464751D01*
X547810Y464785D01*
X547720Y464826D01*
X547696Y464828D01*
X547673Y464837D01*
X547526Y464851D01*
X539473Y464851D01*
X539377Y464835D01*
X539280Y464826D01*
X539257Y464816D01*
X539232Y464812D01*
X539146Y464766D01*
X539058Y464725D01*
X539032Y464704D01*
X539017Y464697D01*
X539000Y464678D01*
X538943Y464632D01*
X519668Y445357D01*
X519611Y445277D01*
X519549Y445202D01*
X519541Y445179D01*
X519526Y445158D01*
X519498Y445065D01*
X519463Y444974D01*
X519460Y444941D01*
X519455Y444925D01*
X519456Y444900D01*
X519449Y444827D01*
X519449Y375474D01*
X519453Y375450D01*
X519450Y375425D01*
X519472Y375330D01*
X519488Y375233D01*
X519500Y375212D01*
X519506Y375188D01*
X519557Y375104D01*
X519603Y375018D01*
X519621Y375001D01*
X519634Y374980D01*
X519710Y374918D01*
X519781Y374851D01*
X519804Y374841D01*
X519823Y374825D01*
X519914Y374791D01*
X520004Y374750D01*
X520028Y374748D01*
X520051Y374739D01*
X520198Y374725D01*
X527032Y374725D01*
X527925Y373832D01*
X527925Y356568D01*
X527032Y355675D01*
X505768Y355675D01*
G37*
%LPD*%
%LPC*%
G36*
X460168Y486695D02*
X460168Y486695D01*
X459275Y487588D01*
X459275Y499012D01*
X460168Y499905D01*
X475954Y499905D01*
X476050Y499921D01*
X476147Y499930D01*
X476170Y499940D01*
X476195Y499944D01*
X476281Y499990D01*
X476369Y500031D01*
X476395Y500052D01*
X476410Y500059D01*
X476427Y500078D01*
X476484Y500124D01*
X479076Y502716D01*
X479133Y502796D01*
X479195Y502871D01*
X479203Y502894D01*
X479218Y502915D01*
X479246Y503008D01*
X479281Y503099D01*
X479284Y503132D01*
X479289Y503148D01*
X479288Y503173D01*
X479295Y503246D01*
X479295Y541454D01*
X479279Y541550D01*
X479270Y541647D01*
X479260Y541670D01*
X479256Y541695D01*
X479210Y541781D01*
X479169Y541869D01*
X479148Y541895D01*
X479141Y541910D01*
X479122Y541927D01*
X479076Y541984D01*
X475305Y545755D01*
X475225Y545812D01*
X475150Y545874D01*
X475127Y545882D01*
X475106Y545897D01*
X475013Y545925D01*
X474922Y545960D01*
X474889Y545963D01*
X474873Y545968D01*
X474848Y545967D01*
X474775Y545974D01*
X473005Y545974D01*
X469504Y547424D01*
X466824Y550104D01*
X465374Y553605D01*
X465374Y557395D01*
X466824Y560896D01*
X469504Y563576D01*
X473005Y565026D01*
X476795Y565026D01*
X480296Y563576D01*
X482976Y560896D01*
X484426Y557395D01*
X484426Y555625D01*
X484442Y555529D01*
X484451Y555432D01*
X484461Y555409D01*
X484465Y555384D01*
X484511Y555298D01*
X484552Y555210D01*
X484573Y555184D01*
X484580Y555169D01*
X484599Y555152D01*
X484645Y555095D01*
X491499Y548241D01*
X492505Y545814D01*
X492505Y498886D01*
X491499Y496459D01*
X482741Y487701D01*
X482360Y487543D01*
X482298Y487504D01*
X482231Y487474D01*
X482174Y487427D01*
X482152Y487414D01*
X482142Y487401D01*
X482117Y487380D01*
X481432Y486695D01*
X460168Y486695D01*
G37*
%LPD*%
%LPC*%
G36*
X76759Y587994D02*
X76759Y587994D01*
X67050Y597703D01*
X67050Y611433D01*
X76759Y621142D01*
X90489Y621142D01*
X100198Y611433D01*
X100198Y597703D01*
X90489Y587994D01*
X76759Y587994D01*
G37*
%LPD*%
%LPC*%
G36*
X124511Y587994D02*
X124511Y587994D01*
X114802Y597703D01*
X114802Y611433D01*
X124511Y621142D01*
X138241Y621142D01*
X147950Y611433D01*
X147950Y597703D01*
X138241Y587994D01*
X124511Y587994D01*
G37*
%LPD*%
%LPC*%
G36*
X76759Y628126D02*
X76759Y628126D01*
X67050Y637835D01*
X67050Y651565D01*
X76759Y661274D01*
X90489Y661274D01*
X100198Y651565D01*
X100198Y637835D01*
X90489Y628126D01*
X76759Y628126D01*
G37*
%LPD*%
%LPC*%
G36*
X76759Y668258D02*
X76759Y668258D01*
X67050Y677967D01*
X67050Y691697D01*
X76759Y701406D01*
X90489Y701406D01*
X100198Y691697D01*
X100198Y677967D01*
X90489Y668258D01*
X76759Y668258D01*
G37*
%LPD*%
%LPC*%
G36*
X124511Y668258D02*
X124511Y668258D01*
X114802Y677967D01*
X114802Y691697D01*
X124511Y701406D01*
X138241Y701406D01*
X147950Y691697D01*
X147950Y677967D01*
X138241Y668258D01*
X124511Y668258D01*
G37*
%LPD*%
%LPC*%
G36*
X468795Y293943D02*
X468795Y293943D01*
X466569Y294865D01*
X464865Y296569D01*
X463943Y298795D01*
X463943Y301205D01*
X464865Y303431D01*
X466569Y305135D01*
X468795Y306057D01*
X471205Y306057D01*
X473431Y305135D01*
X475179Y303387D01*
X475230Y303304D01*
X475349Y303206D01*
X475418Y303149D01*
X475419Y303149D01*
X475539Y303104D01*
X475647Y303063D01*
X475794Y303049D01*
X478427Y303049D01*
X478523Y303065D01*
X478620Y303074D01*
X478643Y303084D01*
X478668Y303088D01*
X478754Y303134D01*
X478842Y303175D01*
X478868Y303196D01*
X478883Y303203D01*
X478900Y303222D01*
X478957Y303268D01*
X504656Y328967D01*
X504713Y329047D01*
X504775Y329122D01*
X504783Y329145D01*
X504798Y329166D01*
X504826Y329259D01*
X504861Y329350D01*
X504864Y329383D01*
X504869Y329399D01*
X504868Y329424D01*
X504875Y329497D01*
X504875Y345832D01*
X505768Y346725D01*
X527032Y346725D01*
X527925Y345832D01*
X527925Y328568D01*
X527032Y327675D01*
X512297Y327675D01*
X512201Y327659D01*
X512104Y327650D01*
X512081Y327640D01*
X512056Y327636D01*
X511970Y327590D01*
X511882Y327549D01*
X511856Y327528D01*
X511841Y327521D01*
X511839Y327519D01*
X511824Y327502D01*
X511767Y327456D01*
X481263Y296951D01*
X475794Y296951D01*
X475661Y296929D01*
X475553Y296912D01*
X475425Y296843D01*
X475338Y296797D01*
X475254Y296708D01*
X475171Y296619D01*
X475171Y296618D01*
X475156Y296590D01*
X473431Y294865D01*
X471205Y293943D01*
X468795Y293943D01*
G37*
%LPD*%
%LPC*%
G36*
X702799Y442499D02*
X702799Y442499D01*
X702799Y473621D01*
X714812Y473621D01*
X733921Y454512D01*
X733921Y442499D01*
X702799Y442499D01*
G37*
%LPD*%
%LPC*%
G36*
X668679Y442499D02*
X668679Y442499D01*
X668679Y454512D01*
X687788Y473621D01*
X699801Y473621D01*
X699801Y442499D01*
X668679Y442499D01*
G37*
%LPD*%
%LPC*%
G36*
X702799Y408379D02*
X702799Y408379D01*
X702799Y439501D01*
X733921Y439501D01*
X733921Y427488D01*
X714812Y408379D01*
X702799Y408379D01*
G37*
%LPD*%
%LPC*%
G36*
X687788Y408379D02*
X687788Y408379D01*
X668679Y427488D01*
X668679Y439501D01*
X699801Y439501D01*
X699801Y408379D01*
X687788Y408379D01*
G37*
%LPD*%
%LPC*%
G36*
X685316Y909318D02*
X685316Y909318D01*
X681465Y910913D01*
X678517Y913861D01*
X676922Y917712D01*
X676922Y939788D01*
X678517Y943639D01*
X681465Y946587D01*
X685316Y948182D01*
X689484Y948182D01*
X693335Y946587D01*
X696283Y943639D01*
X697878Y939788D01*
X697878Y917712D01*
X696283Y913861D01*
X693335Y910913D01*
X689484Y909318D01*
X685316Y909318D01*
G37*
%LPD*%
%LPC*%
G36*
X736116Y909318D02*
X736116Y909318D01*
X732265Y910913D01*
X729317Y913861D01*
X727722Y917712D01*
X727722Y939788D01*
X729317Y943639D01*
X732265Y946587D01*
X736116Y948182D01*
X740284Y948182D01*
X744135Y946587D01*
X747083Y943639D01*
X748678Y939788D01*
X748678Y917712D01*
X747083Y913861D01*
X744135Y910913D01*
X740284Y909318D01*
X736116Y909318D01*
G37*
%LPD*%
%LPC*%
G36*
X486516Y908918D02*
X486516Y908918D01*
X482665Y910513D01*
X479717Y913461D01*
X478122Y917312D01*
X478122Y939388D01*
X479717Y943239D01*
X482665Y946187D01*
X486516Y947782D01*
X490684Y947782D01*
X494535Y946187D01*
X497483Y943239D01*
X499078Y939388D01*
X499078Y917312D01*
X497483Y913461D01*
X494535Y910513D01*
X490684Y908918D01*
X486516Y908918D01*
G37*
%LPD*%
%LPC*%
G36*
X537316Y908918D02*
X537316Y908918D01*
X533465Y910513D01*
X530517Y913461D01*
X528922Y917312D01*
X528922Y939388D01*
X530517Y943239D01*
X533465Y946187D01*
X537316Y947782D01*
X541484Y947782D01*
X545335Y946187D01*
X548283Y943239D01*
X549878Y939388D01*
X549878Y917312D01*
X548283Y913461D01*
X545335Y910513D01*
X541484Y908918D01*
X537316Y908918D01*
G37*
%LPD*%
%LPC*%
G36*
X431316Y907918D02*
X431316Y907918D01*
X427465Y909513D01*
X424517Y912461D01*
X422922Y916312D01*
X422922Y938388D01*
X424517Y942239D01*
X427465Y945187D01*
X431316Y946782D01*
X435484Y946782D01*
X439335Y945187D01*
X442283Y942239D01*
X443878Y938388D01*
X443878Y916312D01*
X442283Y912461D01*
X439335Y909513D01*
X435484Y907918D01*
X431316Y907918D01*
G37*
%LPD*%
%LPC*%
G36*
X706880Y645525D02*
X706880Y645525D01*
X701854Y647607D01*
X698007Y651454D01*
X695925Y656480D01*
X695925Y661920D01*
X698007Y666946D01*
X701854Y670793D01*
X706880Y672875D01*
X712320Y672875D01*
X717346Y670793D01*
X721193Y666946D01*
X723275Y661920D01*
X723275Y656480D01*
X721193Y651454D01*
X717346Y647607D01*
X712320Y645525D01*
X706880Y645525D01*
G37*
%LPD*%
%LPC*%
G36*
X183653Y327207D02*
X183653Y327207D01*
X180427Y328887D01*
X178088Y331674D01*
X176994Y335143D01*
X177311Y338767D01*
X178991Y341994D01*
X193452Y354129D01*
X196922Y355223D01*
X200546Y354906D01*
X203773Y353226D01*
X206112Y350439D01*
X207205Y346969D01*
X206888Y343345D01*
X205209Y340118D01*
X190747Y327984D01*
X187278Y326890D01*
X183653Y327207D01*
G37*
%LPD*%
%LPC*%
G36*
X199980Y307749D02*
X199980Y307749D01*
X196753Y309429D01*
X194415Y312216D01*
X193321Y315686D01*
X193638Y319310D01*
X195318Y322537D01*
X209779Y334671D01*
X213249Y335765D01*
X216873Y335448D01*
X220100Y333768D01*
X222438Y330981D01*
X223532Y327512D01*
X223215Y323888D01*
X221535Y320661D01*
X207074Y308526D01*
X203604Y307432D01*
X199980Y307749D01*
G37*
%LPD*%
%LPC*%
G36*
X232634Y268834D02*
X232634Y268834D01*
X229407Y270514D01*
X227068Y273301D01*
X225974Y276771D01*
X226292Y280395D01*
X227971Y283622D01*
X242433Y295756D01*
X245902Y296850D01*
X249527Y296533D01*
X252753Y294853D01*
X255092Y292066D01*
X256186Y288597D01*
X255869Y284973D01*
X254189Y281746D01*
X239728Y269611D01*
X236258Y268517D01*
X232634Y268834D01*
G37*
%LPD*%
%LPC*%
G36*
X167327Y346664D02*
X167327Y346664D01*
X164100Y348344D01*
X161761Y351131D01*
X160667Y354601D01*
X160984Y358225D01*
X162664Y361452D01*
X177126Y373586D01*
X180595Y374680D01*
X184219Y374363D01*
X187446Y372683D01*
X189785Y369896D01*
X190879Y366427D01*
X190562Y362803D01*
X188882Y359576D01*
X174420Y347441D01*
X170951Y346347D01*
X167327Y346664D01*
G37*
%LPD*%
%LPC*%
G36*
X216307Y288292D02*
X216307Y288292D01*
X213080Y289972D01*
X210742Y292759D01*
X209648Y296228D01*
X209965Y299852D01*
X211645Y303079D01*
X226106Y315214D01*
X229576Y316308D01*
X233200Y315991D01*
X236427Y314311D01*
X238765Y311524D01*
X239859Y308054D01*
X239542Y304430D01*
X237862Y301203D01*
X223401Y289069D01*
X219931Y287975D01*
X216307Y288292D01*
G37*
%LPD*%
%LPC*%
G36*
X514361Y749755D02*
X514361Y749755D01*
X511000Y751147D01*
X508427Y753720D01*
X507035Y757081D01*
X507035Y760719D01*
X508427Y764080D01*
X511000Y766653D01*
X514361Y768045D01*
X533239Y768045D01*
X536600Y766653D01*
X539173Y764080D01*
X540565Y760719D01*
X540565Y757081D01*
X539173Y753720D01*
X536600Y751147D01*
X533239Y749755D01*
X514361Y749755D01*
G37*
%LPD*%
%LPC*%
G36*
X514361Y800555D02*
X514361Y800555D01*
X511000Y801947D01*
X508427Y804520D01*
X507035Y807881D01*
X507035Y811519D01*
X508427Y814880D01*
X511000Y817453D01*
X514361Y818845D01*
X533239Y818845D01*
X536600Y817453D01*
X539173Y814880D01*
X540565Y811519D01*
X540565Y807881D01*
X539173Y804520D01*
X536600Y801947D01*
X533239Y800555D01*
X514361Y800555D01*
G37*
%LPD*%
%LPC*%
G36*
X514361Y775155D02*
X514361Y775155D01*
X511000Y776547D01*
X508427Y779120D01*
X507035Y782481D01*
X507035Y786119D01*
X508427Y789480D01*
X511000Y792053D01*
X514361Y793445D01*
X533239Y793445D01*
X536600Y792053D01*
X539173Y789480D01*
X540565Y786119D01*
X540565Y782481D01*
X539173Y779120D01*
X536600Y776547D01*
X533239Y775155D01*
X514361Y775155D01*
G37*
%LPD*%
%LPC*%
G36*
X386561Y699355D02*
X386561Y699355D01*
X383200Y700747D01*
X380627Y703320D01*
X379235Y706681D01*
X379235Y710319D01*
X380627Y713680D01*
X383200Y716253D01*
X386561Y717645D01*
X405439Y717645D01*
X408800Y716253D01*
X411373Y713680D01*
X412765Y710319D01*
X412765Y706681D01*
X411373Y703320D01*
X408800Y700747D01*
X405439Y699355D01*
X386561Y699355D01*
G37*
%LPD*%
%LPC*%
G36*
X514361Y825955D02*
X514361Y825955D01*
X511000Y827347D01*
X508427Y829920D01*
X507035Y833281D01*
X507035Y836919D01*
X508427Y840280D01*
X511000Y842853D01*
X514361Y844245D01*
X533239Y844245D01*
X536600Y842853D01*
X539173Y840280D01*
X540565Y836919D01*
X540565Y833281D01*
X539173Y829920D01*
X536600Y827347D01*
X533239Y825955D01*
X514361Y825955D01*
G37*
%LPD*%
%LPC*%
G36*
X199781Y755835D02*
X199781Y755835D01*
X196420Y757227D01*
X193847Y759800D01*
X192455Y763161D01*
X192455Y782039D01*
X193847Y785400D01*
X196420Y787973D01*
X199781Y789365D01*
X203419Y789365D01*
X206780Y787973D01*
X209353Y785400D01*
X210745Y782039D01*
X210745Y763161D01*
X209353Y759800D01*
X206780Y757227D01*
X203419Y755835D01*
X199781Y755835D01*
G37*
%LPD*%
%LPC*%
G36*
X514361Y698955D02*
X514361Y698955D01*
X511000Y700347D01*
X508427Y702920D01*
X507035Y706281D01*
X507035Y709919D01*
X508427Y713280D01*
X511000Y715853D01*
X514361Y717245D01*
X533239Y717245D01*
X536600Y715853D01*
X539173Y713280D01*
X540565Y709919D01*
X540565Y706281D01*
X539173Y702920D01*
X536600Y700347D01*
X533239Y698955D01*
X514361Y698955D01*
G37*
%LPD*%
%LPC*%
G36*
X386561Y775555D02*
X386561Y775555D01*
X383200Y776947D01*
X380627Y779520D01*
X379235Y782881D01*
X379235Y786519D01*
X380627Y789880D01*
X383200Y792453D01*
X386561Y793845D01*
X405439Y793845D01*
X408800Y792453D01*
X411373Y789880D01*
X412765Y786519D01*
X412765Y782881D01*
X411373Y779520D01*
X408800Y776947D01*
X405439Y775555D01*
X386561Y775555D01*
G37*
%LPD*%
%LPC*%
G36*
X386561Y750155D02*
X386561Y750155D01*
X383200Y751547D01*
X380627Y754120D01*
X379235Y757481D01*
X379235Y761119D01*
X380627Y764480D01*
X383200Y767053D01*
X386561Y768445D01*
X405439Y768445D01*
X408800Y767053D01*
X411373Y764480D01*
X412765Y761119D01*
X412765Y757481D01*
X411373Y754120D01*
X408800Y751547D01*
X405439Y750155D01*
X386561Y750155D01*
G37*
%LPD*%
%LPC*%
G36*
X514361Y724355D02*
X514361Y724355D01*
X511000Y725747D01*
X508427Y728320D01*
X507035Y731681D01*
X507035Y735319D01*
X508427Y738680D01*
X511000Y741253D01*
X514361Y742645D01*
X533239Y742645D01*
X536600Y741253D01*
X539173Y738680D01*
X540565Y735319D01*
X540565Y731681D01*
X539173Y728320D01*
X536600Y725747D01*
X533239Y724355D01*
X514361Y724355D01*
G37*
%LPD*%
%LPC*%
G36*
X386561Y724755D02*
X386561Y724755D01*
X383200Y726147D01*
X380627Y728720D01*
X379235Y732081D01*
X379235Y735719D01*
X380627Y739080D01*
X383200Y741653D01*
X386561Y743045D01*
X405439Y743045D01*
X408800Y741653D01*
X411373Y739080D01*
X412765Y735719D01*
X412765Y732081D01*
X411373Y728720D01*
X408800Y726147D01*
X405439Y724755D01*
X386561Y724755D01*
G37*
%LPD*%
%LPC*%
G36*
X674599Y120799D02*
X674599Y120799D01*
X674599Y144828D01*
X683674Y144828D01*
X698628Y129874D01*
X698628Y120799D01*
X674599Y120799D01*
G37*
%LPD*%
%LPC*%
G36*
X674599Y117801D02*
X674599Y117801D01*
X698628Y117801D01*
X698628Y108726D01*
X683674Y93772D01*
X674599Y93772D01*
X674599Y117801D01*
G37*
%LPD*%
%LPC*%
G36*
X647572Y120799D02*
X647572Y120799D01*
X647572Y129874D01*
X662526Y144828D01*
X671601Y144828D01*
X671601Y120799D01*
X647572Y120799D01*
G37*
%LPD*%
%LPC*%
G36*
X662526Y93772D02*
X662526Y93772D01*
X647572Y108726D01*
X647572Y117801D01*
X671601Y117801D01*
X671601Y93772D01*
X662526Y93772D01*
G37*
%LPD*%
%LPC*%
G36*
X68827Y769577D02*
X68827Y769577D01*
X64813Y771240D01*
X61740Y774313D01*
X60077Y778327D01*
X60077Y782673D01*
X61740Y786687D01*
X64813Y789760D01*
X68827Y791423D01*
X73173Y791423D01*
X77187Y789760D01*
X80260Y786687D01*
X81923Y782673D01*
X81923Y778327D01*
X80260Y774313D01*
X77187Y771240D01*
X73173Y769577D01*
X68827Y769577D01*
G37*
%LPD*%
%LPC*%
G36*
X68427Y846877D02*
X68427Y846877D01*
X64413Y848540D01*
X61340Y851613D01*
X59677Y855627D01*
X59677Y859973D01*
X61340Y863987D01*
X64413Y867060D01*
X68427Y868723D01*
X72773Y868723D01*
X76787Y867060D01*
X79860Y863987D01*
X81523Y859973D01*
X81523Y855627D01*
X79860Y851613D01*
X76787Y848540D01*
X72773Y846877D01*
X68427Y846877D01*
G37*
%LPD*%
%LPC*%
G36*
X460168Y460025D02*
X460168Y460025D01*
X459275Y460918D01*
X459275Y474882D01*
X460168Y475775D01*
X481432Y475775D01*
X482325Y474882D01*
X482325Y460918D01*
X481432Y460025D01*
X460168Y460025D01*
G37*
%LPD*%
%LPC*%
G36*
X549168Y486695D02*
X549168Y486695D01*
X548275Y487588D01*
X548275Y499012D01*
X549168Y499905D01*
X570432Y499905D01*
X571325Y499012D01*
X571325Y487588D01*
X570432Y486695D01*
X549168Y486695D01*
G37*
%LPD*%
%LPC*%
G36*
X549168Y410495D02*
X549168Y410495D01*
X548275Y411388D01*
X548275Y422812D01*
X549168Y423705D01*
X570432Y423705D01*
X571325Y422812D01*
X571325Y411388D01*
X570432Y410495D01*
X549168Y410495D01*
G37*
%LPD*%
%LPC*%
G36*
X532005Y545874D02*
X532005Y545874D01*
X528504Y547324D01*
X525824Y550004D01*
X524374Y553505D01*
X524374Y557295D01*
X525824Y560796D01*
X528504Y563476D01*
X532005Y564926D01*
X535795Y564926D01*
X539296Y563476D01*
X541976Y560796D01*
X543426Y557295D01*
X543426Y553505D01*
X541976Y550004D01*
X539296Y547324D01*
X535795Y545874D01*
X532005Y545874D01*
G37*
%LPD*%
%LPC*%
G36*
X414005Y545074D02*
X414005Y545074D01*
X410504Y546524D01*
X407824Y549204D01*
X406374Y552705D01*
X406374Y556495D01*
X407824Y559996D01*
X410504Y562676D01*
X414005Y564126D01*
X417795Y564126D01*
X421296Y562676D01*
X423976Y559996D01*
X425426Y556495D01*
X425426Y552705D01*
X423976Y549204D01*
X421296Y546524D01*
X417795Y545074D01*
X414005Y545074D01*
G37*
%LPD*%
%LPC*%
G36*
X426733Y169971D02*
X426733Y169971D01*
X421971Y174733D01*
X421971Y181467D01*
X426733Y186229D01*
X433467Y186229D01*
X438229Y181467D01*
X438229Y174733D01*
X433467Y169971D01*
X426733Y169971D01*
G37*
%LPD*%
%LPC*%
G36*
X426733Y271571D02*
X426733Y271571D01*
X421971Y276333D01*
X421971Y283067D01*
X426733Y287829D01*
X433467Y287829D01*
X438229Y283067D01*
X438229Y276333D01*
X433467Y271571D01*
X426733Y271571D01*
G37*
%LPD*%
%LPC*%
G36*
X456533Y169171D02*
X456533Y169171D01*
X451771Y173933D01*
X451771Y180667D01*
X456533Y185429D01*
X463267Y185429D01*
X468029Y180667D01*
X468029Y173933D01*
X463267Y169171D01*
X456533Y169171D01*
G37*
%LPD*%
%LPC*%
G36*
X393083Y209671D02*
X393083Y209671D01*
X390095Y210909D01*
X387809Y213195D01*
X386571Y216183D01*
X386571Y219417D01*
X387809Y222405D01*
X390095Y224691D01*
X393083Y225929D01*
X396317Y225929D01*
X399305Y224691D01*
X401591Y222405D01*
X402829Y219417D01*
X402829Y216183D01*
X401591Y213195D01*
X399305Y210909D01*
X396317Y209671D01*
X393083Y209671D01*
G37*
%LPD*%
%LPC*%
G36*
X316883Y235071D02*
X316883Y235071D01*
X313895Y236309D01*
X311609Y238595D01*
X310371Y241583D01*
X310371Y244817D01*
X311609Y247805D01*
X313895Y250091D01*
X316883Y251329D01*
X320117Y251329D01*
X323105Y250091D01*
X325391Y247805D01*
X326629Y244817D01*
X326629Y241583D01*
X325391Y238595D01*
X323105Y236309D01*
X320117Y235071D01*
X316883Y235071D01*
G37*
%LPD*%
%LPC*%
G36*
X393083Y184271D02*
X393083Y184271D01*
X390095Y185509D01*
X387809Y187795D01*
X386571Y190783D01*
X386571Y194017D01*
X387809Y197005D01*
X390095Y199291D01*
X393083Y200529D01*
X396317Y200529D01*
X399305Y199291D01*
X401591Y197005D01*
X402829Y194017D01*
X402829Y190783D01*
X401591Y187795D01*
X399305Y185509D01*
X396317Y184271D01*
X393083Y184271D01*
G37*
%LPD*%
%LPC*%
G36*
X316883Y260471D02*
X316883Y260471D01*
X313895Y261709D01*
X311609Y263995D01*
X310371Y266983D01*
X310371Y270217D01*
X311609Y273205D01*
X313895Y275491D01*
X316883Y276729D01*
X320117Y276729D01*
X323105Y275491D01*
X325391Y273205D01*
X326629Y270217D01*
X326629Y266983D01*
X325391Y263995D01*
X323105Y261709D01*
X320117Y260471D01*
X316883Y260471D01*
G37*
%LPD*%
%LPC*%
G36*
X316883Y184271D02*
X316883Y184271D01*
X313895Y185509D01*
X311609Y187795D01*
X310371Y190783D01*
X310371Y194017D01*
X311609Y197005D01*
X313895Y199291D01*
X316883Y200529D01*
X320117Y200529D01*
X323105Y199291D01*
X325391Y197005D01*
X326629Y194017D01*
X326629Y190783D01*
X325391Y187795D01*
X323105Y185509D01*
X320117Y184271D01*
X316883Y184271D01*
G37*
%LPD*%
%LPC*%
G36*
X393083Y235071D02*
X393083Y235071D01*
X390095Y236309D01*
X387809Y238595D01*
X386571Y241583D01*
X386571Y244817D01*
X387809Y247805D01*
X390095Y250091D01*
X393083Y251329D01*
X396317Y251329D01*
X399305Y250091D01*
X401591Y247805D01*
X402829Y244817D01*
X402829Y241583D01*
X401591Y238595D01*
X399305Y236309D01*
X396317Y235071D01*
X393083Y235071D01*
G37*
%LPD*%
%LPC*%
G36*
X384099Y928849D02*
X384099Y928849D01*
X384099Y947704D01*
X385292Y947515D01*
X387012Y946956D01*
X388624Y946134D01*
X390088Y945071D01*
X391367Y943791D01*
X392431Y942328D01*
X393252Y940716D01*
X393811Y938995D01*
X394094Y937208D01*
X394094Y928849D01*
X384099Y928849D01*
G37*
%LPD*%
%LPC*%
G36*
X384099Y925851D02*
X384099Y925851D01*
X394094Y925851D01*
X394094Y917492D01*
X393811Y915705D01*
X393252Y913984D01*
X392431Y912372D01*
X391367Y910909D01*
X390088Y909629D01*
X388624Y908566D01*
X387012Y907744D01*
X385292Y907185D01*
X384099Y906996D01*
X384099Y925851D01*
G37*
%LPD*%
%LPC*%
G36*
X371106Y928849D02*
X371106Y928849D01*
X371106Y937208D01*
X371389Y938995D01*
X371948Y940716D01*
X372769Y942328D01*
X373833Y943791D01*
X375112Y945071D01*
X376576Y946134D01*
X378188Y946956D01*
X379908Y947515D01*
X381101Y947704D01*
X381101Y928849D01*
X371106Y928849D01*
G37*
%LPD*%
%LPC*%
G36*
X379908Y907185D02*
X379908Y907185D01*
X378188Y907744D01*
X376576Y908566D01*
X375112Y909629D01*
X373833Y910909D01*
X372769Y912372D01*
X371948Y913984D01*
X371389Y915705D01*
X371106Y917492D01*
X371106Y925851D01*
X381101Y925851D01*
X381101Y906996D01*
X379908Y907185D01*
G37*
%LPD*%
%LPC*%
G36*
X711099Y606199D02*
X711099Y606199D01*
X711099Y619336D01*
X713040Y619029D01*
X715239Y618314D01*
X717300Y617265D01*
X719170Y615906D01*
X720806Y614270D01*
X722165Y612400D01*
X723214Y610339D01*
X723929Y608140D01*
X724236Y606199D01*
X711099Y606199D01*
G37*
%LPD*%
%LPC*%
G36*
X711099Y603201D02*
X711099Y603201D01*
X724236Y603201D01*
X723929Y601260D01*
X723214Y599061D01*
X722165Y597000D01*
X720806Y595130D01*
X719170Y593494D01*
X717300Y592135D01*
X715239Y591086D01*
X713040Y590371D01*
X711099Y590064D01*
X711099Y603201D01*
G37*
%LPD*%
%LPC*%
G36*
X694964Y606199D02*
X694964Y606199D01*
X695271Y608140D01*
X695986Y610339D01*
X697035Y612400D01*
X698394Y614270D01*
X700030Y615906D01*
X701900Y617265D01*
X703961Y618314D01*
X706160Y619029D01*
X708101Y619336D01*
X708101Y606199D01*
X694964Y606199D01*
G37*
%LPD*%
%LPC*%
G36*
X706160Y590371D02*
X706160Y590371D01*
X703961Y591086D01*
X701900Y592135D01*
X700030Y593494D01*
X698394Y595130D01*
X697035Y597000D01*
X695986Y599061D01*
X695271Y601260D01*
X694964Y603201D01*
X708101Y603201D01*
X708101Y590064D01*
X706160Y590371D01*
G37*
%LPD*%
%LPC*%
G36*
X609459Y759389D02*
X609459Y759389D01*
X609459Y768051D01*
X616380Y768051D01*
X617959Y767801D01*
X619480Y767306D01*
X620905Y766580D01*
X622199Y765640D01*
X623330Y764509D01*
X624270Y763215D01*
X624996Y761790D01*
X625491Y760269D01*
X625630Y759389D01*
X609459Y759389D01*
G37*
%LPD*%
%LPC*%
G36*
X609459Y835589D02*
X609459Y835589D01*
X609459Y844251D01*
X616380Y844251D01*
X617959Y844001D01*
X619480Y843506D01*
X620905Y842780D01*
X622199Y841840D01*
X623330Y840709D01*
X624270Y839415D01*
X624996Y837990D01*
X625491Y836469D01*
X625630Y835589D01*
X609459Y835589D01*
G37*
%LPD*%
%LPC*%
G36*
X609459Y810189D02*
X609459Y810189D01*
X609459Y818851D01*
X616380Y818851D01*
X617959Y818601D01*
X619480Y818106D01*
X620905Y817380D01*
X622199Y816440D01*
X623330Y815309D01*
X624270Y814015D01*
X624996Y812590D01*
X625491Y811069D01*
X625630Y810189D01*
X609459Y810189D01*
G37*
%LPD*%
%LPC*%
G36*
X609459Y784789D02*
X609459Y784789D01*
X609459Y793451D01*
X616380Y793451D01*
X617959Y793201D01*
X619480Y792706D01*
X620905Y791980D01*
X622199Y791040D01*
X623330Y789909D01*
X624270Y788615D01*
X624996Y787190D01*
X625491Y785669D01*
X625630Y784789D01*
X609459Y784789D01*
G37*
%LPD*%
%LPC*%
G36*
X228499Y774099D02*
X228499Y774099D01*
X228499Y790270D01*
X229379Y790131D01*
X230900Y789636D01*
X232325Y788910D01*
X233619Y787970D01*
X234750Y786839D01*
X235690Y785545D01*
X236416Y784120D01*
X236911Y782599D01*
X237161Y781020D01*
X237161Y774099D01*
X228499Y774099D01*
G37*
%LPD*%
%LPC*%
G36*
X252024Y271973D02*
X252024Y271973D01*
X257326Y276422D01*
X258697Y277246D01*
X260179Y277845D01*
X261738Y278204D01*
X263333Y278316D01*
X264926Y278177D01*
X266478Y277790D01*
X267950Y277165D01*
X269307Y276317D01*
X269979Y275733D01*
X257592Y265338D01*
X252024Y271973D01*
G37*
%LPD*%
%LPC*%
G36*
X259519Y263041D02*
X259519Y263041D01*
X271907Y273436D01*
X272366Y272672D01*
X272965Y271189D01*
X273324Y269631D01*
X273436Y268035D01*
X273297Y266442D01*
X272910Y264890D01*
X272285Y263418D01*
X271437Y262062D01*
X270388Y260855D01*
X265087Y256406D01*
X259519Y263041D01*
G37*
%LPD*%
%LPC*%
G36*
X590290Y835589D02*
X590290Y835589D01*
X590429Y836469D01*
X590924Y837990D01*
X591650Y839415D01*
X592590Y840709D01*
X593721Y841840D01*
X595015Y842780D01*
X596440Y843506D01*
X597961Y844001D01*
X599540Y844251D01*
X606461Y844251D01*
X606461Y835589D01*
X590290Y835589D01*
G37*
%LPD*%
%LPC*%
G36*
X590290Y759389D02*
X590290Y759389D01*
X590429Y760269D01*
X590924Y761790D01*
X591650Y763215D01*
X592590Y764509D01*
X593721Y765640D01*
X595015Y766580D01*
X596440Y767306D01*
X597961Y767801D01*
X599540Y768051D01*
X606461Y768051D01*
X606461Y759389D01*
X590290Y759389D01*
G37*
%LPD*%
%LPC*%
G36*
X590290Y810189D02*
X590290Y810189D01*
X590429Y811069D01*
X590924Y812590D01*
X591650Y814015D01*
X592590Y815309D01*
X593721Y816440D01*
X595015Y817380D01*
X596440Y818106D01*
X597961Y818601D01*
X599540Y818851D01*
X606461Y818851D01*
X606461Y810189D01*
X590290Y810189D01*
G37*
%LPD*%
%LPC*%
G36*
X590290Y784789D02*
X590290Y784789D01*
X590429Y785669D01*
X590924Y787190D01*
X591650Y788615D01*
X592590Y789909D01*
X593721Y791040D01*
X595015Y791980D01*
X596440Y792706D01*
X597961Y793201D01*
X599540Y793451D01*
X606461Y793451D01*
X606461Y784789D01*
X590290Y784789D01*
G37*
%LPD*%
%LPC*%
G36*
X228499Y771101D02*
X228499Y771101D01*
X237161Y771101D01*
X237161Y764180D01*
X236911Y762601D01*
X236416Y761080D01*
X235690Y759655D01*
X234750Y758361D01*
X233619Y757230D01*
X232325Y756290D01*
X230900Y755564D01*
X229379Y755069D01*
X228499Y754930D01*
X228499Y771101D01*
G37*
%LPD*%
%LPC*%
G36*
X249888Y248276D02*
X249888Y248276D01*
X248336Y248663D01*
X246864Y249288D01*
X245507Y250135D01*
X244835Y250720D01*
X257222Y261114D01*
X262790Y254479D01*
X257488Y250031D01*
X256117Y249207D01*
X254635Y248608D01*
X253076Y248248D01*
X251481Y248136D01*
X249888Y248276D01*
G37*
%LPD*%
%LPC*%
G36*
X609459Y773129D02*
X609459Y773129D01*
X609459Y781791D01*
X625630Y781791D01*
X625491Y780911D01*
X624996Y779390D01*
X624270Y777965D01*
X623330Y776671D01*
X622199Y775540D01*
X620905Y774600D01*
X619480Y773874D01*
X617959Y773379D01*
X616380Y773129D01*
X609459Y773129D01*
G37*
%LPD*%
%LPC*%
G36*
X609459Y747729D02*
X609459Y747729D01*
X609459Y756391D01*
X625630Y756391D01*
X625491Y755511D01*
X624996Y753990D01*
X624270Y752565D01*
X623330Y751271D01*
X622199Y750140D01*
X620905Y749200D01*
X619480Y748474D01*
X617959Y747979D01*
X616380Y747729D01*
X609459Y747729D01*
G37*
%LPD*%
%LPC*%
G36*
X609459Y798529D02*
X609459Y798529D01*
X609459Y807191D01*
X625630Y807191D01*
X625491Y806311D01*
X624996Y804790D01*
X624270Y803365D01*
X623330Y802071D01*
X622199Y800940D01*
X620905Y800000D01*
X619480Y799274D01*
X617959Y798779D01*
X616380Y798529D01*
X609459Y798529D01*
G37*
%LPD*%
%LPC*%
G36*
X609459Y823929D02*
X609459Y823929D01*
X609459Y832591D01*
X625630Y832591D01*
X625491Y831711D01*
X624996Y830190D01*
X624270Y828765D01*
X623330Y827471D01*
X622199Y826340D01*
X620905Y825400D01*
X619480Y824674D01*
X617959Y824179D01*
X616380Y823929D01*
X609459Y823929D01*
G37*
%LPD*%
%LPC*%
G36*
X216839Y774099D02*
X216839Y774099D01*
X216839Y781020D01*
X217089Y782599D01*
X217584Y784120D01*
X218310Y785545D01*
X219250Y786839D01*
X220381Y787970D01*
X221675Y788910D01*
X223100Y789636D01*
X224621Y790131D01*
X225501Y790270D01*
X225501Y774099D01*
X216839Y774099D01*
G37*
%LPD*%
%LPC*%
G36*
X242448Y253780D02*
X242448Y253780D01*
X241849Y255263D01*
X241490Y256821D01*
X241378Y258417D01*
X241517Y260010D01*
X241904Y261562D01*
X242529Y263034D01*
X243377Y264391D01*
X244426Y265598D01*
X249727Y270046D01*
X255295Y263411D01*
X242907Y253017D01*
X242448Y253780D01*
G37*
%LPD*%
%LPC*%
G36*
X599540Y747729D02*
X599540Y747729D01*
X597961Y747979D01*
X596440Y748474D01*
X595015Y749200D01*
X593721Y750140D01*
X592590Y751271D01*
X591650Y752565D01*
X590924Y753990D01*
X590429Y755511D01*
X590290Y756391D01*
X606461Y756391D01*
X606461Y747729D01*
X599540Y747729D01*
G37*
%LPD*%
%LPC*%
G36*
X599540Y773129D02*
X599540Y773129D01*
X597961Y773379D01*
X596440Y773874D01*
X595015Y774600D01*
X593721Y775540D01*
X592590Y776671D01*
X591650Y777965D01*
X590924Y779390D01*
X590429Y780911D01*
X590290Y781791D01*
X606461Y781791D01*
X606461Y773129D01*
X599540Y773129D01*
G37*
%LPD*%
%LPC*%
G36*
X224621Y755069D02*
X224621Y755069D01*
X223100Y755564D01*
X221675Y756290D01*
X220381Y757230D01*
X219250Y758361D01*
X218310Y759655D01*
X217584Y761080D01*
X217089Y762601D01*
X216839Y764180D01*
X216839Y771101D01*
X225501Y771101D01*
X225501Y754930D01*
X224621Y755069D01*
G37*
%LPD*%
%LPC*%
G36*
X599540Y798529D02*
X599540Y798529D01*
X597961Y798779D01*
X596440Y799274D01*
X595015Y800000D01*
X593721Y800940D01*
X592590Y802071D01*
X591650Y803365D01*
X590924Y804790D01*
X590429Y806311D01*
X590290Y807191D01*
X606461Y807191D01*
X606461Y798529D01*
X599540Y798529D01*
G37*
%LPD*%
%LPC*%
G36*
X599540Y823929D02*
X599540Y823929D01*
X597961Y824179D01*
X596440Y824674D01*
X595015Y825400D01*
X593721Y826340D01*
X592590Y827471D01*
X591650Y828765D01*
X590924Y830190D01*
X590429Y831711D01*
X590290Y832591D01*
X606461Y832591D01*
X606461Y823929D01*
X599540Y823929D01*
G37*
%LPD*%
%LPC*%
G36*
X561299Y443999D02*
X561299Y443999D01*
X561299Y451391D01*
X570134Y451391D01*
X570781Y451218D01*
X571360Y450883D01*
X571833Y450410D01*
X572168Y449831D01*
X572341Y449184D01*
X572341Y443999D01*
X561299Y443999D01*
G37*
%LPD*%
%LPC*%
G36*
X547259Y443999D02*
X547259Y443999D01*
X547259Y449184D01*
X547432Y449831D01*
X547767Y450410D01*
X548240Y450883D01*
X548819Y451218D01*
X549466Y451391D01*
X558301Y451391D01*
X558301Y443999D01*
X547259Y443999D01*
G37*
%LPD*%
%LPC*%
G36*
X561299Y433609D02*
X561299Y433609D01*
X561299Y441001D01*
X572341Y441001D01*
X572341Y435816D01*
X572168Y435169D01*
X571833Y434590D01*
X571360Y434117D01*
X570781Y433782D01*
X570134Y433609D01*
X561299Y433609D01*
G37*
%LPD*%
%LPC*%
G36*
X549466Y433609D02*
X549466Y433609D01*
X548819Y433782D01*
X548240Y434117D01*
X547767Y434590D01*
X547432Y435169D01*
X547259Y435816D01*
X547259Y441001D01*
X558301Y441001D01*
X558301Y433609D01*
X549466Y433609D01*
G37*
%LPD*%
%LPC*%
G36*
X97499Y859299D02*
X97499Y859299D01*
X97499Y869650D01*
X98796Y869445D01*
X100583Y868864D01*
X102257Y868011D01*
X103777Y866906D01*
X105106Y865577D01*
X106211Y864057D01*
X107064Y862383D01*
X107645Y860596D01*
X107850Y859299D01*
X97499Y859299D01*
G37*
%LPD*%
%LPC*%
G36*
X97899Y781999D02*
X97899Y781999D01*
X97899Y792350D01*
X99196Y792145D01*
X100983Y791564D01*
X102657Y790711D01*
X104177Y789606D01*
X105506Y788277D01*
X106611Y786757D01*
X107464Y785083D01*
X108045Y783296D01*
X108250Y781999D01*
X97899Y781999D01*
G37*
%LPD*%
%LPC*%
G36*
X97899Y779001D02*
X97899Y779001D01*
X108250Y779001D01*
X108045Y777704D01*
X107464Y775917D01*
X106611Y774243D01*
X105506Y772723D01*
X104177Y771394D01*
X102657Y770289D01*
X100983Y769436D01*
X99196Y768855D01*
X97899Y768650D01*
X97899Y779001D01*
G37*
%LPD*%
%LPC*%
G36*
X84550Y781999D02*
X84550Y781999D01*
X84755Y783296D01*
X85336Y785083D01*
X86189Y786757D01*
X87294Y788277D01*
X88623Y789606D01*
X90143Y790711D01*
X91817Y791564D01*
X93604Y792145D01*
X94901Y792350D01*
X94901Y781999D01*
X84550Y781999D01*
G37*
%LPD*%
%LPC*%
G36*
X97499Y856301D02*
X97499Y856301D01*
X107850Y856301D01*
X107645Y855004D01*
X107064Y853217D01*
X106211Y851543D01*
X105106Y850023D01*
X103777Y848694D01*
X102257Y847589D01*
X100583Y846736D01*
X98796Y846155D01*
X97499Y845950D01*
X97499Y856301D01*
G37*
%LPD*%
%LPC*%
G36*
X84150Y859299D02*
X84150Y859299D01*
X84355Y860596D01*
X84936Y862383D01*
X85789Y864057D01*
X86894Y865577D01*
X88223Y866906D01*
X89743Y868011D01*
X91417Y868864D01*
X93204Y869445D01*
X94501Y869650D01*
X94501Y859299D01*
X84150Y859299D01*
G37*
%LPD*%
%LPC*%
G36*
X93604Y768855D02*
X93604Y768855D01*
X91817Y769436D01*
X90143Y770289D01*
X88623Y771394D01*
X87294Y772723D01*
X86189Y774243D01*
X85336Y775917D01*
X84755Y777704D01*
X84550Y779001D01*
X94901Y779001D01*
X94901Y768650D01*
X93604Y768855D01*
G37*
%LPD*%
%LPC*%
G36*
X93204Y846155D02*
X93204Y846155D01*
X91417Y846736D01*
X89743Y847589D01*
X88223Y848694D01*
X86894Y850023D01*
X85789Y851543D01*
X84936Y853217D01*
X84355Y855004D01*
X84150Y856301D01*
X94501Y856301D01*
X94501Y845950D01*
X93204Y846155D01*
G37*
%LPD*%
%LPC*%
G36*
X458259Y418599D02*
X458259Y418599D01*
X458259Y422514D01*
X458432Y423161D01*
X458767Y423740D01*
X459240Y424213D01*
X459819Y424548D01*
X460466Y424721D01*
X469301Y424721D01*
X469301Y418599D01*
X458259Y418599D01*
G37*
%LPD*%
%LPC*%
G36*
X472299Y418599D02*
X472299Y418599D01*
X472299Y424721D01*
X481134Y424721D01*
X481781Y424548D01*
X482360Y424213D01*
X482833Y423740D01*
X483168Y423161D01*
X483341Y422514D01*
X483341Y418599D01*
X472299Y418599D01*
G37*
%LPD*%
%LPC*%
G36*
X472299Y409479D02*
X472299Y409479D01*
X472299Y415601D01*
X483341Y415601D01*
X483341Y411686D01*
X483168Y411039D01*
X482833Y410460D01*
X482360Y409987D01*
X481781Y409652D01*
X481134Y409479D01*
X472299Y409479D01*
G37*
%LPD*%
%LPC*%
G36*
X460466Y409479D02*
X460466Y409479D01*
X459819Y409652D01*
X459240Y409987D01*
X458767Y410460D01*
X458432Y411039D01*
X458259Y411686D01*
X458259Y415601D01*
X469301Y415601D01*
X469301Y409479D01*
X460466Y409479D01*
G37*
%LPD*%
%LPC*%
G36*
X476399Y582399D02*
X476399Y582399D01*
X476399Y591442D01*
X479266Y591442D01*
X485442Y585266D01*
X485442Y582399D01*
X476399Y582399D01*
G37*
%LPD*%
%LPC*%
G36*
X417399Y581499D02*
X417399Y581499D01*
X417399Y590542D01*
X420266Y590542D01*
X426442Y584366D01*
X426442Y581499D01*
X417399Y581499D01*
G37*
%LPD*%
%LPC*%
G36*
X535399Y582299D02*
X535399Y582299D01*
X535399Y591342D01*
X538266Y591342D01*
X544442Y585166D01*
X544442Y582299D01*
X535399Y582299D01*
G37*
%LPD*%
%LPC*%
G36*
X464358Y582399D02*
X464358Y582399D01*
X464358Y585266D01*
X470534Y591442D01*
X473401Y591442D01*
X473401Y582399D01*
X464358Y582399D01*
G37*
%LPD*%
%LPC*%
G36*
X523358Y582299D02*
X523358Y582299D01*
X523358Y585166D01*
X529534Y591342D01*
X532401Y591342D01*
X532401Y582299D01*
X523358Y582299D01*
G37*
%LPD*%
%LPC*%
G36*
X405358Y581499D02*
X405358Y581499D01*
X405358Y584366D01*
X411534Y590542D01*
X414401Y590542D01*
X414401Y581499D01*
X405358Y581499D01*
G37*
%LPD*%
%LPC*%
G36*
X476399Y570358D02*
X476399Y570358D01*
X476399Y579401D01*
X485442Y579401D01*
X485442Y576534D01*
X479266Y570358D01*
X476399Y570358D01*
G37*
%LPD*%
%LPC*%
G36*
X417399Y569458D02*
X417399Y569458D01*
X417399Y578501D01*
X426442Y578501D01*
X426442Y575634D01*
X420266Y569458D01*
X417399Y569458D01*
G37*
%LPD*%
%LPC*%
G36*
X535399Y570258D02*
X535399Y570258D01*
X535399Y579301D01*
X544442Y579301D01*
X544442Y576434D01*
X538266Y570258D01*
X535399Y570258D01*
G37*
%LPD*%
%LPC*%
G36*
X470534Y570358D02*
X470534Y570358D01*
X464358Y576534D01*
X464358Y579401D01*
X473401Y579401D01*
X473401Y570358D01*
X470534Y570358D01*
G37*
%LPD*%
%LPC*%
G36*
X411534Y569458D02*
X411534Y569458D01*
X405358Y575634D01*
X405358Y578501D01*
X414401Y578501D01*
X414401Y569458D01*
X411534Y569458D01*
G37*
%LPD*%
%LPC*%
G36*
X529534Y570258D02*
X529534Y570258D01*
X523358Y576434D01*
X523358Y579301D01*
X532401Y579301D01*
X532401Y570258D01*
X529534Y570258D01*
G37*
%LPD*%
%LPC*%
G36*
X461399Y280399D02*
X461399Y280399D01*
X461399Y288045D01*
X463688Y288045D01*
X469045Y282688D01*
X469045Y280399D01*
X461399Y280399D01*
G37*
%LPD*%
%LPC*%
G36*
X450755Y280399D02*
X450755Y280399D01*
X450755Y282688D01*
X456112Y288045D01*
X458401Y288045D01*
X458401Y280399D01*
X450755Y280399D01*
G37*
%LPD*%
%LPC*%
G36*
X461399Y269755D02*
X461399Y269755D01*
X461399Y277401D01*
X469045Y277401D01*
X469045Y275112D01*
X463688Y269755D01*
X461399Y269755D01*
G37*
%LPD*%
%LPC*%
G36*
X456112Y269755D02*
X456112Y269755D01*
X450755Y275112D01*
X450755Y277401D01*
X458401Y277401D01*
X458401Y269755D01*
X456112Y269755D01*
G37*
%LPD*%
%LPC*%
G36*
X396199Y270099D02*
X396199Y270099D01*
X396199Y277626D01*
X397367Y277393D01*
X399032Y276704D01*
X400529Y275703D01*
X401803Y274429D01*
X402804Y272932D01*
X403493Y271267D01*
X403726Y270099D01*
X396199Y270099D01*
G37*
%LPD*%
%LPC*%
G36*
X396199Y267101D02*
X396199Y267101D01*
X403726Y267101D01*
X403493Y265933D01*
X402804Y264268D01*
X402394Y263654D01*
X401893Y262905D01*
X401803Y262771D01*
X400529Y261497D01*
X399032Y260496D01*
X397367Y259807D01*
X396199Y259574D01*
X396199Y267101D01*
G37*
%LPD*%
%LPC*%
G36*
X385674Y270099D02*
X385674Y270099D01*
X385907Y271267D01*
X386596Y272932D01*
X386849Y273311D01*
X387350Y274060D01*
X387597Y274429D01*
X388871Y275703D01*
X390368Y276704D01*
X392033Y277393D01*
X393201Y277626D01*
X393201Y270099D01*
X385674Y270099D01*
G37*
%LPD*%
%LPC*%
G36*
X392033Y259807D02*
X392033Y259807D01*
X390368Y260496D01*
X388871Y261497D01*
X387597Y262771D01*
X386596Y264268D01*
X385907Y265933D01*
X385674Y267101D01*
X393201Y267101D01*
X393201Y259574D01*
X392033Y259807D01*
G37*
%LPD*%
%LPC*%
G36*
X701299Y440999D02*
X701299Y440999D01*
X701299Y441001D01*
X701301Y441001D01*
X701301Y440999D01*
X701299Y440999D01*
G37*
%LPD*%
%LPC*%
G36*
X96399Y780499D02*
X96399Y780499D01*
X96399Y780501D01*
X96401Y780501D01*
X96401Y780499D01*
X96399Y780499D01*
G37*
%LPD*%
%LPC*%
G36*
X459899Y278899D02*
X459899Y278899D01*
X459899Y278901D01*
X459901Y278901D01*
X459901Y278899D01*
X459899Y278899D01*
G37*
%LPD*%
%LPC*%
G36*
X382599Y927349D02*
X382599Y927349D01*
X382599Y927351D01*
X382601Y927351D01*
X382601Y927349D01*
X382599Y927349D01*
G37*
%LPD*%
%LPC*%
G36*
X607959Y808689D02*
X607959Y808689D01*
X607959Y808691D01*
X607961Y808691D01*
X607961Y808689D01*
X607959Y808689D01*
G37*
%LPD*%
%LPC*%
G36*
X607959Y783289D02*
X607959Y783289D01*
X607959Y783291D01*
X607961Y783291D01*
X607961Y783289D01*
X607959Y783289D01*
G37*
%LPD*%
%LPC*%
G36*
X709599Y604699D02*
X709599Y604699D01*
X709599Y604701D01*
X709601Y604701D01*
X709601Y604699D01*
X709599Y604699D01*
G37*
%LPD*%
%LPC*%
G36*
X533899Y580799D02*
X533899Y580799D01*
X533899Y580801D01*
X533901Y580801D01*
X533901Y580799D01*
X533899Y580799D01*
G37*
%LPD*%
%LPC*%
G36*
X607959Y834089D02*
X607959Y834089D01*
X607959Y834091D01*
X607961Y834091D01*
X607961Y834089D01*
X607959Y834089D01*
G37*
%LPD*%
%LPC*%
G36*
X415899Y579999D02*
X415899Y579999D01*
X415899Y580001D01*
X415901Y580001D01*
X415901Y579999D01*
X415899Y579999D01*
G37*
%LPD*%
%LPC*%
G36*
X474899Y580899D02*
X474899Y580899D01*
X474899Y580901D01*
X474901Y580901D01*
X474901Y580899D01*
X474899Y580899D01*
G37*
%LPD*%
%LPC*%
G36*
X607959Y757889D02*
X607959Y757889D01*
X607959Y757891D01*
X607961Y757891D01*
X607961Y757889D01*
X607959Y757889D01*
G37*
%LPD*%
%LPC*%
G36*
X673099Y119299D02*
X673099Y119299D01*
X673099Y119301D01*
X673101Y119301D01*
X673101Y119299D01*
X673099Y119299D01*
G37*
%LPD*%
%LPC*%
G36*
X95999Y857799D02*
X95999Y857799D01*
X95999Y857801D01*
X96001Y857801D01*
X96001Y857799D01*
X95999Y857799D01*
G37*
%LPD*%
%LPC*%
G36*
X226999Y772599D02*
X226999Y772599D01*
X226999Y772601D01*
X227001Y772601D01*
X227001Y772599D01*
X226999Y772599D01*
G37*
%LPD*%
%LPC*%
G36*
X394699Y268599D02*
X394699Y268599D01*
X394699Y268601D01*
X394701Y268601D01*
X394701Y268599D01*
X394699Y268599D01*
G37*
%LPD*%
%LPC*%
G36*
X257406Y263226D02*
X257406Y263226D01*
X257407Y263227D01*
X257408Y263226D01*
X257407Y263225D01*
X257406Y263226D01*
G37*
%LPD*%
%LPC*%
G36*
X470799Y417099D02*
X470799Y417099D01*
X470799Y417101D01*
X470801Y417101D01*
X470801Y417099D01*
X470799Y417099D01*
G37*
%LPD*%
%LPC*%
G36*
X559799Y442499D02*
X559799Y442499D01*
X559799Y442501D01*
X559801Y442501D01*
X559801Y442499D01*
X559799Y442499D01*
G37*
%LPD*%
D10*
X533900Y580800D03*
D11*
X533900Y555400D03*
D10*
X474900Y580900D03*
D11*
X474900Y555500D03*
D10*
X415900Y580000D03*
D11*
X415900Y554600D03*
D12*
X673100Y220900D03*
D13*
X673100Y119300D03*
D14*
X71000Y780500D03*
X96400Y780500D03*
D15*
X394700Y192400D03*
X394700Y217800D03*
X318500Y217800D03*
X318500Y192400D03*
X394700Y243200D03*
X394700Y268600D03*
X318500Y243200D03*
X318500Y268600D03*
D16*
X559800Y493300D03*
D17*
X559800Y467900D03*
X559800Y442500D03*
D16*
X559800Y417100D03*
X470800Y417100D03*
D17*
X470800Y442500D03*
X470800Y467900D03*
D16*
X470800Y493300D03*
D18*
X709600Y713700D03*
D19*
X709600Y659200D03*
X709600Y604700D03*
D20*
X649400Y713700D03*
X649400Y685700D03*
X516400Y365200D03*
X516400Y337200D03*
D21*
X430100Y178100D03*
X430100Y279700D03*
D22*
X459900Y278900D03*
X459900Y177300D03*
D23*
X83624Y604568D03*
X83624Y644700D03*
X83624Y684832D03*
X131376Y684832D03*
X131376Y644700D03*
X131376Y604568D03*
D24*
X687400Y919797D02*
X687400Y937704D01*
X738200Y937704D02*
X738200Y919797D01*
D25*
X201600Y780220D02*
X201600Y764980D01*
X227000Y764980D02*
X227000Y780220D01*
X252400Y780220D02*
X252400Y764980D01*
D14*
X70600Y857800D03*
X96000Y857800D03*
D25*
X137100Y948380D02*
X137100Y963620D01*
X111700Y963620D02*
X111700Y948380D01*
X86300Y948380D02*
X86300Y963620D01*
X60900Y963620D02*
X60900Y948380D01*
D24*
X539400Y937304D02*
X539400Y919397D01*
X488600Y919397D02*
X488600Y937304D01*
X433400Y936304D02*
X433400Y918397D01*
X382600Y918397D02*
X382600Y936304D01*
X327400Y936304D02*
X327400Y918397D01*
X276600Y918397D02*
X276600Y936304D01*
D25*
X516180Y835100D02*
X531420Y835100D01*
X531420Y809700D02*
X516180Y809700D01*
X516180Y784300D02*
X531420Y784300D01*
X531420Y758900D02*
X516180Y758900D01*
X516180Y733500D02*
X531420Y733500D01*
X531420Y708100D02*
X516180Y708100D01*
X403620Y835500D02*
X388380Y835500D01*
X388380Y810100D02*
X403620Y810100D01*
X403620Y784700D02*
X388380Y784700D01*
X388380Y759300D02*
X403620Y759300D01*
X403620Y733900D02*
X388380Y733900D01*
X388380Y708500D02*
X403620Y708500D01*
D26*
X701300Y511000D03*
X701300Y441000D03*
D25*
X615580Y757890D02*
X600340Y757890D01*
X600340Y783290D02*
X615580Y783290D01*
X615580Y808690D02*
X600340Y808690D01*
X600340Y834090D02*
X615580Y834090D01*
X214264Y326497D02*
X202589Y316701D01*
X186263Y336158D02*
X197937Y345954D01*
X181610Y365412D02*
X169936Y355616D01*
X218916Y297243D02*
X230591Y307039D01*
X246917Y287582D02*
X235243Y277786D01*
X251570Y258328D02*
X263244Y268124D01*
D27*
X470800Y493300D02*
X479000Y493300D01*
X485900Y500200D01*
X485900Y544500D02*
X474900Y555500D01*
X485900Y544500D02*
X485900Y500200D01*
D28*
X295100Y361700D03*
D29*
X252400Y772600D02*
X252400Y797600D01*
D27*
X86300Y956000D02*
X60900Y956000D01*
X86300Y956000D02*
X111700Y956000D01*
X137100Y956000D01*
X252400Y849500D02*
X252400Y772600D01*
X252400Y849500D02*
X221900Y880000D01*
X137100Y918900D02*
X137100Y956000D01*
X176000Y880000D02*
X221900Y880000D01*
X176000Y880000D02*
X137100Y918900D01*
X252400Y772600D02*
X252400Y492170D01*
X294400Y241900D02*
X318500Y217800D01*
X294400Y331300D02*
X252370Y373330D01*
X294400Y331300D02*
X294400Y241900D01*
X252370Y373330D02*
X252370Y492140D01*
X252400Y492170D01*
D30*
X143476Y644700D02*
X162000Y663224D01*
X143476Y644700D02*
X131376Y644700D01*
X162000Y663224D02*
X162000Y761800D01*
D28*
X162000Y761800D03*
D31*
X649400Y713700D02*
X709600Y713700D01*
X490800Y442500D02*
X470800Y442500D01*
X490800Y442500D02*
X530000Y481700D01*
X530000Y520376D01*
X649400Y639776D02*
X649400Y685700D01*
X649400Y639776D02*
X530000Y520376D01*
D32*
X537900Y467900D02*
X559800Y467900D01*
X516400Y446400D02*
X516400Y365200D01*
X516400Y446400D02*
X537900Y467900D01*
D28*
X470000Y300000D03*
D32*
X480000Y300000D01*
X516400Y336400D01*
X516400Y337200D01*
D33*
X396000Y835500D02*
X374500Y835500D01*
X327400Y882600D02*
X327400Y927350D01*
X327400Y882600D02*
X374500Y835500D01*
X276600Y883400D02*
X276600Y927350D01*
X349900Y810100D02*
X396000Y810100D01*
X349900Y810100D02*
X276600Y883400D01*
M02*
