G04 EAGLE Gerber RS-274X export*
G75*
%MOMM*%
%FSLAX34Y34*%
%LPD*%
%IN*%
%IPPOS*%
%AMOC8*
5,1,8,0,0,1.08239X$1,22.5*%
G01*
%ADD10C,0.000000*%
%ADD11C,0.000100*%


D10*
X19840Y975135D02*
X16707Y960665D01*
X13842Y946140D01*
X11246Y931564D01*
X19841Y975125D02*
X20012Y975840D01*
X20201Y976551D01*
X20407Y977256D01*
X20631Y977957D01*
X20871Y978651D01*
X21129Y979340D01*
X21403Y980022D01*
X21694Y980697D01*
X22001Y981365D01*
X22325Y982025D01*
X22665Y982677D01*
X23020Y983320D01*
X23391Y983954D01*
X23778Y984580D01*
X24180Y985195D01*
X24597Y985801D01*
X25029Y986396D01*
X25475Y986980D01*
X25935Y987553D01*
X26409Y988115D01*
X26897Y988665D01*
X27398Y989203D01*
X27912Y989728D01*
X28439Y990241D01*
X28978Y990740D01*
X29529Y991227D01*
X30093Y991699D01*
X30667Y992158D01*
X31253Y992602D01*
X31849Y993032D01*
X32456Y993447D01*
X33072Y993847D01*
X33699Y994232D01*
X34334Y994602D01*
X34978Y994956D01*
X35631Y995293D01*
X36292Y995615D01*
X36961Y995921D01*
X37637Y996210D01*
X38320Y996482D01*
X39009Y996738D01*
X39704Y996976D01*
X40405Y997198D01*
X41111Y997402D01*
X41822Y997589D01*
X42538Y997758D01*
X43257Y997910D01*
X43980Y998044D01*
X44706Y998160D01*
X45434Y998259D01*
X46165Y998339D01*
X46897Y998402D01*
X47631Y998447D01*
X48365Y998473D01*
X49101Y998482D01*
X11246Y931564D02*
X10280Y931690D01*
X9311Y931793D01*
X8339Y931872D01*
X7366Y931927D01*
X6392Y931959D01*
X5418Y931967D01*
X4444Y931951D01*
X3470Y931911D01*
X2497Y931848D01*
X1527Y931761D01*
X559Y931651D01*
X-407Y931516D01*
X-1368Y931359D01*
X-2326Y931178D01*
X-3279Y930974D01*
X-4226Y930746D01*
X-5168Y930496D01*
X-6104Y930223D01*
X-7032Y929927D01*
X-7953Y929608D01*
X-8866Y929267D01*
X-9770Y928904D01*
X-10666Y928519D01*
X-11551Y928113D01*
X-12427Y927685D01*
X-13292Y927235D01*
X-14145Y926765D01*
X-14987Y926274D01*
X-15817Y925763D01*
X-16634Y925232D01*
X-17437Y924681D01*
X-18228Y924110D01*
X-19004Y923521D01*
X-19765Y922913D01*
X-20511Y922286D01*
X-21242Y921641D01*
X-21957Y920979D01*
X-22656Y920300D01*
X-23337Y919604D01*
X-24002Y918891D01*
X-24649Y918162D01*
X-25278Y917418D01*
X-25889Y916659D01*
X-26481Y915885D01*
X-27055Y915097D01*
X-27608Y914295D01*
X-28142Y913480D01*
X-28657Y912652D01*
X-29150Y911812D01*
X-29623Y910960D01*
X-30076Y910096D01*
X-30507Y909222D01*
X-30916Y908338D01*
X-31304Y907444D01*
X-31670Y906541D01*
X-32014Y905629D01*
X-32336Y904710D01*
X-32635Y903782D01*
X-32912Y902848D01*
X-33165Y901907D01*
X-33396Y900960D01*
X-33604Y900008D01*
X-33788Y899051D01*
X-33949Y898090D01*
X-34086Y897125D01*
X-34200Y896157D01*
X-34290Y895187D01*
X-34357Y894214D01*
X-34400Y893241D01*
X-34419Y892267D01*
X-34414Y891292D01*
X-34386Y890318D01*
X-34334Y889345D01*
X-34258Y888373D01*
X-34159Y887404D01*
X-34036Y886437D01*
X-33889Y885474D01*
X-33720Y884514D01*
X-33526Y883559D01*
X-33310Y882609D01*
X-33070Y881664D01*
X-32808Y880726D01*
X-32523Y879794D01*
X-32215Y878869D01*
X-31885Y877952D01*
X-31532Y877044D01*
X-31157Y876144D01*
X-30761Y875254D01*
X-30343Y874374D01*
X-29904Y873504D01*
X-29444Y872645D01*
X-28962Y871797D01*
X-28461Y870962D01*
X-27939Y870139D01*
X-27397Y869329D01*
X-26836Y868532D01*
X-26256Y867749D01*
X-25656Y866981D01*
X-25038Y866227D01*
X-24402Y865489D01*
X-23748Y864767D01*
X-23077Y864060D01*
X-22388Y863370D01*
X-21684Y862698D01*
X-20962Y862042D01*
X-20226Y861404D01*
X-19473Y860785D01*
X-18706Y860184D01*
X-17925Y859602D01*
X-17129Y859039D01*
X-16320Y858495D01*
X-15499Y857972D01*
X-14664Y857468D01*
X-13818Y856985D01*
X-12960Y856523D01*
X-12091Y856082D01*
X-11211Y855662D01*
X-10322Y855264D01*
X-9423Y854887D01*
X-8515Y854533D01*
X-7599Y854201D01*
X-6675Y853891D01*
X-5744Y853603D01*
X-4806Y853339D01*
X-3862Y853097D01*
X-2912Y852879D01*
X-1958Y852684D01*
X-998Y852512D01*
X-35Y852363D01*
X931Y852238D01*
X1900Y852137D01*
X1901Y852137D02*
X871Y833524D01*
X275Y814891D01*
X112Y796250D01*
X385Y777610D01*
X1091Y758982D01*
X2231Y740375D01*
X3805Y721799D01*
X5810Y703266D01*
X8247Y684784D01*
X11113Y666363D01*
X14408Y648015D01*
X18130Y629748D01*
X22275Y611573D01*
X26844Y593500D01*
X31832Y575538D01*
X37237Y557696D01*
X43056Y539986D01*
X42147Y539638D01*
X41247Y539268D01*
X40356Y538876D01*
X39475Y538463D01*
X38604Y538028D01*
X37744Y537572D01*
X36895Y537095D01*
X36059Y536598D01*
X35234Y536081D01*
X34423Y535543D01*
X33625Y534986D01*
X32840Y534410D01*
X32070Y533815D01*
X31315Y533201D01*
X30575Y532569D01*
X29850Y531919D01*
X29142Y531252D01*
X28450Y530567D01*
X27775Y529866D01*
X27117Y529149D01*
X26476Y528416D01*
X25854Y527667D01*
X25251Y526904D01*
X24666Y526126D01*
X24100Y525334D01*
X23553Y524529D01*
X23027Y523710D01*
X22520Y522879D01*
X22034Y522036D01*
X21569Y521181D01*
X21124Y520315D01*
X20701Y519439D01*
X20299Y518552D01*
X19919Y517656D01*
X19561Y516751D01*
X19225Y515838D01*
X18912Y514916D01*
X18620Y513988D01*
X18352Y513052D01*
X18107Y512110D01*
X17884Y511163D01*
X17685Y510210D01*
X17509Y509253D01*
X17356Y508292D01*
X17227Y507327D01*
X17121Y506359D01*
X17039Y505390D01*
X16981Y504418D01*
X16946Y503445D01*
X16935Y502472D01*
X16948Y501499D01*
X16984Y500526D01*
X17044Y499555D01*
X17128Y498585D01*
X17235Y497618D01*
X17366Y496653D01*
X17520Y495692D01*
X17698Y494735D01*
X17899Y493783D01*
X18123Y492836D01*
X18370Y491895D01*
X18640Y490959D01*
X18933Y490031D01*
X19248Y489110D01*
X19585Y488197D01*
X19945Y487293D01*
X20327Y486398D01*
X20730Y485512D01*
X21155Y484636D01*
X21600Y483771D01*
X22067Y482917D01*
X22555Y482075D01*
X23063Y481244D01*
X23591Y480427D01*
X24139Y479622D01*
X24706Y478831D01*
X25292Y478054D01*
X25897Y477292D01*
X26520Y476545D01*
X27162Y475813D01*
X27821Y475096D01*
X28497Y474396D01*
X29191Y473713D01*
X29900Y473047D01*
X30626Y472399D01*
X31367Y471768D01*
X32124Y471155D01*
X32895Y470561D01*
X33680Y469986D01*
X34479Y469431D01*
X35291Y468895D01*
X36117Y468379D01*
X36954Y467883D01*
X37804Y467408D01*
X38664Y466953D01*
X39536Y466520D01*
X40418Y466108D01*
X41309Y465717D01*
X42210Y465349D01*
X43119Y465002D01*
X44037Y464678D01*
X44963Y464377D01*
X45895Y464097D01*
X46834Y463841D01*
X47779Y463608D01*
X48729Y463397D01*
X49684Y463210D01*
X50644Y463047D01*
X51607Y462906D01*
X52573Y462789D01*
X53542Y462696D01*
X54513Y462627D01*
X55485Y462581D01*
X56458Y462558D01*
X57431Y462560D01*
X58404Y462585D01*
X59376Y462634D01*
X60347Y462706D01*
X61315Y462802D01*
X62281Y462922D01*
X63244Y463065D01*
X64203Y463232D01*
X65157Y463422D01*
X66107Y463635D01*
X67051Y463871D01*
X67989Y464130D01*
X68921Y464412D01*
X69845Y464717D01*
X70762Y465044D01*
X71671Y465393D01*
X72570Y465764D01*
X72571Y465764D02*
X80682Y448570D01*
X89200Y431574D01*
X98119Y414785D01*
X107435Y398213D01*
X117142Y381866D01*
X127235Y365755D01*
X137707Y349889D01*
X148554Y334275D01*
X159769Y318924D01*
X171345Y303844D01*
X183276Y289043D01*
X195556Y274529D01*
X208177Y260312D01*
X221132Y246398D01*
X234415Y232797D01*
X248016Y219514D01*
X261930Y206559D01*
X276147Y193938D01*
X290661Y181658D01*
X305462Y169727D01*
X320542Y158151D01*
X335893Y146936D01*
X351507Y136089D01*
X367373Y125617D01*
X383484Y115524D01*
X399831Y105817D01*
X416403Y96501D01*
X433192Y87582D01*
X450188Y79064D01*
X467382Y70953D01*
X467382Y70952D02*
X467010Y70052D01*
X466660Y69142D01*
X466332Y68224D01*
X466027Y67299D01*
X465744Y66366D01*
X465484Y65427D01*
X465247Y64482D01*
X465034Y63531D01*
X464843Y62575D01*
X464676Y61615D01*
X464532Y60651D01*
X464412Y59684D01*
X464315Y58715D01*
X464242Y57743D01*
X464193Y56770D01*
X464167Y55796D01*
X464165Y54821D01*
X464187Y53847D01*
X464233Y52873D01*
X464302Y51901D01*
X464395Y50931D01*
X464511Y49964D01*
X464651Y48999D01*
X464815Y48039D01*
X465002Y47082D01*
X465212Y46131D01*
X465445Y45184D01*
X465701Y44244D01*
X465981Y43310D01*
X466282Y42384D01*
X466606Y41465D01*
X466953Y40554D01*
X467322Y39652D01*
X467712Y38759D01*
X468124Y37876D01*
X468558Y37003D01*
X469012Y36141D01*
X469488Y35291D01*
X469984Y34452D01*
X470500Y33625D01*
X471036Y32812D01*
X471592Y32011D01*
X472168Y31225D01*
X472762Y30452D01*
X473375Y29695D01*
X474006Y28952D01*
X474655Y28226D01*
X475322Y27515D01*
X476006Y26820D01*
X476706Y26143D01*
X477423Y25483D01*
X478156Y24840D01*
X478904Y24215D01*
X479667Y23609D01*
X480444Y23022D01*
X481236Y22454D01*
X482041Y21905D01*
X482860Y21376D01*
X483691Y20867D01*
X484534Y20378D01*
X485389Y19911D01*
X486255Y19464D01*
X487132Y19038D01*
X488018Y18634D01*
X488915Y18251D01*
X489820Y17891D01*
X490734Y17553D01*
X491656Y17237D01*
X492585Y16943D01*
X493521Y16673D01*
X494464Y16425D01*
X495412Y16200D01*
X496365Y15998D01*
X497323Y15820D01*
X498285Y15665D01*
X499251Y15534D01*
X500220Y15426D01*
X501190Y15342D01*
X502163Y15281D01*
X503137Y15244D01*
X504111Y15231D01*
X505086Y15242D01*
X506060Y15276D01*
X507032Y15334D01*
X508004Y15416D01*
X508972Y15521D01*
X509938Y15650D01*
X510901Y15803D01*
X511859Y15978D01*
X512813Y16178D01*
X513762Y16400D01*
X514705Y16645D01*
X515642Y16913D01*
X516572Y17205D01*
X517495Y17518D01*
X518410Y17854D01*
X519316Y18212D01*
X520213Y18592D01*
X521101Y18994D01*
X521979Y19418D01*
X522846Y19862D01*
X523702Y20328D01*
X524546Y20814D01*
X525379Y21321D01*
X526199Y21848D01*
X527005Y22395D01*
X527798Y22961D01*
X528578Y23546D01*
X529342Y24150D01*
X530092Y24773D01*
X530826Y25414D01*
X531545Y26072D01*
X532247Y26748D01*
X532932Y27440D01*
X533601Y28149D01*
X534252Y28875D01*
X534885Y29615D01*
X535500Y30371D01*
X536096Y31142D01*
X536674Y31927D01*
X537232Y32726D01*
X537770Y33538D01*
X538288Y34364D01*
X538787Y35201D01*
X539264Y36050D01*
X539721Y36911D01*
X540157Y37783D01*
X540571Y38665D01*
X540964Y39557D01*
X541335Y40458D01*
X541684Y41368D01*
X558811Y35737D01*
X576061Y30493D01*
X593425Y25640D01*
X610893Y21178D01*
X628458Y17112D01*
X646110Y13443D01*
X663840Y10172D01*
X681639Y7301D01*
X699498Y4833D01*
X717409Y2767D01*
X735361Y1106D01*
X753347Y-151D01*
X754075Y-185D01*
X754805Y-201D01*
X755534Y-199D01*
X756264Y-179D01*
X756992Y-142D01*
X757720Y-87D01*
X758445Y-15D01*
X759169Y75D01*
X759891Y183D01*
X760610Y308D01*
X761325Y451D01*
X762037Y611D01*
X762744Y788D01*
X763447Y983D01*
X764146Y1194D01*
X764838Y1423D01*
X765526Y1668D01*
X766206Y1930D01*
X766881Y2208D01*
X767548Y2503D01*
X768208Y2813D01*
X768860Y3140D01*
X769505Y3482D01*
X770140Y3840D01*
X770767Y4214D01*
X771384Y4602D01*
X771992Y5006D01*
X772590Y5424D01*
X773177Y5856D01*
X773754Y6303D01*
X774320Y6763D01*
X774874Y7238D01*
X775417Y7725D01*
X775948Y8226D01*
X776466Y8739D01*
X776972Y9265D01*
X777465Y9803D01*
X777944Y10352D01*
X778410Y10913D01*
X778863Y11486D01*
X779301Y12069D01*
X779725Y12663D01*
X780134Y13267D01*
X780529Y13880D01*
X780908Y14503D01*
X781273Y15135D01*
X781621Y15776D01*
X781954Y16425D01*
X782272Y17082D01*
X782573Y17746D01*
X782858Y18418D01*
X783126Y19096D01*
X783378Y19781D01*
X783613Y20471D01*
X783832Y21167D01*
X784033Y21869D01*
X784217Y22574D01*
X784384Y23285D01*
X784534Y23999D01*
X784666Y24716D01*
X784781Y25436D01*
X784879Y26159D01*
X784958Y26885D01*
X785020Y27611D01*
X785065Y28340D01*
X785091Y29069D01*
X785100Y29798D01*
X785100Y39798D02*
X785100Y968482D01*
X785091Y969207D01*
X785065Y969931D01*
X785021Y970655D01*
X784960Y971377D01*
X784881Y972098D01*
X784785Y972817D01*
X784672Y973533D01*
X784541Y974246D01*
X784393Y974956D01*
X784228Y975661D01*
X784046Y976363D01*
X783847Y977060D01*
X783632Y977753D01*
X783399Y978439D01*
X783150Y979120D01*
X782885Y979795D01*
X782604Y980463D01*
X782306Y981124D01*
X781993Y981778D01*
X781664Y982424D01*
X781319Y983062D01*
X780959Y983691D01*
X780584Y984311D01*
X780194Y984922D01*
X779790Y985524D01*
X779371Y986116D01*
X778937Y986697D01*
X778490Y987268D01*
X778029Y987827D01*
X777555Y988376D01*
X777068Y988912D01*
X776568Y989437D01*
X776055Y989950D01*
X775530Y990450D01*
X774994Y990937D01*
X774445Y991411D01*
X773886Y991872D01*
X773315Y992319D01*
X772734Y992753D01*
X772142Y993172D01*
X771540Y993576D01*
X770929Y993966D01*
X770309Y994341D01*
X769680Y994701D01*
X769042Y995046D01*
X768396Y995375D01*
X767742Y995688D01*
X767081Y995986D01*
X766413Y996267D01*
X765738Y996532D01*
X765057Y996781D01*
X764371Y997014D01*
X763678Y997229D01*
X762981Y997428D01*
X762279Y997610D01*
X761574Y997775D01*
X760864Y997923D01*
X760151Y998054D01*
X759435Y998167D01*
X758716Y998263D01*
X757995Y998342D01*
X757273Y998403D01*
X756549Y998447D01*
X755825Y998473D01*
X755100Y998482D01*
X49100Y998482D01*
X11660Y889370D02*
X11665Y889763D01*
X11679Y890155D01*
X11703Y890547D01*
X11737Y890938D01*
X11780Y891329D01*
X11833Y891718D01*
X11896Y892105D01*
X11967Y892491D01*
X12049Y892876D01*
X12139Y893258D01*
X12240Y893637D01*
X12349Y894015D01*
X12468Y894389D01*
X12595Y894760D01*
X12732Y895128D01*
X12878Y895493D01*
X13033Y895854D01*
X13196Y896211D01*
X13368Y896564D01*
X13549Y896912D01*
X13739Y897256D01*
X13936Y897596D01*
X14142Y897930D01*
X14356Y898259D01*
X14579Y898583D01*
X14809Y898901D01*
X15046Y899214D01*
X15292Y899520D01*
X15545Y899821D01*
X15805Y900115D01*
X16072Y900403D01*
X16346Y900684D01*
X16627Y900958D01*
X16915Y901225D01*
X17209Y901485D01*
X17510Y901738D01*
X17816Y901984D01*
X18129Y902221D01*
X18447Y902451D01*
X18771Y902674D01*
X19100Y902888D01*
X19434Y903094D01*
X19774Y903291D01*
X20118Y903481D01*
X20466Y903662D01*
X20819Y903834D01*
X21176Y903997D01*
X21537Y904152D01*
X21902Y904298D01*
X22270Y904435D01*
X22641Y904562D01*
X23015Y904681D01*
X23393Y904790D01*
X23772Y904891D01*
X24154Y904981D01*
X24539Y905063D01*
X24925Y905134D01*
X25312Y905197D01*
X25701Y905250D01*
X26092Y905293D01*
X26483Y905327D01*
X26875Y905351D01*
X27267Y905365D01*
X27660Y905370D01*
X28053Y905365D01*
X28445Y905351D01*
X28837Y905327D01*
X29228Y905293D01*
X29619Y905250D01*
X30008Y905197D01*
X30395Y905134D01*
X30781Y905063D01*
X31166Y904981D01*
X31548Y904891D01*
X31927Y904790D01*
X32305Y904681D01*
X32679Y904562D01*
X33050Y904435D01*
X33418Y904298D01*
X33783Y904152D01*
X34144Y903997D01*
X34501Y903834D01*
X34854Y903662D01*
X35202Y903481D01*
X35546Y903291D01*
X35886Y903094D01*
X36220Y902888D01*
X36549Y902674D01*
X36873Y902451D01*
X37191Y902221D01*
X37504Y901984D01*
X37810Y901738D01*
X38111Y901485D01*
X38405Y901225D01*
X38693Y900958D01*
X38974Y900684D01*
X39248Y900403D01*
X39515Y900115D01*
X39775Y899821D01*
X40028Y899520D01*
X40274Y899214D01*
X40511Y898901D01*
X40741Y898583D01*
X40964Y898259D01*
X41178Y897930D01*
X41384Y897596D01*
X41581Y897256D01*
X41771Y896912D01*
X41952Y896564D01*
X42124Y896211D01*
X42287Y895854D01*
X42442Y895493D01*
X42588Y895128D01*
X42725Y894760D01*
X42852Y894389D01*
X42971Y894015D01*
X43080Y893637D01*
X43181Y893258D01*
X43271Y892876D01*
X43353Y892491D01*
X43424Y892105D01*
X43487Y891718D01*
X43540Y891329D01*
X43583Y890938D01*
X43617Y890547D01*
X43641Y890155D01*
X43655Y889763D01*
X43660Y889370D01*
X43655Y888977D01*
X43641Y888585D01*
X43617Y888193D01*
X43583Y887802D01*
X43540Y887411D01*
X43487Y887022D01*
X43424Y886635D01*
X43353Y886249D01*
X43271Y885864D01*
X43181Y885482D01*
X43080Y885103D01*
X42971Y884725D01*
X42852Y884351D01*
X42725Y883980D01*
X42588Y883612D01*
X42442Y883247D01*
X42287Y882886D01*
X42124Y882529D01*
X41952Y882176D01*
X41771Y881828D01*
X41581Y881484D01*
X41384Y881144D01*
X41178Y880810D01*
X40964Y880481D01*
X40741Y880157D01*
X40511Y879839D01*
X40274Y879526D01*
X40028Y879220D01*
X39775Y878919D01*
X39515Y878625D01*
X39248Y878337D01*
X38974Y878056D01*
X38693Y877782D01*
X38405Y877515D01*
X38111Y877255D01*
X37810Y877002D01*
X37504Y876756D01*
X37191Y876519D01*
X36873Y876289D01*
X36549Y876066D01*
X36220Y875852D01*
X35886Y875646D01*
X35546Y875449D01*
X35202Y875259D01*
X34854Y875078D01*
X34501Y874906D01*
X34144Y874743D01*
X33783Y874588D01*
X33418Y874442D01*
X33050Y874305D01*
X32679Y874178D01*
X32305Y874059D01*
X31927Y873950D01*
X31548Y873849D01*
X31166Y873759D01*
X30781Y873677D01*
X30395Y873606D01*
X30008Y873543D01*
X29619Y873490D01*
X29228Y873447D01*
X28837Y873413D01*
X28445Y873389D01*
X28053Y873375D01*
X27660Y873370D01*
X27267Y873375D01*
X26875Y873389D01*
X26483Y873413D01*
X26092Y873447D01*
X25701Y873490D01*
X25312Y873543D01*
X24925Y873606D01*
X24539Y873677D01*
X24154Y873759D01*
X23772Y873849D01*
X23393Y873950D01*
X23015Y874059D01*
X22641Y874178D01*
X22270Y874305D01*
X21902Y874442D01*
X21537Y874588D01*
X21176Y874743D01*
X20819Y874906D01*
X20466Y875078D01*
X20118Y875259D01*
X19774Y875449D01*
X19434Y875646D01*
X19100Y875852D01*
X18771Y876066D01*
X18447Y876289D01*
X18129Y876519D01*
X17816Y876756D01*
X17510Y877002D01*
X17209Y877255D01*
X16915Y877515D01*
X16627Y877782D01*
X16346Y878056D01*
X16072Y878337D01*
X15805Y878625D01*
X15545Y878919D01*
X15292Y879220D01*
X15046Y879526D01*
X14809Y879839D01*
X14579Y880157D01*
X14356Y880481D01*
X14142Y880810D01*
X13936Y881144D01*
X13739Y881484D01*
X13549Y881828D01*
X13368Y882176D01*
X13196Y882529D01*
X13033Y882886D01*
X12878Y883247D01*
X12732Y883612D01*
X12595Y883980D01*
X12468Y884351D01*
X12349Y884725D01*
X12240Y885103D01*
X12139Y885482D01*
X12049Y885864D01*
X11967Y886249D01*
X11896Y886635D01*
X11833Y887022D01*
X11780Y887411D01*
X11737Y887802D01*
X11703Y888193D01*
X11679Y888585D01*
X11665Y888977D01*
X11660Y889370D01*
X496387Y75888D02*
X496392Y76281D01*
X496406Y76673D01*
X496430Y77065D01*
X496464Y77456D01*
X496507Y77847D01*
X496560Y78236D01*
X496623Y78623D01*
X496694Y79009D01*
X496776Y79394D01*
X496866Y79776D01*
X496967Y80155D01*
X497076Y80533D01*
X497195Y80907D01*
X497322Y81278D01*
X497459Y81646D01*
X497605Y82011D01*
X497760Y82372D01*
X497923Y82729D01*
X498095Y83082D01*
X498276Y83430D01*
X498466Y83774D01*
X498663Y84114D01*
X498869Y84448D01*
X499083Y84777D01*
X499306Y85101D01*
X499536Y85419D01*
X499773Y85732D01*
X500019Y86038D01*
X500272Y86339D01*
X500532Y86633D01*
X500799Y86921D01*
X501073Y87202D01*
X501354Y87476D01*
X501642Y87743D01*
X501936Y88003D01*
X502237Y88256D01*
X502543Y88502D01*
X502856Y88739D01*
X503174Y88969D01*
X503498Y89192D01*
X503827Y89406D01*
X504161Y89612D01*
X504501Y89809D01*
X504845Y89999D01*
X505193Y90180D01*
X505546Y90352D01*
X505903Y90515D01*
X506264Y90670D01*
X506629Y90816D01*
X506997Y90953D01*
X507368Y91080D01*
X507742Y91199D01*
X508120Y91308D01*
X508499Y91409D01*
X508881Y91499D01*
X509266Y91581D01*
X509652Y91652D01*
X510039Y91715D01*
X510428Y91768D01*
X510819Y91811D01*
X511210Y91845D01*
X511602Y91869D01*
X511994Y91883D01*
X512387Y91888D01*
X512780Y91883D01*
X513172Y91869D01*
X513564Y91845D01*
X513955Y91811D01*
X514346Y91768D01*
X514735Y91715D01*
X515122Y91652D01*
X515508Y91581D01*
X515893Y91499D01*
X516275Y91409D01*
X516654Y91308D01*
X517032Y91199D01*
X517406Y91080D01*
X517777Y90953D01*
X518145Y90816D01*
X518510Y90670D01*
X518871Y90515D01*
X519228Y90352D01*
X519581Y90180D01*
X519929Y89999D01*
X520273Y89809D01*
X520613Y89612D01*
X520947Y89406D01*
X521276Y89192D01*
X521600Y88969D01*
X521918Y88739D01*
X522231Y88502D01*
X522537Y88256D01*
X522838Y88003D01*
X523132Y87743D01*
X523420Y87476D01*
X523701Y87202D01*
X523975Y86921D01*
X524242Y86633D01*
X524502Y86339D01*
X524755Y86038D01*
X525001Y85732D01*
X525238Y85419D01*
X525468Y85101D01*
X525691Y84777D01*
X525905Y84448D01*
X526111Y84114D01*
X526308Y83774D01*
X526498Y83430D01*
X526679Y83082D01*
X526851Y82729D01*
X527014Y82372D01*
X527169Y82011D01*
X527315Y81646D01*
X527452Y81278D01*
X527579Y80907D01*
X527698Y80533D01*
X527807Y80155D01*
X527908Y79776D01*
X527998Y79394D01*
X528080Y79009D01*
X528151Y78623D01*
X528214Y78236D01*
X528267Y77847D01*
X528310Y77456D01*
X528344Y77065D01*
X528368Y76673D01*
X528382Y76281D01*
X528387Y75888D01*
X528382Y75495D01*
X528368Y75103D01*
X528344Y74711D01*
X528310Y74320D01*
X528267Y73929D01*
X528214Y73540D01*
X528151Y73153D01*
X528080Y72767D01*
X527998Y72382D01*
X527908Y72000D01*
X527807Y71621D01*
X527698Y71243D01*
X527579Y70869D01*
X527452Y70498D01*
X527315Y70130D01*
X527169Y69765D01*
X527014Y69404D01*
X526851Y69047D01*
X526679Y68694D01*
X526498Y68346D01*
X526308Y68002D01*
X526111Y67662D01*
X525905Y67328D01*
X525691Y66999D01*
X525468Y66675D01*
X525238Y66357D01*
X525001Y66044D01*
X524755Y65738D01*
X524502Y65437D01*
X524242Y65143D01*
X523975Y64855D01*
X523701Y64574D01*
X523420Y64300D01*
X523132Y64033D01*
X522838Y63773D01*
X522537Y63520D01*
X522231Y63274D01*
X521918Y63037D01*
X521600Y62807D01*
X521276Y62584D01*
X520947Y62370D01*
X520613Y62164D01*
X520273Y61967D01*
X519929Y61777D01*
X519581Y61596D01*
X519228Y61424D01*
X518871Y61261D01*
X518510Y61106D01*
X518145Y60960D01*
X517777Y60823D01*
X517406Y60696D01*
X517032Y60577D01*
X516654Y60468D01*
X516275Y60367D01*
X515893Y60277D01*
X515508Y60195D01*
X515122Y60124D01*
X514735Y60061D01*
X514346Y60008D01*
X513955Y59965D01*
X513564Y59931D01*
X513172Y59907D01*
X512780Y59893D01*
X512387Y59888D01*
X511994Y59893D01*
X511602Y59907D01*
X511210Y59931D01*
X510819Y59965D01*
X510428Y60008D01*
X510039Y60061D01*
X509652Y60124D01*
X509266Y60195D01*
X508881Y60277D01*
X508499Y60367D01*
X508120Y60468D01*
X507742Y60577D01*
X507368Y60696D01*
X506997Y60823D01*
X506629Y60960D01*
X506264Y61106D01*
X505903Y61261D01*
X505546Y61424D01*
X505193Y61596D01*
X504845Y61777D01*
X504501Y61967D01*
X504161Y62164D01*
X503827Y62370D01*
X503498Y62584D01*
X503174Y62807D01*
X502856Y63037D01*
X502543Y63274D01*
X502237Y63520D01*
X501936Y63773D01*
X501642Y64033D01*
X501354Y64300D01*
X501073Y64574D01*
X500799Y64855D01*
X500532Y65143D01*
X500272Y65437D01*
X500019Y65738D01*
X499773Y66044D01*
X499536Y66357D01*
X499306Y66675D01*
X499083Y66999D01*
X498869Y67328D01*
X498663Y67662D01*
X498466Y68002D01*
X498276Y68346D01*
X498095Y68694D01*
X497923Y69047D01*
X497760Y69404D01*
X497605Y69765D01*
X497459Y70130D01*
X497322Y70498D01*
X497195Y70869D01*
X497076Y71243D01*
X496967Y71621D01*
X496866Y72000D01*
X496776Y72382D01*
X496694Y72767D01*
X496623Y73153D01*
X496560Y73540D01*
X496507Y73929D01*
X496464Y74320D01*
X496430Y74711D01*
X496406Y75103D01*
X496392Y75495D01*
X496387Y75888D01*
X61506Y510770D02*
X61511Y511163D01*
X61525Y511555D01*
X61549Y511947D01*
X61583Y512338D01*
X61626Y512729D01*
X61679Y513118D01*
X61742Y513505D01*
X61813Y513891D01*
X61895Y514276D01*
X61985Y514658D01*
X62086Y515037D01*
X62195Y515415D01*
X62314Y515789D01*
X62441Y516160D01*
X62578Y516528D01*
X62724Y516893D01*
X62879Y517254D01*
X63042Y517611D01*
X63214Y517964D01*
X63395Y518312D01*
X63585Y518656D01*
X63782Y518996D01*
X63988Y519330D01*
X64202Y519659D01*
X64425Y519983D01*
X64655Y520301D01*
X64892Y520614D01*
X65138Y520920D01*
X65391Y521221D01*
X65651Y521515D01*
X65918Y521803D01*
X66192Y522084D01*
X66473Y522358D01*
X66761Y522625D01*
X67055Y522885D01*
X67356Y523138D01*
X67662Y523384D01*
X67975Y523621D01*
X68293Y523851D01*
X68617Y524074D01*
X68946Y524288D01*
X69280Y524494D01*
X69620Y524691D01*
X69964Y524881D01*
X70312Y525062D01*
X70665Y525234D01*
X71022Y525397D01*
X71383Y525552D01*
X71748Y525698D01*
X72116Y525835D01*
X72487Y525962D01*
X72861Y526081D01*
X73239Y526190D01*
X73618Y526291D01*
X74000Y526381D01*
X74385Y526463D01*
X74771Y526534D01*
X75158Y526597D01*
X75547Y526650D01*
X75938Y526693D01*
X76329Y526727D01*
X76721Y526751D01*
X77113Y526765D01*
X77506Y526770D01*
X77899Y526765D01*
X78291Y526751D01*
X78683Y526727D01*
X79074Y526693D01*
X79465Y526650D01*
X79854Y526597D01*
X80241Y526534D01*
X80627Y526463D01*
X81012Y526381D01*
X81394Y526291D01*
X81773Y526190D01*
X82151Y526081D01*
X82525Y525962D01*
X82896Y525835D01*
X83264Y525698D01*
X83629Y525552D01*
X83990Y525397D01*
X84347Y525234D01*
X84700Y525062D01*
X85048Y524881D01*
X85392Y524691D01*
X85732Y524494D01*
X86066Y524288D01*
X86395Y524074D01*
X86719Y523851D01*
X87037Y523621D01*
X87350Y523384D01*
X87656Y523138D01*
X87957Y522885D01*
X88251Y522625D01*
X88539Y522358D01*
X88820Y522084D01*
X89094Y521803D01*
X89361Y521515D01*
X89621Y521221D01*
X89874Y520920D01*
X90120Y520614D01*
X90357Y520301D01*
X90587Y519983D01*
X90810Y519659D01*
X91024Y519330D01*
X91230Y518996D01*
X91427Y518656D01*
X91617Y518312D01*
X91798Y517964D01*
X91970Y517611D01*
X92133Y517254D01*
X92288Y516893D01*
X92434Y516528D01*
X92571Y516160D01*
X92698Y515789D01*
X92817Y515415D01*
X92926Y515037D01*
X93027Y514658D01*
X93117Y514276D01*
X93199Y513891D01*
X93270Y513505D01*
X93333Y513118D01*
X93386Y512729D01*
X93429Y512338D01*
X93463Y511947D01*
X93487Y511555D01*
X93501Y511163D01*
X93506Y510770D01*
X93501Y510377D01*
X93487Y509985D01*
X93463Y509593D01*
X93429Y509202D01*
X93386Y508811D01*
X93333Y508422D01*
X93270Y508035D01*
X93199Y507649D01*
X93117Y507264D01*
X93027Y506882D01*
X92926Y506503D01*
X92817Y506125D01*
X92698Y505751D01*
X92571Y505380D01*
X92434Y505012D01*
X92288Y504647D01*
X92133Y504286D01*
X91970Y503929D01*
X91798Y503576D01*
X91617Y503228D01*
X91427Y502884D01*
X91230Y502544D01*
X91024Y502210D01*
X90810Y501881D01*
X90587Y501557D01*
X90357Y501239D01*
X90120Y500926D01*
X89874Y500620D01*
X89621Y500319D01*
X89361Y500025D01*
X89094Y499737D01*
X88820Y499456D01*
X88539Y499182D01*
X88251Y498915D01*
X87957Y498655D01*
X87656Y498402D01*
X87350Y498156D01*
X87037Y497919D01*
X86719Y497689D01*
X86395Y497466D01*
X86066Y497252D01*
X85732Y497046D01*
X85392Y496849D01*
X85048Y496659D01*
X84700Y496478D01*
X84347Y496306D01*
X83990Y496143D01*
X83629Y495988D01*
X83264Y495842D01*
X82896Y495705D01*
X82525Y495578D01*
X82151Y495459D01*
X81773Y495350D01*
X81394Y495249D01*
X81012Y495159D01*
X80627Y495077D01*
X80241Y495006D01*
X79854Y494943D01*
X79465Y494890D01*
X79074Y494847D01*
X78683Y494813D01*
X78291Y494789D01*
X77899Y494775D01*
X77506Y494770D01*
X77113Y494775D01*
X76721Y494789D01*
X76329Y494813D01*
X75938Y494847D01*
X75547Y494890D01*
X75158Y494943D01*
X74771Y495006D01*
X74385Y495077D01*
X74000Y495159D01*
X73618Y495249D01*
X73239Y495350D01*
X72861Y495459D01*
X72487Y495578D01*
X72116Y495705D01*
X71748Y495842D01*
X71383Y495988D01*
X71022Y496143D01*
X70665Y496306D01*
X70312Y496478D01*
X69964Y496659D01*
X69620Y496849D01*
X69280Y497046D01*
X68946Y497252D01*
X68617Y497466D01*
X68293Y497689D01*
X67975Y497919D01*
X67662Y498156D01*
X67356Y498402D01*
X67055Y498655D01*
X66761Y498915D01*
X66473Y499182D01*
X66192Y499456D01*
X65918Y499737D01*
X65651Y500025D01*
X65391Y500319D01*
X65138Y500620D01*
X64892Y500926D01*
X64655Y501239D01*
X64425Y501557D01*
X64202Y501881D01*
X63988Y502210D01*
X63782Y502544D01*
X63585Y502884D01*
X63395Y503228D01*
X63214Y503576D01*
X63042Y503929D01*
X62879Y504286D01*
X62724Y504647D01*
X62578Y505012D01*
X62441Y505380D01*
X62314Y505751D01*
X62195Y506125D01*
X62086Y506503D01*
X61985Y506882D01*
X61895Y507264D01*
X61813Y507649D01*
X61742Y508035D01*
X61679Y508422D01*
X61626Y508811D01*
X61583Y509202D01*
X61549Y509593D01*
X61525Y509985D01*
X61511Y510377D01*
X61506Y510770D01*
X593599Y557232D02*
X593604Y557625D01*
X593618Y558017D01*
X593642Y558409D01*
X593676Y558800D01*
X593719Y559191D01*
X593772Y559580D01*
X593835Y559967D01*
X593906Y560353D01*
X593988Y560738D01*
X594078Y561120D01*
X594179Y561499D01*
X594288Y561877D01*
X594407Y562251D01*
X594534Y562622D01*
X594671Y562990D01*
X594817Y563355D01*
X594972Y563716D01*
X595135Y564073D01*
X595307Y564426D01*
X595488Y564774D01*
X595678Y565118D01*
X595875Y565458D01*
X596081Y565792D01*
X596295Y566121D01*
X596518Y566445D01*
X596748Y566763D01*
X596985Y567076D01*
X597231Y567382D01*
X597484Y567683D01*
X597744Y567977D01*
X598011Y568265D01*
X598285Y568546D01*
X598566Y568820D01*
X598854Y569087D01*
X599148Y569347D01*
X599449Y569600D01*
X599755Y569846D01*
X600068Y570083D01*
X600386Y570313D01*
X600710Y570536D01*
X601039Y570750D01*
X601373Y570956D01*
X601713Y571153D01*
X602057Y571343D01*
X602405Y571524D01*
X602758Y571696D01*
X603115Y571859D01*
X603476Y572014D01*
X603841Y572160D01*
X604209Y572297D01*
X604580Y572424D01*
X604954Y572543D01*
X605332Y572652D01*
X605711Y572753D01*
X606093Y572843D01*
X606478Y572925D01*
X606864Y572996D01*
X607251Y573059D01*
X607640Y573112D01*
X608031Y573155D01*
X608422Y573189D01*
X608814Y573213D01*
X609206Y573227D01*
X609599Y573232D01*
X609992Y573227D01*
X610384Y573213D01*
X610776Y573189D01*
X611167Y573155D01*
X611558Y573112D01*
X611947Y573059D01*
X612334Y572996D01*
X612720Y572925D01*
X613105Y572843D01*
X613487Y572753D01*
X613866Y572652D01*
X614244Y572543D01*
X614618Y572424D01*
X614989Y572297D01*
X615357Y572160D01*
X615722Y572014D01*
X616083Y571859D01*
X616440Y571696D01*
X616793Y571524D01*
X617141Y571343D01*
X617485Y571153D01*
X617825Y570956D01*
X618159Y570750D01*
X618488Y570536D01*
X618812Y570313D01*
X619130Y570083D01*
X619443Y569846D01*
X619749Y569600D01*
X620050Y569347D01*
X620344Y569087D01*
X620632Y568820D01*
X620913Y568546D01*
X621187Y568265D01*
X621454Y567977D01*
X621714Y567683D01*
X621967Y567382D01*
X622213Y567076D01*
X622450Y566763D01*
X622680Y566445D01*
X622903Y566121D01*
X623117Y565792D01*
X623323Y565458D01*
X623520Y565118D01*
X623710Y564774D01*
X623891Y564426D01*
X624063Y564073D01*
X624226Y563716D01*
X624381Y563355D01*
X624527Y562990D01*
X624664Y562622D01*
X624791Y562251D01*
X624910Y561877D01*
X625019Y561499D01*
X625120Y561120D01*
X625210Y560738D01*
X625292Y560353D01*
X625363Y559967D01*
X625426Y559580D01*
X625479Y559191D01*
X625522Y558800D01*
X625556Y558409D01*
X625580Y558017D01*
X625594Y557625D01*
X625599Y557232D01*
X625594Y556839D01*
X625580Y556447D01*
X625556Y556055D01*
X625522Y555664D01*
X625479Y555273D01*
X625426Y554884D01*
X625363Y554497D01*
X625292Y554111D01*
X625210Y553726D01*
X625120Y553344D01*
X625019Y552965D01*
X624910Y552587D01*
X624791Y552213D01*
X624664Y551842D01*
X624527Y551474D01*
X624381Y551109D01*
X624226Y550748D01*
X624063Y550391D01*
X623891Y550038D01*
X623710Y549690D01*
X623520Y549346D01*
X623323Y549006D01*
X623117Y548672D01*
X622903Y548343D01*
X622680Y548019D01*
X622450Y547701D01*
X622213Y547388D01*
X621967Y547082D01*
X621714Y546781D01*
X621454Y546487D01*
X621187Y546199D01*
X620913Y545918D01*
X620632Y545644D01*
X620344Y545377D01*
X620050Y545117D01*
X619749Y544864D01*
X619443Y544618D01*
X619130Y544381D01*
X618812Y544151D01*
X618488Y543928D01*
X618159Y543714D01*
X617825Y543508D01*
X617485Y543311D01*
X617141Y543121D01*
X616793Y542940D01*
X616440Y542768D01*
X616083Y542605D01*
X615722Y542450D01*
X615357Y542304D01*
X614989Y542167D01*
X614618Y542040D01*
X614244Y541921D01*
X613866Y541812D01*
X613487Y541711D01*
X613105Y541621D01*
X612720Y541539D01*
X612334Y541468D01*
X611947Y541405D01*
X611558Y541352D01*
X611167Y541309D01*
X610776Y541275D01*
X610384Y541251D01*
X609992Y541237D01*
X609599Y541232D01*
X609206Y541237D01*
X608814Y541251D01*
X608422Y541275D01*
X608031Y541309D01*
X607640Y541352D01*
X607251Y541405D01*
X606864Y541468D01*
X606478Y541539D01*
X606093Y541621D01*
X605711Y541711D01*
X605332Y541812D01*
X604954Y541921D01*
X604580Y542040D01*
X604209Y542167D01*
X603841Y542304D01*
X603476Y542450D01*
X603115Y542605D01*
X602758Y542768D01*
X602405Y542940D01*
X602057Y543121D01*
X601713Y543311D01*
X601373Y543508D01*
X601039Y543714D01*
X600710Y543928D01*
X600386Y544151D01*
X600068Y544381D01*
X599755Y544618D01*
X599449Y544864D01*
X599148Y545117D01*
X598854Y545377D01*
X598566Y545644D01*
X598285Y545918D01*
X598011Y546199D01*
X597744Y546487D01*
X597484Y546781D01*
X597231Y547082D01*
X596985Y547388D01*
X596748Y547701D01*
X596518Y548019D01*
X596295Y548343D01*
X596081Y548672D01*
X595875Y549006D01*
X595678Y549346D01*
X595488Y549690D01*
X595307Y550038D01*
X595135Y550391D01*
X594972Y550748D01*
X594817Y551109D01*
X594671Y551474D01*
X594534Y551842D01*
X594407Y552213D01*
X594288Y552587D01*
X594179Y552965D01*
X594078Y553344D01*
X593988Y553726D01*
X593906Y554111D01*
X593835Y554497D01*
X593772Y554884D01*
X593719Y555273D01*
X593676Y555664D01*
X593642Y556055D01*
X593618Y556447D01*
X593604Y556839D01*
X593599Y557232D01*
X694208Y783751D02*
X694213Y784144D01*
X694227Y784536D01*
X694251Y784928D01*
X694285Y785319D01*
X694328Y785710D01*
X694381Y786099D01*
X694444Y786486D01*
X694515Y786872D01*
X694597Y787257D01*
X694687Y787639D01*
X694788Y788018D01*
X694897Y788396D01*
X695016Y788770D01*
X695143Y789141D01*
X695280Y789509D01*
X695426Y789874D01*
X695581Y790235D01*
X695744Y790592D01*
X695916Y790945D01*
X696097Y791293D01*
X696287Y791637D01*
X696484Y791977D01*
X696690Y792311D01*
X696904Y792640D01*
X697127Y792964D01*
X697357Y793282D01*
X697594Y793595D01*
X697840Y793901D01*
X698093Y794202D01*
X698353Y794496D01*
X698620Y794784D01*
X698894Y795065D01*
X699175Y795339D01*
X699463Y795606D01*
X699757Y795866D01*
X700058Y796119D01*
X700364Y796365D01*
X700677Y796602D01*
X700995Y796832D01*
X701319Y797055D01*
X701648Y797269D01*
X701982Y797475D01*
X702322Y797672D01*
X702666Y797862D01*
X703014Y798043D01*
X703367Y798215D01*
X703724Y798378D01*
X704085Y798533D01*
X704450Y798679D01*
X704818Y798816D01*
X705189Y798943D01*
X705563Y799062D01*
X705941Y799171D01*
X706320Y799272D01*
X706702Y799362D01*
X707087Y799444D01*
X707473Y799515D01*
X707860Y799578D01*
X708249Y799631D01*
X708640Y799674D01*
X709031Y799708D01*
X709423Y799732D01*
X709815Y799746D01*
X710208Y799751D01*
X710601Y799746D01*
X710993Y799732D01*
X711385Y799708D01*
X711776Y799674D01*
X712167Y799631D01*
X712556Y799578D01*
X712943Y799515D01*
X713329Y799444D01*
X713714Y799362D01*
X714096Y799272D01*
X714475Y799171D01*
X714853Y799062D01*
X715227Y798943D01*
X715598Y798816D01*
X715966Y798679D01*
X716331Y798533D01*
X716692Y798378D01*
X717049Y798215D01*
X717402Y798043D01*
X717750Y797862D01*
X718094Y797672D01*
X718434Y797475D01*
X718768Y797269D01*
X719097Y797055D01*
X719421Y796832D01*
X719739Y796602D01*
X720052Y796365D01*
X720358Y796119D01*
X720659Y795866D01*
X720953Y795606D01*
X721241Y795339D01*
X721522Y795065D01*
X721796Y794784D01*
X722063Y794496D01*
X722323Y794202D01*
X722576Y793901D01*
X722822Y793595D01*
X723059Y793282D01*
X723289Y792964D01*
X723512Y792640D01*
X723726Y792311D01*
X723932Y791977D01*
X724129Y791637D01*
X724319Y791293D01*
X724500Y790945D01*
X724672Y790592D01*
X724835Y790235D01*
X724990Y789874D01*
X725136Y789509D01*
X725273Y789141D01*
X725400Y788770D01*
X725519Y788396D01*
X725628Y788018D01*
X725729Y787639D01*
X725819Y787257D01*
X725901Y786872D01*
X725972Y786486D01*
X726035Y786099D01*
X726088Y785710D01*
X726131Y785319D01*
X726165Y784928D01*
X726189Y784536D01*
X726203Y784144D01*
X726208Y783751D01*
X726203Y783358D01*
X726189Y782966D01*
X726165Y782574D01*
X726131Y782183D01*
X726088Y781792D01*
X726035Y781403D01*
X725972Y781016D01*
X725901Y780630D01*
X725819Y780245D01*
X725729Y779863D01*
X725628Y779484D01*
X725519Y779106D01*
X725400Y778732D01*
X725273Y778361D01*
X725136Y777993D01*
X724990Y777628D01*
X724835Y777267D01*
X724672Y776910D01*
X724500Y776557D01*
X724319Y776209D01*
X724129Y775865D01*
X723932Y775525D01*
X723726Y775191D01*
X723512Y774862D01*
X723289Y774538D01*
X723059Y774220D01*
X722822Y773907D01*
X722576Y773601D01*
X722323Y773300D01*
X722063Y773006D01*
X721796Y772718D01*
X721522Y772437D01*
X721241Y772163D01*
X720953Y771896D01*
X720659Y771636D01*
X720358Y771383D01*
X720052Y771137D01*
X719739Y770900D01*
X719421Y770670D01*
X719097Y770447D01*
X718768Y770233D01*
X718434Y770027D01*
X718094Y769830D01*
X717750Y769640D01*
X717402Y769459D01*
X717049Y769287D01*
X716692Y769124D01*
X716331Y768969D01*
X715966Y768823D01*
X715598Y768686D01*
X715227Y768559D01*
X714853Y768440D01*
X714475Y768331D01*
X714096Y768230D01*
X713714Y768140D01*
X713329Y768058D01*
X712943Y767987D01*
X712556Y767924D01*
X712167Y767871D01*
X711776Y767828D01*
X711385Y767794D01*
X710993Y767770D01*
X710601Y767756D01*
X710208Y767751D01*
X709815Y767756D01*
X709423Y767770D01*
X709031Y767794D01*
X708640Y767828D01*
X708249Y767871D01*
X707860Y767924D01*
X707473Y767987D01*
X707087Y768058D01*
X706702Y768140D01*
X706320Y768230D01*
X705941Y768331D01*
X705563Y768440D01*
X705189Y768559D01*
X704818Y768686D01*
X704450Y768823D01*
X704085Y768969D01*
X703724Y769124D01*
X703367Y769287D01*
X703014Y769459D01*
X702666Y769640D01*
X702322Y769830D01*
X701982Y770027D01*
X701648Y770233D01*
X701319Y770447D01*
X700995Y770670D01*
X700677Y770900D01*
X700364Y771137D01*
X700058Y771383D01*
X699757Y771636D01*
X699463Y771896D01*
X699175Y772163D01*
X698894Y772437D01*
X698620Y772718D01*
X698353Y773006D01*
X698093Y773300D01*
X697840Y773601D01*
X697594Y773907D01*
X697357Y774220D01*
X697127Y774538D01*
X696904Y774862D01*
X696690Y775191D01*
X696484Y775525D01*
X696287Y775865D01*
X696097Y776209D01*
X695916Y776557D01*
X695744Y776910D01*
X695581Y777267D01*
X695426Y777628D01*
X695280Y777993D01*
X695143Y778361D01*
X695016Y778732D01*
X694897Y779106D01*
X694788Y779484D01*
X694687Y779863D01*
X694597Y780245D01*
X694515Y780630D01*
X694444Y781016D01*
X694381Y781403D01*
X694328Y781792D01*
X694285Y782183D01*
X694251Y782574D01*
X694227Y782966D01*
X694213Y783358D01*
X694208Y783751D01*
X162599Y922232D02*
X162604Y922625D01*
X162618Y923017D01*
X162642Y923409D01*
X162676Y923800D01*
X162719Y924191D01*
X162772Y924580D01*
X162835Y924967D01*
X162906Y925353D01*
X162988Y925738D01*
X163078Y926120D01*
X163179Y926499D01*
X163288Y926877D01*
X163407Y927251D01*
X163534Y927622D01*
X163671Y927990D01*
X163817Y928355D01*
X163972Y928716D01*
X164135Y929073D01*
X164307Y929426D01*
X164488Y929774D01*
X164678Y930118D01*
X164875Y930458D01*
X165081Y930792D01*
X165295Y931121D01*
X165518Y931445D01*
X165748Y931763D01*
X165985Y932076D01*
X166231Y932382D01*
X166484Y932683D01*
X166744Y932977D01*
X167011Y933265D01*
X167285Y933546D01*
X167566Y933820D01*
X167854Y934087D01*
X168148Y934347D01*
X168449Y934600D01*
X168755Y934846D01*
X169068Y935083D01*
X169386Y935313D01*
X169710Y935536D01*
X170039Y935750D01*
X170373Y935956D01*
X170713Y936153D01*
X171057Y936343D01*
X171405Y936524D01*
X171758Y936696D01*
X172115Y936859D01*
X172476Y937014D01*
X172841Y937160D01*
X173209Y937297D01*
X173580Y937424D01*
X173954Y937543D01*
X174332Y937652D01*
X174711Y937753D01*
X175093Y937843D01*
X175478Y937925D01*
X175864Y937996D01*
X176251Y938059D01*
X176640Y938112D01*
X177031Y938155D01*
X177422Y938189D01*
X177814Y938213D01*
X178206Y938227D01*
X178599Y938232D01*
X178992Y938227D01*
X179384Y938213D01*
X179776Y938189D01*
X180167Y938155D01*
X180558Y938112D01*
X180947Y938059D01*
X181334Y937996D01*
X181720Y937925D01*
X182105Y937843D01*
X182487Y937753D01*
X182866Y937652D01*
X183244Y937543D01*
X183618Y937424D01*
X183989Y937297D01*
X184357Y937160D01*
X184722Y937014D01*
X185083Y936859D01*
X185440Y936696D01*
X185793Y936524D01*
X186141Y936343D01*
X186485Y936153D01*
X186825Y935956D01*
X187159Y935750D01*
X187488Y935536D01*
X187812Y935313D01*
X188130Y935083D01*
X188443Y934846D01*
X188749Y934600D01*
X189050Y934347D01*
X189344Y934087D01*
X189632Y933820D01*
X189913Y933546D01*
X190187Y933265D01*
X190454Y932977D01*
X190714Y932683D01*
X190967Y932382D01*
X191213Y932076D01*
X191450Y931763D01*
X191680Y931445D01*
X191903Y931121D01*
X192117Y930792D01*
X192323Y930458D01*
X192520Y930118D01*
X192710Y929774D01*
X192891Y929426D01*
X193063Y929073D01*
X193226Y928716D01*
X193381Y928355D01*
X193527Y927990D01*
X193664Y927622D01*
X193791Y927251D01*
X193910Y926877D01*
X194019Y926499D01*
X194120Y926120D01*
X194210Y925738D01*
X194292Y925353D01*
X194363Y924967D01*
X194426Y924580D01*
X194479Y924191D01*
X194522Y923800D01*
X194556Y923409D01*
X194580Y923017D01*
X194594Y922625D01*
X194599Y922232D01*
X194594Y921839D01*
X194580Y921447D01*
X194556Y921055D01*
X194522Y920664D01*
X194479Y920273D01*
X194426Y919884D01*
X194363Y919497D01*
X194292Y919111D01*
X194210Y918726D01*
X194120Y918344D01*
X194019Y917965D01*
X193910Y917587D01*
X193791Y917213D01*
X193664Y916842D01*
X193527Y916474D01*
X193381Y916109D01*
X193226Y915748D01*
X193063Y915391D01*
X192891Y915038D01*
X192710Y914690D01*
X192520Y914346D01*
X192323Y914006D01*
X192117Y913672D01*
X191903Y913343D01*
X191680Y913019D01*
X191450Y912701D01*
X191213Y912388D01*
X190967Y912082D01*
X190714Y911781D01*
X190454Y911487D01*
X190187Y911199D01*
X189913Y910918D01*
X189632Y910644D01*
X189344Y910377D01*
X189050Y910117D01*
X188749Y909864D01*
X188443Y909618D01*
X188130Y909381D01*
X187812Y909151D01*
X187488Y908928D01*
X187159Y908714D01*
X186825Y908508D01*
X186485Y908311D01*
X186141Y908121D01*
X185793Y907940D01*
X185440Y907768D01*
X185083Y907605D01*
X184722Y907450D01*
X184357Y907304D01*
X183989Y907167D01*
X183618Y907040D01*
X183244Y906921D01*
X182866Y906812D01*
X182487Y906711D01*
X182105Y906621D01*
X181720Y906539D01*
X181334Y906468D01*
X180947Y906405D01*
X180558Y906352D01*
X180167Y906309D01*
X179776Y906275D01*
X179384Y906251D01*
X178992Y906237D01*
X178599Y906232D01*
X178206Y906237D01*
X177814Y906251D01*
X177422Y906275D01*
X177031Y906309D01*
X176640Y906352D01*
X176251Y906405D01*
X175864Y906468D01*
X175478Y906539D01*
X175093Y906621D01*
X174711Y906711D01*
X174332Y906812D01*
X173954Y906921D01*
X173580Y907040D01*
X173209Y907167D01*
X172841Y907304D01*
X172476Y907450D01*
X172115Y907605D01*
X171758Y907768D01*
X171405Y907940D01*
X171057Y908121D01*
X170713Y908311D01*
X170373Y908508D01*
X170039Y908714D01*
X169710Y908928D01*
X169386Y909151D01*
X169068Y909381D01*
X168755Y909618D01*
X168449Y909864D01*
X168148Y910117D01*
X167854Y910377D01*
X167566Y910644D01*
X167285Y910918D01*
X167011Y911199D01*
X166744Y911487D01*
X166484Y911781D01*
X166231Y912082D01*
X165985Y912388D01*
X165748Y912701D01*
X165518Y913019D01*
X165295Y913343D01*
X165081Y913672D01*
X164875Y914006D01*
X164678Y914346D01*
X164488Y914690D01*
X164307Y915038D01*
X164135Y915391D01*
X163972Y915748D01*
X163817Y916109D01*
X163671Y916474D01*
X163534Y916842D01*
X163407Y917213D01*
X163288Y917587D01*
X163179Y917965D01*
X163078Y918344D01*
X162988Y918726D01*
X162906Y919111D01*
X162835Y919497D01*
X162772Y919884D01*
X162719Y920273D01*
X162676Y920664D01*
X162642Y921055D01*
X162618Y921447D01*
X162604Y921839D01*
X162599Y922232D01*
X593599Y922232D02*
X593604Y922625D01*
X593618Y923017D01*
X593642Y923409D01*
X593676Y923800D01*
X593719Y924191D01*
X593772Y924580D01*
X593835Y924967D01*
X593906Y925353D01*
X593988Y925738D01*
X594078Y926120D01*
X594179Y926499D01*
X594288Y926877D01*
X594407Y927251D01*
X594534Y927622D01*
X594671Y927990D01*
X594817Y928355D01*
X594972Y928716D01*
X595135Y929073D01*
X595307Y929426D01*
X595488Y929774D01*
X595678Y930118D01*
X595875Y930458D01*
X596081Y930792D01*
X596295Y931121D01*
X596518Y931445D01*
X596748Y931763D01*
X596985Y932076D01*
X597231Y932382D01*
X597484Y932683D01*
X597744Y932977D01*
X598011Y933265D01*
X598285Y933546D01*
X598566Y933820D01*
X598854Y934087D01*
X599148Y934347D01*
X599449Y934600D01*
X599755Y934846D01*
X600068Y935083D01*
X600386Y935313D01*
X600710Y935536D01*
X601039Y935750D01*
X601373Y935956D01*
X601713Y936153D01*
X602057Y936343D01*
X602405Y936524D01*
X602758Y936696D01*
X603115Y936859D01*
X603476Y937014D01*
X603841Y937160D01*
X604209Y937297D01*
X604580Y937424D01*
X604954Y937543D01*
X605332Y937652D01*
X605711Y937753D01*
X606093Y937843D01*
X606478Y937925D01*
X606864Y937996D01*
X607251Y938059D01*
X607640Y938112D01*
X608031Y938155D01*
X608422Y938189D01*
X608814Y938213D01*
X609206Y938227D01*
X609599Y938232D01*
X609992Y938227D01*
X610384Y938213D01*
X610776Y938189D01*
X611167Y938155D01*
X611558Y938112D01*
X611947Y938059D01*
X612334Y937996D01*
X612720Y937925D01*
X613105Y937843D01*
X613487Y937753D01*
X613866Y937652D01*
X614244Y937543D01*
X614618Y937424D01*
X614989Y937297D01*
X615357Y937160D01*
X615722Y937014D01*
X616083Y936859D01*
X616440Y936696D01*
X616793Y936524D01*
X617141Y936343D01*
X617485Y936153D01*
X617825Y935956D01*
X618159Y935750D01*
X618488Y935536D01*
X618812Y935313D01*
X619130Y935083D01*
X619443Y934846D01*
X619749Y934600D01*
X620050Y934347D01*
X620344Y934087D01*
X620632Y933820D01*
X620913Y933546D01*
X621187Y933265D01*
X621454Y932977D01*
X621714Y932683D01*
X621967Y932382D01*
X622213Y932076D01*
X622450Y931763D01*
X622680Y931445D01*
X622903Y931121D01*
X623117Y930792D01*
X623323Y930458D01*
X623520Y930118D01*
X623710Y929774D01*
X623891Y929426D01*
X624063Y929073D01*
X624226Y928716D01*
X624381Y928355D01*
X624527Y927990D01*
X624664Y927622D01*
X624791Y927251D01*
X624910Y926877D01*
X625019Y926499D01*
X625120Y926120D01*
X625210Y925738D01*
X625292Y925353D01*
X625363Y924967D01*
X625426Y924580D01*
X625479Y924191D01*
X625522Y923800D01*
X625556Y923409D01*
X625580Y923017D01*
X625594Y922625D01*
X625599Y922232D01*
X625594Y921839D01*
X625580Y921447D01*
X625556Y921055D01*
X625522Y920664D01*
X625479Y920273D01*
X625426Y919884D01*
X625363Y919497D01*
X625292Y919111D01*
X625210Y918726D01*
X625120Y918344D01*
X625019Y917965D01*
X624910Y917587D01*
X624791Y917213D01*
X624664Y916842D01*
X624527Y916474D01*
X624381Y916109D01*
X624226Y915748D01*
X624063Y915391D01*
X623891Y915038D01*
X623710Y914690D01*
X623520Y914346D01*
X623323Y914006D01*
X623117Y913672D01*
X622903Y913343D01*
X622680Y913019D01*
X622450Y912701D01*
X622213Y912388D01*
X621967Y912082D01*
X621714Y911781D01*
X621454Y911487D01*
X621187Y911199D01*
X620913Y910918D01*
X620632Y910644D01*
X620344Y910377D01*
X620050Y910117D01*
X619749Y909864D01*
X619443Y909618D01*
X619130Y909381D01*
X618812Y909151D01*
X618488Y908928D01*
X618159Y908714D01*
X617825Y908508D01*
X617485Y908311D01*
X617141Y908121D01*
X616793Y907940D01*
X616440Y907768D01*
X616083Y907605D01*
X615722Y907450D01*
X615357Y907304D01*
X614989Y907167D01*
X614618Y907040D01*
X614244Y906921D01*
X613866Y906812D01*
X613487Y906711D01*
X613105Y906621D01*
X612720Y906539D01*
X612334Y906468D01*
X611947Y906405D01*
X611558Y906352D01*
X611167Y906309D01*
X610776Y906275D01*
X610384Y906251D01*
X609992Y906237D01*
X609599Y906232D01*
X609206Y906237D01*
X608814Y906251D01*
X608422Y906275D01*
X608031Y906309D01*
X607640Y906352D01*
X607251Y906405D01*
X606864Y906468D01*
X606478Y906539D01*
X606093Y906621D01*
X605711Y906711D01*
X605332Y906812D01*
X604954Y906921D01*
X604580Y907040D01*
X604209Y907167D01*
X603841Y907304D01*
X603476Y907450D01*
X603115Y907605D01*
X602758Y907768D01*
X602405Y907940D01*
X602057Y908121D01*
X601713Y908311D01*
X601373Y908508D01*
X601039Y908714D01*
X600710Y908928D01*
X600386Y909151D01*
X600068Y909381D01*
X599755Y909618D01*
X599449Y909864D01*
X599148Y910117D01*
X598854Y910377D01*
X598566Y910644D01*
X598285Y910918D01*
X598011Y911199D01*
X597744Y911487D01*
X597484Y911781D01*
X597231Y912082D01*
X596985Y912388D01*
X596748Y912701D01*
X596518Y913019D01*
X596295Y913343D01*
X596081Y913672D01*
X595875Y914006D01*
X595678Y914346D01*
X595488Y914690D01*
X595307Y915038D01*
X595135Y915391D01*
X594972Y915748D01*
X594817Y916109D01*
X594671Y916474D01*
X594534Y916842D01*
X594407Y917213D01*
X594288Y917587D01*
X594179Y917965D01*
X594078Y918344D01*
X593988Y918726D01*
X593906Y919111D01*
X593835Y919497D01*
X593772Y919884D01*
X593719Y920273D01*
X593676Y920664D01*
X593642Y921055D01*
X593618Y921447D01*
X593604Y921839D01*
X593599Y922232D01*
X162599Y557232D02*
X162604Y557625D01*
X162618Y558017D01*
X162642Y558409D01*
X162676Y558800D01*
X162719Y559191D01*
X162772Y559580D01*
X162835Y559967D01*
X162906Y560353D01*
X162988Y560738D01*
X163078Y561120D01*
X163179Y561499D01*
X163288Y561877D01*
X163407Y562251D01*
X163534Y562622D01*
X163671Y562990D01*
X163817Y563355D01*
X163972Y563716D01*
X164135Y564073D01*
X164307Y564426D01*
X164488Y564774D01*
X164678Y565118D01*
X164875Y565458D01*
X165081Y565792D01*
X165295Y566121D01*
X165518Y566445D01*
X165748Y566763D01*
X165985Y567076D01*
X166231Y567382D01*
X166484Y567683D01*
X166744Y567977D01*
X167011Y568265D01*
X167285Y568546D01*
X167566Y568820D01*
X167854Y569087D01*
X168148Y569347D01*
X168449Y569600D01*
X168755Y569846D01*
X169068Y570083D01*
X169386Y570313D01*
X169710Y570536D01*
X170039Y570750D01*
X170373Y570956D01*
X170713Y571153D01*
X171057Y571343D01*
X171405Y571524D01*
X171758Y571696D01*
X172115Y571859D01*
X172476Y572014D01*
X172841Y572160D01*
X173209Y572297D01*
X173580Y572424D01*
X173954Y572543D01*
X174332Y572652D01*
X174711Y572753D01*
X175093Y572843D01*
X175478Y572925D01*
X175864Y572996D01*
X176251Y573059D01*
X176640Y573112D01*
X177031Y573155D01*
X177422Y573189D01*
X177814Y573213D01*
X178206Y573227D01*
X178599Y573232D01*
X178992Y573227D01*
X179384Y573213D01*
X179776Y573189D01*
X180167Y573155D01*
X180558Y573112D01*
X180947Y573059D01*
X181334Y572996D01*
X181720Y572925D01*
X182105Y572843D01*
X182487Y572753D01*
X182866Y572652D01*
X183244Y572543D01*
X183618Y572424D01*
X183989Y572297D01*
X184357Y572160D01*
X184722Y572014D01*
X185083Y571859D01*
X185440Y571696D01*
X185793Y571524D01*
X186141Y571343D01*
X186485Y571153D01*
X186825Y570956D01*
X187159Y570750D01*
X187488Y570536D01*
X187812Y570313D01*
X188130Y570083D01*
X188443Y569846D01*
X188749Y569600D01*
X189050Y569347D01*
X189344Y569087D01*
X189632Y568820D01*
X189913Y568546D01*
X190187Y568265D01*
X190454Y567977D01*
X190714Y567683D01*
X190967Y567382D01*
X191213Y567076D01*
X191450Y566763D01*
X191680Y566445D01*
X191903Y566121D01*
X192117Y565792D01*
X192323Y565458D01*
X192520Y565118D01*
X192710Y564774D01*
X192891Y564426D01*
X193063Y564073D01*
X193226Y563716D01*
X193381Y563355D01*
X193527Y562990D01*
X193664Y562622D01*
X193791Y562251D01*
X193910Y561877D01*
X194019Y561499D01*
X194120Y561120D01*
X194210Y560738D01*
X194292Y560353D01*
X194363Y559967D01*
X194426Y559580D01*
X194479Y559191D01*
X194522Y558800D01*
X194556Y558409D01*
X194580Y558017D01*
X194594Y557625D01*
X194599Y557232D01*
X194594Y556839D01*
X194580Y556447D01*
X194556Y556055D01*
X194522Y555664D01*
X194479Y555273D01*
X194426Y554884D01*
X194363Y554497D01*
X194292Y554111D01*
X194210Y553726D01*
X194120Y553344D01*
X194019Y552965D01*
X193910Y552587D01*
X193791Y552213D01*
X193664Y551842D01*
X193527Y551474D01*
X193381Y551109D01*
X193226Y550748D01*
X193063Y550391D01*
X192891Y550038D01*
X192710Y549690D01*
X192520Y549346D01*
X192323Y549006D01*
X192117Y548672D01*
X191903Y548343D01*
X191680Y548019D01*
X191450Y547701D01*
X191213Y547388D01*
X190967Y547082D01*
X190714Y546781D01*
X190454Y546487D01*
X190187Y546199D01*
X189913Y545918D01*
X189632Y545644D01*
X189344Y545377D01*
X189050Y545117D01*
X188749Y544864D01*
X188443Y544618D01*
X188130Y544381D01*
X187812Y544151D01*
X187488Y543928D01*
X187159Y543714D01*
X186825Y543508D01*
X186485Y543311D01*
X186141Y543121D01*
X185793Y542940D01*
X185440Y542768D01*
X185083Y542605D01*
X184722Y542450D01*
X184357Y542304D01*
X183989Y542167D01*
X183618Y542040D01*
X183244Y541921D01*
X182866Y541812D01*
X182487Y541711D01*
X182105Y541621D01*
X181720Y541539D01*
X181334Y541468D01*
X180947Y541405D01*
X180558Y541352D01*
X180167Y541309D01*
X179776Y541275D01*
X179384Y541251D01*
X178992Y541237D01*
X178599Y541232D01*
X178206Y541237D01*
X177814Y541251D01*
X177422Y541275D01*
X177031Y541309D01*
X176640Y541352D01*
X176251Y541405D01*
X175864Y541468D01*
X175478Y541539D01*
X175093Y541621D01*
X174711Y541711D01*
X174332Y541812D01*
X173954Y541921D01*
X173580Y542040D01*
X173209Y542167D01*
X172841Y542304D01*
X172476Y542450D01*
X172115Y542605D01*
X171758Y542768D01*
X171405Y542940D01*
X171057Y543121D01*
X170713Y543311D01*
X170373Y543508D01*
X170039Y543714D01*
X169710Y543928D01*
X169386Y544151D01*
X169068Y544381D01*
X168755Y544618D01*
X168449Y544864D01*
X168148Y545117D01*
X167854Y545377D01*
X167566Y545644D01*
X167285Y545918D01*
X167011Y546199D01*
X166744Y546487D01*
X166484Y546781D01*
X166231Y547082D01*
X165985Y547388D01*
X165748Y547701D01*
X165518Y548019D01*
X165295Y548343D01*
X165081Y548672D01*
X164875Y549006D01*
X164678Y549346D01*
X164488Y549690D01*
X164307Y550038D01*
X164135Y550391D01*
X163972Y550748D01*
X163817Y551109D01*
X163671Y551474D01*
X163534Y551842D01*
X163407Y552213D01*
X163288Y552587D01*
X163179Y552965D01*
X163078Y553344D01*
X162988Y553726D01*
X162906Y554111D01*
X162835Y554497D01*
X162772Y554884D01*
X162719Y555273D01*
X162676Y555664D01*
X162642Y556055D01*
X162618Y556447D01*
X162604Y556839D01*
X162599Y557232D01*
D11*
X785100Y39900D02*
X785100Y29600D01*
M02*
