G04 EAGLE Gerber RS-274X export*
G75*
%MOMM*%
%FSLAX34Y34*%
%LPD*%
%INSilkscreen Bottom*%
%IPPOS*%
%AMOC8*
5,1,8,0,0,1.08239X$1,22.5*%
G01*
%ADD10C,0.203200*%
%ADD11C,0.254000*%
%ADD12C,0.101600*%


D10*
X109100Y761450D02*
X109100Y799550D01*
D11*
X483550Y503450D02*
X547050Y503450D01*
X547050Y406950D01*
X483550Y406950D01*
X483550Y503450D01*
X577894Y493400D02*
X577896Y493471D01*
X577902Y493542D01*
X577912Y493612D01*
X577925Y493681D01*
X577943Y493750D01*
X577964Y493818D01*
X577989Y493884D01*
X578018Y493949D01*
X578050Y494012D01*
X578086Y494074D01*
X578125Y494133D01*
X578168Y494190D01*
X578213Y494244D01*
X578261Y494296D01*
X578313Y494345D01*
X578367Y494391D01*
X578423Y494434D01*
X578481Y494474D01*
X578542Y494511D01*
X578605Y494544D01*
X578669Y494574D01*
X578735Y494600D01*
X578803Y494622D01*
X578871Y494641D01*
X578941Y494655D01*
X579011Y494666D01*
X579081Y494673D01*
X579152Y494676D01*
X579223Y494675D01*
X579294Y494670D01*
X579364Y494661D01*
X579434Y494648D01*
X579503Y494632D01*
X579571Y494611D01*
X579638Y494587D01*
X579703Y494559D01*
X579767Y494528D01*
X579828Y494493D01*
X579888Y494455D01*
X579946Y494413D01*
X580001Y494369D01*
X580053Y494321D01*
X580103Y494270D01*
X580150Y494217D01*
X580194Y494161D01*
X580235Y494103D01*
X580272Y494043D01*
X580306Y493981D01*
X580337Y493917D01*
X580364Y493851D01*
X580387Y493784D01*
X580406Y493716D01*
X580422Y493647D01*
X580434Y493577D01*
X580442Y493506D01*
X580446Y493435D01*
X580446Y493365D01*
X580442Y493294D01*
X580434Y493223D01*
X580422Y493153D01*
X580406Y493084D01*
X580387Y493016D01*
X580364Y492949D01*
X580337Y492883D01*
X580306Y492819D01*
X580272Y492757D01*
X580235Y492697D01*
X580194Y492639D01*
X580150Y492583D01*
X580103Y492530D01*
X580053Y492479D01*
X580001Y492431D01*
X579946Y492387D01*
X579888Y492345D01*
X579828Y492307D01*
X579767Y492272D01*
X579703Y492241D01*
X579638Y492213D01*
X579571Y492189D01*
X579503Y492168D01*
X579434Y492152D01*
X579364Y492139D01*
X579294Y492130D01*
X579223Y492125D01*
X579152Y492124D01*
X579081Y492127D01*
X579011Y492134D01*
X578941Y492145D01*
X578871Y492159D01*
X578803Y492178D01*
X578735Y492200D01*
X578669Y492226D01*
X578605Y492256D01*
X578542Y492289D01*
X578481Y492326D01*
X578423Y492366D01*
X578367Y492409D01*
X578313Y492455D01*
X578261Y492504D01*
X578213Y492556D01*
X578168Y492610D01*
X578125Y492667D01*
X578086Y492726D01*
X578050Y492788D01*
X578018Y492851D01*
X577989Y492916D01*
X577964Y492982D01*
X577943Y493050D01*
X577925Y493119D01*
X577912Y493188D01*
X577902Y493258D01*
X577896Y493329D01*
X577894Y493400D01*
D12*
X556658Y393809D02*
X554711Y393809D01*
X554711Y387318D01*
X558605Y387318D01*
X558704Y387320D01*
X558804Y387326D01*
X558903Y387335D01*
X559001Y387348D01*
X559099Y387365D01*
X559197Y387386D01*
X559293Y387411D01*
X559388Y387439D01*
X559482Y387471D01*
X559575Y387506D01*
X559667Y387545D01*
X559757Y387588D01*
X559845Y387633D01*
X559932Y387683D01*
X560016Y387735D01*
X560099Y387791D01*
X560179Y387849D01*
X560257Y387911D01*
X560332Y387976D01*
X560405Y388044D01*
X560475Y388114D01*
X560543Y388187D01*
X560608Y388262D01*
X560670Y388340D01*
X560728Y388420D01*
X560784Y388503D01*
X560836Y388587D01*
X560886Y388674D01*
X560931Y388762D01*
X560974Y388852D01*
X561013Y388944D01*
X561048Y389037D01*
X561080Y389131D01*
X561108Y389226D01*
X561133Y389322D01*
X561154Y389420D01*
X561171Y389518D01*
X561184Y389616D01*
X561193Y389715D01*
X561199Y389815D01*
X561201Y389914D01*
X561202Y389914D02*
X561202Y396406D01*
X561201Y396406D02*
X561199Y396505D01*
X561193Y396605D01*
X561184Y396704D01*
X561171Y396802D01*
X561154Y396900D01*
X561133Y396998D01*
X561108Y397094D01*
X561080Y397189D01*
X561048Y397283D01*
X561013Y397376D01*
X560974Y397468D01*
X560931Y397558D01*
X560886Y397646D01*
X560836Y397733D01*
X560784Y397817D01*
X560728Y397900D01*
X560670Y397980D01*
X560608Y398058D01*
X560543Y398133D01*
X560475Y398206D01*
X560405Y398276D01*
X560332Y398344D01*
X560257Y398409D01*
X560179Y398471D01*
X560099Y398529D01*
X560016Y398585D01*
X559932Y398637D01*
X559845Y398687D01*
X559757Y398732D01*
X559667Y398775D01*
X559575Y398814D01*
X559482Y398849D01*
X559388Y398881D01*
X559293Y398909D01*
X559197Y398934D01*
X559099Y398955D01*
X559001Y398972D01*
X558903Y398985D01*
X558804Y398994D01*
X558704Y399000D01*
X558605Y399002D01*
X554711Y399002D01*
X546907Y399002D02*
X546907Y387318D01*
X550153Y399002D02*
X543662Y399002D01*
X539979Y386020D02*
X534786Y386020D01*
X529960Y387318D02*
X529960Y399002D01*
X526714Y399002D01*
X526601Y399000D01*
X526488Y398994D01*
X526375Y398984D01*
X526262Y398970D01*
X526150Y398953D01*
X526039Y398931D01*
X525929Y398906D01*
X525819Y398876D01*
X525711Y398843D01*
X525604Y398806D01*
X525498Y398766D01*
X525394Y398721D01*
X525291Y398673D01*
X525190Y398622D01*
X525091Y398567D01*
X524994Y398509D01*
X524899Y398447D01*
X524806Y398382D01*
X524716Y398314D01*
X524628Y398243D01*
X524542Y398168D01*
X524459Y398091D01*
X524379Y398011D01*
X524302Y397928D01*
X524227Y397842D01*
X524156Y397754D01*
X524088Y397664D01*
X524023Y397571D01*
X523961Y397476D01*
X523903Y397379D01*
X523848Y397280D01*
X523797Y397179D01*
X523749Y397076D01*
X523704Y396972D01*
X523664Y396866D01*
X523627Y396759D01*
X523594Y396651D01*
X523564Y396541D01*
X523539Y396431D01*
X523517Y396320D01*
X523500Y396208D01*
X523486Y396095D01*
X523476Y395982D01*
X523470Y395869D01*
X523468Y395756D01*
X523469Y395756D02*
X523469Y390564D01*
X523468Y390564D02*
X523470Y390451D01*
X523476Y390338D01*
X523486Y390225D01*
X523500Y390112D01*
X523517Y390000D01*
X523539Y389889D01*
X523564Y389779D01*
X523594Y389669D01*
X523627Y389561D01*
X523664Y389454D01*
X523704Y389348D01*
X523749Y389244D01*
X523797Y389141D01*
X523848Y389040D01*
X523903Y388941D01*
X523961Y388844D01*
X524023Y388749D01*
X524088Y388656D01*
X524156Y388566D01*
X524227Y388478D01*
X524302Y388392D01*
X524379Y388309D01*
X524459Y388229D01*
X524542Y388152D01*
X524628Y388077D01*
X524716Y388006D01*
X524806Y387938D01*
X524899Y387873D01*
X524994Y387811D01*
X525091Y387753D01*
X525190Y387698D01*
X525291Y387647D01*
X525394Y387599D01*
X525498Y387554D01*
X525604Y387514D01*
X525711Y387477D01*
X525819Y387444D01*
X525929Y387414D01*
X526039Y387389D01*
X526150Y387367D01*
X526262Y387350D01*
X526375Y387336D01*
X526488Y387326D01*
X526601Y387320D01*
X526714Y387318D01*
X529960Y387318D01*
X517694Y387318D02*
X517694Y399002D01*
X514449Y399002D01*
X514336Y399000D01*
X514223Y398994D01*
X514110Y398984D01*
X513997Y398970D01*
X513885Y398953D01*
X513774Y398931D01*
X513664Y398906D01*
X513554Y398876D01*
X513446Y398843D01*
X513339Y398806D01*
X513233Y398766D01*
X513129Y398721D01*
X513026Y398673D01*
X512925Y398622D01*
X512826Y398567D01*
X512729Y398509D01*
X512634Y398447D01*
X512541Y398382D01*
X512451Y398314D01*
X512363Y398243D01*
X512277Y398168D01*
X512194Y398091D01*
X512114Y398011D01*
X512037Y397928D01*
X511962Y397842D01*
X511891Y397754D01*
X511823Y397664D01*
X511758Y397571D01*
X511696Y397476D01*
X511638Y397379D01*
X511583Y397280D01*
X511532Y397179D01*
X511484Y397076D01*
X511439Y396972D01*
X511399Y396866D01*
X511362Y396759D01*
X511329Y396651D01*
X511299Y396541D01*
X511274Y396431D01*
X511252Y396320D01*
X511235Y396208D01*
X511221Y396095D01*
X511211Y395982D01*
X511205Y395869D01*
X511203Y395756D01*
X511205Y395643D01*
X511211Y395530D01*
X511221Y395417D01*
X511235Y395304D01*
X511252Y395192D01*
X511274Y395081D01*
X511299Y394971D01*
X511329Y394861D01*
X511362Y394753D01*
X511399Y394646D01*
X511439Y394540D01*
X511484Y394436D01*
X511532Y394333D01*
X511583Y394232D01*
X511638Y394133D01*
X511696Y394036D01*
X511758Y393941D01*
X511823Y393848D01*
X511891Y393758D01*
X511962Y393670D01*
X512037Y393584D01*
X512114Y393501D01*
X512194Y393421D01*
X512277Y393344D01*
X512363Y393269D01*
X512451Y393198D01*
X512541Y393130D01*
X512634Y393065D01*
X512729Y393003D01*
X512826Y392945D01*
X512925Y392890D01*
X513026Y392839D01*
X513129Y392791D01*
X513233Y392746D01*
X513339Y392706D01*
X513446Y392669D01*
X513554Y392636D01*
X513664Y392606D01*
X513774Y392581D01*
X513885Y392559D01*
X513997Y392542D01*
X514110Y392528D01*
X514223Y392518D01*
X514336Y392512D01*
X514449Y392510D01*
X514449Y392511D02*
X517694Y392511D01*
X513800Y392511D02*
X511203Y387318D01*
X505378Y387318D02*
X505378Y399002D01*
X506677Y387318D02*
X504080Y387318D01*
X504080Y399002D02*
X506677Y399002D01*
X500129Y399002D02*
X496234Y387318D01*
X492340Y399002D01*
X487646Y387318D02*
X482453Y387318D01*
X487646Y387318D02*
X487646Y399002D01*
X482453Y399002D01*
X483752Y393809D02*
X487646Y393809D01*
X477689Y399002D02*
X477689Y387318D01*
X477689Y399002D02*
X474444Y399002D01*
X474331Y399000D01*
X474218Y398994D01*
X474105Y398984D01*
X473992Y398970D01*
X473880Y398953D01*
X473769Y398931D01*
X473659Y398906D01*
X473549Y398876D01*
X473441Y398843D01*
X473334Y398806D01*
X473228Y398766D01*
X473124Y398721D01*
X473021Y398673D01*
X472920Y398622D01*
X472821Y398567D01*
X472724Y398509D01*
X472629Y398447D01*
X472536Y398382D01*
X472446Y398314D01*
X472358Y398243D01*
X472272Y398168D01*
X472189Y398091D01*
X472109Y398011D01*
X472032Y397928D01*
X471957Y397842D01*
X471886Y397754D01*
X471818Y397664D01*
X471753Y397571D01*
X471691Y397476D01*
X471633Y397379D01*
X471578Y397280D01*
X471527Y397179D01*
X471479Y397076D01*
X471434Y396972D01*
X471394Y396866D01*
X471357Y396759D01*
X471324Y396651D01*
X471294Y396541D01*
X471269Y396431D01*
X471247Y396320D01*
X471230Y396208D01*
X471216Y396095D01*
X471206Y395982D01*
X471200Y395869D01*
X471198Y395756D01*
X471200Y395643D01*
X471206Y395530D01*
X471216Y395417D01*
X471230Y395304D01*
X471247Y395192D01*
X471269Y395081D01*
X471294Y394971D01*
X471324Y394861D01*
X471357Y394753D01*
X471394Y394646D01*
X471434Y394540D01*
X471479Y394436D01*
X471527Y394333D01*
X471578Y394232D01*
X471633Y394133D01*
X471691Y394036D01*
X471753Y393941D01*
X471818Y393848D01*
X471886Y393758D01*
X471957Y393670D01*
X472032Y393584D01*
X472109Y393501D01*
X472189Y393421D01*
X472272Y393344D01*
X472358Y393269D01*
X472446Y393198D01*
X472536Y393130D01*
X472629Y393065D01*
X472724Y393003D01*
X472821Y392945D01*
X472920Y392890D01*
X473021Y392839D01*
X473124Y392791D01*
X473228Y392746D01*
X473334Y392706D01*
X473441Y392669D01*
X473549Y392636D01*
X473659Y392606D01*
X473769Y392581D01*
X473880Y392559D01*
X473992Y392542D01*
X474105Y392528D01*
X474218Y392518D01*
X474331Y392512D01*
X474444Y392510D01*
X474444Y392511D02*
X477689Y392511D01*
X473795Y392511D02*
X471198Y387318D01*
X624508Y682615D02*
X636192Y682615D01*
X636192Y685860D01*
X636190Y685973D01*
X636184Y686086D01*
X636174Y686199D01*
X636160Y686312D01*
X636143Y686424D01*
X636121Y686535D01*
X636096Y686645D01*
X636066Y686755D01*
X636033Y686863D01*
X635996Y686970D01*
X635956Y687076D01*
X635911Y687180D01*
X635863Y687283D01*
X635812Y687384D01*
X635757Y687483D01*
X635699Y687580D01*
X635637Y687675D01*
X635572Y687768D01*
X635504Y687858D01*
X635433Y687946D01*
X635358Y688032D01*
X635281Y688115D01*
X635201Y688195D01*
X635118Y688272D01*
X635032Y688347D01*
X634944Y688418D01*
X634854Y688486D01*
X634761Y688551D01*
X634666Y688613D01*
X634569Y688671D01*
X634470Y688726D01*
X634369Y688777D01*
X634266Y688825D01*
X634162Y688870D01*
X634056Y688910D01*
X633949Y688947D01*
X633841Y688980D01*
X633731Y689010D01*
X633621Y689035D01*
X633510Y689057D01*
X633398Y689074D01*
X633285Y689088D01*
X633172Y689098D01*
X633059Y689104D01*
X632946Y689106D01*
X632833Y689104D01*
X632720Y689098D01*
X632607Y689088D01*
X632494Y689074D01*
X632382Y689057D01*
X632271Y689035D01*
X632161Y689010D01*
X632051Y688980D01*
X631943Y688947D01*
X631836Y688910D01*
X631730Y688870D01*
X631626Y688825D01*
X631523Y688777D01*
X631422Y688726D01*
X631323Y688671D01*
X631226Y688613D01*
X631131Y688551D01*
X631038Y688486D01*
X630948Y688418D01*
X630860Y688347D01*
X630774Y688272D01*
X630691Y688195D01*
X630611Y688115D01*
X630534Y688032D01*
X630459Y687946D01*
X630388Y687858D01*
X630320Y687768D01*
X630255Y687675D01*
X630193Y687580D01*
X630135Y687483D01*
X630080Y687384D01*
X630029Y687283D01*
X629981Y687180D01*
X629936Y687076D01*
X629896Y686970D01*
X629859Y686863D01*
X629826Y686755D01*
X629796Y686645D01*
X629771Y686535D01*
X629749Y686424D01*
X629732Y686312D01*
X629718Y686199D01*
X629708Y686086D01*
X629702Y685973D01*
X629700Y685860D01*
X629701Y685860D02*
X629701Y682615D01*
X629701Y686509D02*
X624508Y689106D01*
X633596Y693971D02*
X636192Y697216D01*
X624508Y697216D01*
X624508Y693971D02*
X624508Y700462D01*
X630350Y705401D02*
X630580Y705404D01*
X630810Y705412D01*
X631039Y705426D01*
X631268Y705445D01*
X631497Y705470D01*
X631724Y705500D01*
X631952Y705535D01*
X632178Y705576D01*
X632403Y705622D01*
X632627Y705674D01*
X632849Y705731D01*
X633071Y705793D01*
X633290Y705861D01*
X633508Y705934D01*
X633725Y706012D01*
X633939Y706095D01*
X634151Y706183D01*
X634361Y706276D01*
X634569Y706375D01*
X634569Y706374D02*
X634659Y706407D01*
X634748Y706443D01*
X634836Y706483D01*
X634921Y706527D01*
X635005Y706574D01*
X635087Y706624D01*
X635167Y706678D01*
X635244Y706734D01*
X635320Y706794D01*
X635393Y706857D01*
X635463Y706922D01*
X635531Y706991D01*
X635595Y707062D01*
X635657Y707135D01*
X635716Y707211D01*
X635772Y707289D01*
X635825Y707370D01*
X635874Y707452D01*
X635920Y707536D01*
X635963Y707623D01*
X636002Y707710D01*
X636038Y707800D01*
X636070Y707890D01*
X636098Y707982D01*
X636123Y708075D01*
X636144Y708169D01*
X636161Y708263D01*
X636175Y708358D01*
X636184Y708454D01*
X636190Y708550D01*
X636192Y708646D01*
X636190Y708742D01*
X636184Y708838D01*
X636175Y708934D01*
X636161Y709029D01*
X636144Y709123D01*
X636123Y709217D01*
X636098Y709310D01*
X636070Y709402D01*
X636038Y709492D01*
X636002Y709582D01*
X635963Y709669D01*
X635920Y709756D01*
X635874Y709840D01*
X635825Y709922D01*
X635772Y710003D01*
X635716Y710081D01*
X635657Y710157D01*
X635595Y710230D01*
X635531Y710301D01*
X635463Y710370D01*
X635393Y710435D01*
X635320Y710498D01*
X635244Y710558D01*
X635167Y710614D01*
X635087Y710668D01*
X635005Y710718D01*
X634921Y710765D01*
X634836Y710809D01*
X634748Y710849D01*
X634659Y710885D01*
X634569Y710918D01*
X634569Y710919D02*
X634362Y711018D01*
X634152Y711111D01*
X633939Y711199D01*
X633725Y711282D01*
X633509Y711360D01*
X633291Y711433D01*
X633071Y711501D01*
X632850Y711563D01*
X632627Y711620D01*
X632403Y711672D01*
X632178Y711718D01*
X631952Y711759D01*
X631725Y711794D01*
X631497Y711824D01*
X631268Y711849D01*
X631039Y711868D01*
X630810Y711882D01*
X630580Y711890D01*
X630350Y711893D01*
X630350Y705401D02*
X630120Y705404D01*
X629890Y705412D01*
X629661Y705426D01*
X629432Y705445D01*
X629203Y705470D01*
X628975Y705500D01*
X628748Y705535D01*
X628522Y705576D01*
X628297Y705622D01*
X628073Y705674D01*
X627850Y705731D01*
X627629Y705793D01*
X627409Y705861D01*
X627191Y705934D01*
X626975Y706012D01*
X626761Y706095D01*
X626549Y706183D01*
X626338Y706276D01*
X626131Y706375D01*
X626131Y706374D02*
X626041Y706407D01*
X625952Y706443D01*
X625864Y706484D01*
X625779Y706527D01*
X625695Y706574D01*
X625613Y706624D01*
X625533Y706678D01*
X625456Y706734D01*
X625380Y706794D01*
X625307Y706857D01*
X625237Y706922D01*
X625169Y706991D01*
X625105Y707062D01*
X625043Y707135D01*
X624984Y707211D01*
X624928Y707289D01*
X624875Y707370D01*
X624826Y707452D01*
X624780Y707536D01*
X624737Y707623D01*
X624698Y707710D01*
X624662Y707800D01*
X624630Y707890D01*
X624602Y707982D01*
X624577Y708075D01*
X624556Y708169D01*
X624539Y708263D01*
X624525Y708358D01*
X624516Y708454D01*
X624510Y708550D01*
X624508Y708646D01*
X626131Y710918D02*
X626338Y711017D01*
X626549Y711110D01*
X626761Y711198D01*
X626975Y711281D01*
X627191Y711359D01*
X627409Y711432D01*
X627629Y711500D01*
X627850Y711562D01*
X628073Y711619D01*
X628297Y711671D01*
X628522Y711717D01*
X628748Y711758D01*
X628975Y711793D01*
X629203Y711823D01*
X629432Y711848D01*
X629661Y711867D01*
X629890Y711881D01*
X630120Y711889D01*
X630350Y711892D01*
X626131Y710918D02*
X626041Y710885D01*
X625952Y710849D01*
X625864Y710809D01*
X625779Y710765D01*
X625695Y710718D01*
X625613Y710668D01*
X625533Y710614D01*
X625456Y710558D01*
X625380Y710498D01*
X625307Y710435D01*
X625237Y710370D01*
X625169Y710301D01*
X625105Y710230D01*
X625043Y710157D01*
X624984Y710081D01*
X624928Y710003D01*
X624875Y709922D01*
X624826Y709840D01*
X624780Y709756D01*
X624737Y709669D01*
X624698Y709582D01*
X624662Y709492D01*
X624630Y709402D01*
X624602Y709310D01*
X624577Y709217D01*
X624556Y709123D01*
X624539Y709029D01*
X624525Y708934D01*
X624516Y708838D01*
X624510Y708742D01*
X624508Y708646D01*
X627104Y706050D02*
X633596Y711243D01*
X617622Y684284D02*
X615026Y681038D01*
X617622Y684284D02*
X605938Y684284D01*
X605938Y687529D02*
X605938Y681038D01*
X611780Y692468D02*
X612010Y692471D01*
X612240Y692479D01*
X612469Y692493D01*
X612698Y692512D01*
X612927Y692537D01*
X613154Y692567D01*
X613382Y692602D01*
X613608Y692643D01*
X613833Y692689D01*
X614057Y692741D01*
X614279Y692798D01*
X614501Y692860D01*
X614720Y692928D01*
X614938Y693001D01*
X615155Y693079D01*
X615369Y693162D01*
X615581Y693250D01*
X615791Y693343D01*
X615999Y693442D01*
X616089Y693475D01*
X616178Y693511D01*
X616266Y693551D01*
X616351Y693595D01*
X616435Y693642D01*
X616517Y693692D01*
X616597Y693746D01*
X616674Y693802D01*
X616750Y693862D01*
X616823Y693925D01*
X616893Y693990D01*
X616961Y694059D01*
X617025Y694130D01*
X617087Y694203D01*
X617146Y694279D01*
X617202Y694357D01*
X617255Y694438D01*
X617304Y694520D01*
X617350Y694604D01*
X617393Y694691D01*
X617432Y694778D01*
X617468Y694868D01*
X617500Y694958D01*
X617528Y695050D01*
X617553Y695143D01*
X617574Y695237D01*
X617591Y695331D01*
X617605Y695426D01*
X617614Y695522D01*
X617620Y695618D01*
X617622Y695714D01*
X617620Y695810D01*
X617614Y695906D01*
X617605Y696002D01*
X617591Y696097D01*
X617574Y696191D01*
X617553Y696285D01*
X617528Y696378D01*
X617500Y696470D01*
X617468Y696560D01*
X617432Y696650D01*
X617393Y696737D01*
X617350Y696824D01*
X617304Y696908D01*
X617255Y696990D01*
X617202Y697071D01*
X617146Y697149D01*
X617087Y697225D01*
X617025Y697298D01*
X616961Y697369D01*
X616893Y697438D01*
X616823Y697503D01*
X616750Y697566D01*
X616674Y697626D01*
X616597Y697682D01*
X616517Y697736D01*
X616435Y697786D01*
X616351Y697833D01*
X616266Y697877D01*
X616178Y697917D01*
X616089Y697953D01*
X615999Y697986D01*
X615792Y698085D01*
X615582Y698178D01*
X615369Y698266D01*
X615155Y698349D01*
X614939Y698427D01*
X614721Y698500D01*
X614501Y698568D01*
X614280Y698630D01*
X614057Y698687D01*
X613833Y698739D01*
X613608Y698785D01*
X613382Y698826D01*
X613155Y698861D01*
X612927Y698891D01*
X612698Y698916D01*
X612469Y698935D01*
X612240Y698949D01*
X612010Y698957D01*
X611780Y698960D01*
X611780Y692468D02*
X611550Y692471D01*
X611320Y692479D01*
X611091Y692493D01*
X610862Y692512D01*
X610633Y692537D01*
X610405Y692567D01*
X610178Y692602D01*
X609952Y692643D01*
X609727Y692689D01*
X609503Y692741D01*
X609280Y692798D01*
X609059Y692860D01*
X608839Y692928D01*
X608621Y693001D01*
X608405Y693079D01*
X608191Y693162D01*
X607979Y693250D01*
X607768Y693343D01*
X607561Y693442D01*
X607471Y693475D01*
X607382Y693511D01*
X607294Y693552D01*
X607209Y693595D01*
X607125Y693642D01*
X607043Y693692D01*
X606963Y693746D01*
X606886Y693802D01*
X606810Y693862D01*
X606737Y693925D01*
X606667Y693990D01*
X606599Y694059D01*
X606535Y694130D01*
X606473Y694203D01*
X606414Y694279D01*
X606358Y694357D01*
X606305Y694438D01*
X606256Y694520D01*
X606210Y694604D01*
X606167Y694691D01*
X606128Y694778D01*
X606092Y694868D01*
X606060Y694958D01*
X606032Y695050D01*
X606007Y695143D01*
X605986Y695237D01*
X605969Y695331D01*
X605955Y695426D01*
X605946Y695522D01*
X605940Y695618D01*
X605938Y695714D01*
X607561Y697985D02*
X607768Y698084D01*
X607979Y698177D01*
X608191Y698265D01*
X608405Y698348D01*
X608621Y698426D01*
X608839Y698499D01*
X609059Y698567D01*
X609280Y698629D01*
X609503Y698686D01*
X609727Y698738D01*
X609952Y698784D01*
X610178Y698825D01*
X610405Y698860D01*
X610633Y698890D01*
X610862Y698915D01*
X611091Y698934D01*
X611320Y698948D01*
X611550Y698956D01*
X611780Y698959D01*
X607561Y697986D02*
X607471Y697953D01*
X607382Y697917D01*
X607294Y697877D01*
X607209Y697833D01*
X607125Y697786D01*
X607043Y697736D01*
X606963Y697682D01*
X606886Y697626D01*
X606810Y697566D01*
X606737Y697503D01*
X606667Y697438D01*
X606599Y697369D01*
X606535Y697298D01*
X606473Y697225D01*
X606414Y697149D01*
X606358Y697071D01*
X606305Y696990D01*
X606256Y696908D01*
X606210Y696824D01*
X606167Y696737D01*
X606128Y696650D01*
X606092Y696560D01*
X606060Y696470D01*
X606032Y696378D01*
X606007Y696285D01*
X605986Y696191D01*
X605969Y696097D01*
X605955Y696002D01*
X605946Y695906D01*
X605940Y695810D01*
X605938Y695714D01*
X608534Y693117D02*
X615026Y698310D01*
X611780Y703898D02*
X612010Y703901D01*
X612240Y703909D01*
X612469Y703923D01*
X612698Y703942D01*
X612927Y703967D01*
X613154Y703997D01*
X613382Y704032D01*
X613608Y704073D01*
X613833Y704119D01*
X614057Y704171D01*
X614279Y704228D01*
X614501Y704290D01*
X614720Y704358D01*
X614938Y704431D01*
X615155Y704509D01*
X615369Y704592D01*
X615581Y704680D01*
X615791Y704773D01*
X615999Y704872D01*
X615999Y704871D02*
X616089Y704904D01*
X616178Y704940D01*
X616266Y704980D01*
X616351Y705024D01*
X616435Y705071D01*
X616517Y705121D01*
X616597Y705175D01*
X616674Y705231D01*
X616750Y705291D01*
X616823Y705354D01*
X616893Y705419D01*
X616961Y705488D01*
X617025Y705559D01*
X617087Y705632D01*
X617146Y705708D01*
X617202Y705786D01*
X617255Y705867D01*
X617304Y705949D01*
X617350Y706033D01*
X617393Y706120D01*
X617432Y706207D01*
X617468Y706297D01*
X617500Y706387D01*
X617528Y706479D01*
X617553Y706572D01*
X617574Y706666D01*
X617591Y706760D01*
X617605Y706855D01*
X617614Y706951D01*
X617620Y707047D01*
X617622Y707143D01*
X617620Y707239D01*
X617614Y707335D01*
X617605Y707431D01*
X617591Y707526D01*
X617574Y707620D01*
X617553Y707714D01*
X617528Y707807D01*
X617500Y707899D01*
X617468Y707989D01*
X617432Y708079D01*
X617393Y708166D01*
X617350Y708253D01*
X617304Y708337D01*
X617255Y708419D01*
X617202Y708500D01*
X617146Y708578D01*
X617087Y708654D01*
X617025Y708727D01*
X616961Y708798D01*
X616893Y708867D01*
X616823Y708932D01*
X616750Y708995D01*
X616674Y709055D01*
X616597Y709111D01*
X616517Y709165D01*
X616435Y709215D01*
X616351Y709262D01*
X616266Y709306D01*
X616178Y709346D01*
X616089Y709382D01*
X615999Y709415D01*
X615999Y709416D02*
X615792Y709515D01*
X615582Y709608D01*
X615369Y709696D01*
X615155Y709779D01*
X614939Y709857D01*
X614721Y709930D01*
X614501Y709998D01*
X614280Y710060D01*
X614057Y710117D01*
X613833Y710169D01*
X613608Y710215D01*
X613382Y710256D01*
X613155Y710291D01*
X612927Y710321D01*
X612698Y710346D01*
X612469Y710365D01*
X612240Y710379D01*
X612010Y710387D01*
X611780Y710390D01*
X611780Y703898D02*
X611550Y703901D01*
X611320Y703909D01*
X611091Y703923D01*
X610862Y703942D01*
X610633Y703967D01*
X610405Y703997D01*
X610178Y704032D01*
X609952Y704073D01*
X609727Y704119D01*
X609503Y704171D01*
X609280Y704228D01*
X609059Y704290D01*
X608839Y704358D01*
X608621Y704431D01*
X608405Y704509D01*
X608191Y704592D01*
X607979Y704680D01*
X607768Y704773D01*
X607561Y704872D01*
X607561Y704871D02*
X607471Y704904D01*
X607382Y704940D01*
X607294Y704981D01*
X607209Y705024D01*
X607125Y705071D01*
X607043Y705121D01*
X606963Y705175D01*
X606886Y705231D01*
X606810Y705291D01*
X606737Y705354D01*
X606667Y705419D01*
X606599Y705488D01*
X606535Y705559D01*
X606473Y705632D01*
X606414Y705708D01*
X606358Y705786D01*
X606305Y705867D01*
X606256Y705949D01*
X606210Y706033D01*
X606167Y706120D01*
X606128Y706207D01*
X606092Y706297D01*
X606060Y706387D01*
X606032Y706479D01*
X606007Y706572D01*
X605986Y706666D01*
X605969Y706760D01*
X605955Y706855D01*
X605946Y706951D01*
X605940Y707047D01*
X605938Y707143D01*
X607561Y709415D02*
X607768Y709514D01*
X607979Y709607D01*
X608191Y709695D01*
X608405Y709778D01*
X608621Y709856D01*
X608839Y709929D01*
X609059Y709997D01*
X609280Y710059D01*
X609503Y710116D01*
X609727Y710168D01*
X609952Y710214D01*
X610178Y710255D01*
X610405Y710290D01*
X610633Y710320D01*
X610862Y710345D01*
X611091Y710364D01*
X611320Y710378D01*
X611550Y710386D01*
X611780Y710389D01*
X607561Y709415D02*
X607471Y709382D01*
X607382Y709346D01*
X607294Y709306D01*
X607209Y709262D01*
X607125Y709215D01*
X607043Y709165D01*
X606963Y709111D01*
X606886Y709055D01*
X606810Y708995D01*
X606737Y708932D01*
X606667Y708867D01*
X606599Y708798D01*
X606535Y708727D01*
X606473Y708654D01*
X606414Y708578D01*
X606358Y708500D01*
X606305Y708419D01*
X606256Y708337D01*
X606210Y708253D01*
X606167Y708166D01*
X606128Y708079D01*
X606092Y707989D01*
X606060Y707899D01*
X606032Y707807D01*
X606007Y707714D01*
X605986Y707620D01*
X605969Y707526D01*
X605955Y707431D01*
X605946Y707335D01*
X605940Y707239D01*
X605938Y707143D01*
X608534Y704547D02*
X615026Y709740D01*
X605938Y715732D02*
X605938Y720924D01*
X605938Y715732D02*
X617622Y715732D01*
X617622Y720924D01*
X612429Y719626D02*
X612429Y715732D01*
X529285Y321922D02*
X529285Y310238D01*
X529285Y321922D02*
X526040Y321922D01*
X525927Y321920D01*
X525814Y321914D01*
X525701Y321904D01*
X525588Y321890D01*
X525476Y321873D01*
X525365Y321851D01*
X525255Y321826D01*
X525145Y321796D01*
X525037Y321763D01*
X524930Y321726D01*
X524824Y321686D01*
X524720Y321641D01*
X524617Y321593D01*
X524516Y321542D01*
X524417Y321487D01*
X524320Y321429D01*
X524225Y321367D01*
X524132Y321302D01*
X524042Y321234D01*
X523954Y321163D01*
X523868Y321088D01*
X523785Y321011D01*
X523705Y320931D01*
X523628Y320848D01*
X523553Y320762D01*
X523482Y320674D01*
X523414Y320584D01*
X523349Y320491D01*
X523287Y320396D01*
X523229Y320299D01*
X523174Y320200D01*
X523123Y320099D01*
X523075Y319996D01*
X523030Y319892D01*
X522990Y319786D01*
X522953Y319679D01*
X522920Y319571D01*
X522890Y319461D01*
X522865Y319351D01*
X522843Y319240D01*
X522826Y319128D01*
X522812Y319015D01*
X522802Y318902D01*
X522796Y318789D01*
X522794Y318676D01*
X522796Y318563D01*
X522802Y318450D01*
X522812Y318337D01*
X522826Y318224D01*
X522843Y318112D01*
X522865Y318001D01*
X522890Y317891D01*
X522920Y317781D01*
X522953Y317673D01*
X522990Y317566D01*
X523030Y317460D01*
X523075Y317356D01*
X523123Y317253D01*
X523174Y317152D01*
X523229Y317053D01*
X523287Y316956D01*
X523349Y316861D01*
X523414Y316768D01*
X523482Y316678D01*
X523553Y316590D01*
X523628Y316504D01*
X523705Y316421D01*
X523785Y316341D01*
X523868Y316264D01*
X523954Y316189D01*
X524042Y316118D01*
X524132Y316050D01*
X524225Y315985D01*
X524320Y315923D01*
X524417Y315865D01*
X524516Y315810D01*
X524617Y315759D01*
X524720Y315711D01*
X524824Y315666D01*
X524930Y315626D01*
X525037Y315589D01*
X525145Y315556D01*
X525255Y315526D01*
X525365Y315501D01*
X525476Y315479D01*
X525588Y315462D01*
X525701Y315448D01*
X525814Y315438D01*
X525927Y315432D01*
X526040Y315430D01*
X526040Y315431D02*
X529285Y315431D01*
X525391Y315431D02*
X522794Y310238D01*
X517929Y319326D02*
X514684Y321922D01*
X514684Y310238D01*
X517929Y310238D02*
X511438Y310238D01*
X506499Y319326D02*
X503254Y321922D01*
X503254Y310238D01*
X506499Y310238D02*
X500008Y310238D01*
D10*
X108700Y838750D02*
X108700Y876850D01*
M02*
