G04 EAGLE Gerber RS-274X export*
G75*
%MOMM*%
%FSLAX34Y34*%
%LPD*%
%INSolderpaste Top*%
%IPPOS*%
%AMOC8*
5,1,8,0,0,1.08239X$1,22.5*%
G01*
%ADD10R,1.600000X1.800000*%
%ADD11R,1.800000X1.600000*%
%ADD12R,1.270000X2.160000*%
%ADD13R,6.200000X5.400000*%
%ADD14R,1.600000X1.000000*%
%ADD15R,1.200000X0.650000*%
%ADD16R,0.500000X0.700000*%
%ADD17R,4.500000X4.700000*%
%ADD18R,2.000000X1.600000*%
%ADD19R,1.600000X2.000000*%
%ADD20R,2.950000X1.000000*%
%ADD21R,1.397000X0.279400*%


D10*
X208700Y480400D03*
X180700Y480400D03*
D11*
X290400Y481200D03*
X290400Y509200D03*
D10*
X209200Y509400D03*
X181200Y509400D03*
D12*
X712500Y360000D03*
X649100Y360000D03*
X744400Y860000D03*
X681000Y860000D03*
D13*
X249500Y641200D03*
D14*
X322500Y618400D03*
X322500Y664000D03*
D15*
X322800Y361650D03*
X322800Y348950D03*
X322800Y336250D03*
X322800Y323550D03*
D16*
X382800Y322600D03*
X382800Y335950D03*
X382800Y349250D03*
X382800Y362600D03*
D17*
X357800Y342600D03*
D18*
X261600Y509000D03*
X261600Y481000D03*
X252400Y381200D03*
X252400Y409200D03*
D19*
X341800Y461600D03*
X369800Y461600D03*
X341600Y420100D03*
X369600Y420100D03*
D18*
X287900Y381800D03*
X287900Y409800D03*
X139400Y790800D03*
X139400Y762800D03*
D20*
X615250Y361600D03*
X615250Y386600D03*
X615250Y411600D03*
X615250Y436600D03*
X615250Y461600D03*
X615250Y486600D03*
X415750Y486600D03*
X415750Y461600D03*
X415750Y436600D03*
X415750Y411600D03*
X415750Y386600D03*
X415750Y361600D03*
D21*
X253956Y452706D03*
X253956Y447880D03*
X253956Y442800D03*
X253956Y437720D03*
X253956Y432894D03*
X297644Y432894D03*
X297644Y437720D03*
X297644Y442800D03*
X297644Y447880D03*
X297644Y452706D03*
D18*
X141300Y846800D03*
X141300Y874800D03*
D11*
X201000Y731000D03*
X201000Y703000D03*
X253000Y732000D03*
X253000Y704000D03*
D19*
X180680Y445530D03*
X208680Y445530D03*
M02*
