G04 EAGLE Gerber RS-274X export*
G75*
%MOMM*%
%FSLAX34Y34*%
%LPD*%
%INSoldermask Bottom*%
%IPPOS*%
%AMOC8*
5,1,8,0,0,1.08239X$1,22.5*%
G01*
%ADD10C,3.403200*%
%ADD11P,1.951982X8X112.500000*%
%ADD12C,1.803400*%
%ADD13C,4.800600*%
%ADD14P,5.196121X8X292.500000*%
%ADD15C,2.082800*%
%ADD16C,1.524000*%
%ADD17R,2.203200X1.219200*%
%ADD18R,2.203200X1.473200*%
%ADD19R,2.633200X2.633200*%
%ADD20C,2.633200*%
%ADD21R,2.203200X1.803200*%
%ADD22P,1.649562X8X112.500000*%
%ADD23P,1.649562X8X292.500000*%
%ADD24P,3.477827X8X22.500000*%
%ADD25C,1.993900*%
%ADD26C,1.727200*%
%ADD27P,6.731600X8X292.500000*%
%ADD28C,1.109600*%


D10*
X27660Y889370D03*
X512387Y75888D03*
X77506Y510770D03*
X609599Y557232D03*
X710208Y783751D03*
X178599Y922232D03*
X609599Y922232D03*
X178599Y557232D03*
D11*
X533900Y580800D03*
D12*
X533900Y555400D03*
D11*
X474900Y580900D03*
D12*
X474900Y555500D03*
D11*
X415900Y580000D03*
D12*
X415900Y554600D03*
D13*
X673100Y220900D03*
D14*
X673100Y119300D03*
D15*
X71000Y780500D03*
X96400Y780500D03*
D16*
X394700Y192400D03*
X394700Y217800D03*
X318500Y217800D03*
X318500Y192400D03*
X394700Y243200D03*
X394700Y268600D03*
X318500Y243200D03*
X318500Y268600D03*
D17*
X559800Y493300D03*
D18*
X559800Y467900D03*
X559800Y442500D03*
D17*
X559800Y417100D03*
X470800Y417100D03*
D18*
X470800Y442500D03*
X470800Y467900D03*
D17*
X470800Y493300D03*
D19*
X709600Y713700D03*
D20*
X709600Y659200D03*
X709600Y604700D03*
D21*
X649400Y713700D03*
X649400Y685700D03*
X516400Y365200D03*
X516400Y337200D03*
D22*
X430100Y178100D03*
X430100Y279700D03*
D23*
X459900Y278900D03*
X459900Y177300D03*
D24*
X83624Y604568D03*
X83624Y644700D03*
X83624Y684832D03*
X131376Y684832D03*
X131376Y644700D03*
X131376Y604568D03*
D25*
X687400Y919797D02*
X687400Y937704D01*
X738200Y937704D02*
X738200Y919797D01*
D26*
X201600Y780220D02*
X201600Y764980D01*
X227000Y764980D02*
X227000Y780220D01*
X252400Y780220D02*
X252400Y764980D01*
D15*
X70600Y857800D03*
X96000Y857800D03*
D26*
X137100Y948380D02*
X137100Y963620D01*
X111700Y963620D02*
X111700Y948380D01*
X86300Y948380D02*
X86300Y963620D01*
X60900Y963620D02*
X60900Y948380D01*
D25*
X539400Y937304D02*
X539400Y919397D01*
X488600Y919397D02*
X488600Y937304D01*
X433400Y936304D02*
X433400Y918397D01*
X382600Y918397D02*
X382600Y936304D01*
X327400Y936304D02*
X327400Y918397D01*
X276600Y918397D02*
X276600Y936304D01*
D26*
X516180Y835100D02*
X531420Y835100D01*
X531420Y809700D02*
X516180Y809700D01*
X516180Y784300D02*
X531420Y784300D01*
X531420Y758900D02*
X516180Y758900D01*
X516180Y733500D02*
X531420Y733500D01*
X531420Y708100D02*
X516180Y708100D01*
X403620Y835500D02*
X388380Y835500D01*
X388380Y810100D02*
X403620Y810100D01*
X403620Y784700D02*
X388380Y784700D01*
X388380Y759300D02*
X403620Y759300D01*
X403620Y733900D02*
X388380Y733900D01*
X388380Y708500D02*
X403620Y708500D01*
D27*
X701300Y511000D03*
X701300Y441000D03*
D26*
X615580Y757890D02*
X600340Y757890D01*
X600340Y783290D02*
X615580Y783290D01*
X615580Y808690D02*
X600340Y808690D01*
X600340Y834090D02*
X615580Y834090D01*
X214264Y326497D02*
X202589Y316701D01*
X186263Y336158D02*
X197937Y345954D01*
X181610Y365412D02*
X169936Y355616D01*
X218916Y297243D02*
X230591Y307039D01*
X246917Y287582D02*
X235243Y277786D01*
X251570Y258328D02*
X263244Y268124D01*
D28*
X295100Y361700D03*
X162000Y761800D03*
X470000Y300000D03*
M02*
