M48
;GenerationSoftware,Autodesk,EAGLE,9.5.1*%
;CreationDate,2020-06-26T06:12:32Z*%
FMAT,2
ICI,OFF
METRIC,TZ,000.000
T15C0.400
T14C0.800
T13C0.813
T12C0.965
T11C1.000
T10C1.016
T9C1.118
T8C1.194
T7C1.321
T6C1.620
T5C1.700
T4C2.000
T3C2.007
T2C3.200
T1C5.000
%
G90
M71
T1
X144557Y48916
X151557Y48916
X159723Y107197
X159723Y100197
T2
X162370Y56090
X150484Y111440
X113908Y111440
X29578Y111487
X61340Y12602
X17851Y56090
X29578Y68307
X12867Y93950
X118882Y12602
X150484Y68260
X167354Y93950
X66154Y111487
T3
X83357Y99331
X87370Y99331
X55828Y26410
X48644Y33594
X83357Y94555
X87370Y94555
X91383Y94555
X91383Y99331
T4
X45645Y59970
T5
X150967Y60709
X150967Y56749
X88464Y109500
X84504Y109500
T6
X74723Y88973
X74723Y83523
X74723Y78073
T7
X119032Y79308
X141536Y79308
T8
X23071Y103460
X108140Y108865
X60528Y108865
X119458Y108865
X144858Y108865
X139778Y108865
X134698Y108865
X103060Y108865
X124538Y108865
X17991Y103460
X129618Y108865
X40208Y108865
X55448Y108865
X145362Y35239
X145362Y40319
X50368Y108865
X45288Y108865
X35128Y108865
T9
X26967Y97554
X16807Y97554
X126813Y85846
X136973Y85846
T10
X134692Y94430
X132152Y94430
X104000Y52905
X104000Y55445
X104000Y57985
X104000Y37598
X104000Y35058
X104000Y32518
X104000Y40138
X129612Y94430
X138534Y68868
X135994Y68868
X133454Y68868
X103303Y78642
X103303Y76102
X103303Y73562
X128374Y68868
X130914Y68868
X159000Y91350
X159000Y88810
X159000Y86270
X159000Y83730
X159000Y81190
X159000Y78650
X147000Y91350
X147000Y88810
X147000Y86270
X147000Y83730
X147000Y81190
X147000Y78650
X33000Y88350
X33000Y85810
X33000Y83270
X33000Y80730
X33000Y78190
X54212Y68951
X33000Y75650
X21000Y88350
X21000Y85810
X21000Y83270
X21000Y80730
X21000Y78190
X21000Y75650
X51672Y68951
X49132Y68951
X41512Y68951
X44052Y68951
X129613Y98856
X132153Y98856
X134693Y98856
X46592Y68951
X125834Y68868
X109677Y72491
X112217Y72491
X114757Y72491
X25041Y53987
X25041Y51447
X70775Y37410
X70775Y39950
X75290Y31125
X75290Y28585
X73865Y69270
X73865Y71810
X156115Y73470
X158655Y73470
X161195Y73470
X155955Y66675
X158495Y66675
X161035Y66675
X30086Y39159
X28290Y40955
X26494Y42751
T11
X54105Y56920
X38000Y31000
T12
X82596Y9663
X97836Y7123
X82596Y7123
X97836Y42683
X82596Y42683
X97836Y45223
X97836Y47763
X97836Y50303
X97836Y52843
X97836Y55383
X97836Y57923
X97836Y60463
X97836Y63003
X97836Y65543
X82596Y65543
X82596Y63003
X82596Y60463
X82596Y57923
X82596Y55383
X82596Y52843
X82596Y50303
X82596Y47763
X82596Y45223
X85136Y14743
X85136Y17283
X85136Y19823
X82596Y24903
X97836Y12203
X97836Y14743
X97836Y17283
X97836Y19823
X97836Y22363
X97836Y24903
X97836Y27443
X97836Y29983
X97836Y32523
X97836Y35063
X97836Y37603
X97836Y40143
X82596Y40143
X82596Y37603
X82596Y35063
X82596Y32523
X82596Y29983
X82596Y27443
X85136Y9663
X82596Y22363
X82596Y19823
X82596Y17283
X82596Y14743
X97836Y9663
X82596Y12203
T13
X74892Y10119
X96593Y110770
X75558Y108230
X75558Y110770
X65070Y83800
X65070Y77800
X62530Y77800
X114070Y80196
X62530Y71800
X111530Y80196
X114070Y87903
X111530Y87903
X67272Y10119
X69812Y10119
X67272Y17739
X69812Y17739
X65070Y71800
X72352Y10119
X72352Y17739
X74892Y17739
X96593Y108230
X62530Y83800
T14
X111313Y33956
X111313Y36496
X111313Y39036
X111313Y41576
X111313Y44116
X111313Y46656
X111313Y51736
X111313Y54276
X111313Y56816
X111313Y49196
X111313Y28876
X111313Y31416
X134173Y49196
X84635Y79932
X84635Y77392
X84635Y82472
X84635Y85012
X84635Y87552
X84635Y74852
X84635Y72312
X84635Y69772
X134173Y21256
X134173Y23796
X134173Y26336
X134173Y28876
X134173Y31416
X134173Y33956
X134173Y36496
X134173Y39036
X134173Y41576
X134173Y44116
X134173Y46656
X134173Y51736
X134173Y54276
X134173Y56816
X111313Y21256
X111313Y23796
X111313Y26336
T15
X58912Y74619
X45121Y75088
X77510Y60465
X64260Y95105
M30