M48
;GenerationSoftware,Autodesk,EAGLE,9.5.2*%
;CreationDate,2019-12-18T06:33:14Z*%
FMAT,2
ICI,OFF
METRIC,TZ,000.000
T11C0.400
T10C0.800
T9C0.813
T8C0.965
T7C1.016
T6C1.118
T5C1.194
T4C1.321
T3C2.007
T2C3.200
T1C5.000
%
G90
M71
T1
X47226Y21680
X43211Y27414
T2
X60644Y55519
X7483Y78171
X60644Y92019
X70753Y50873
X27265Y7385
X17544Y92019
X75738Y88733
T3
X54101Y29624
X50724Y33001
X53562Y35838
X56399Y38676
X59776Y35299
X56938Y32462
T4
X39630Y35348
X39630Y57852
T5
X4910Y93525
X29900Y93725
X9990Y93525
X35880Y93725
X40960Y93725
X40745Y17387
X36584Y14473
X46750Y93725
X51830Y93725
X24820Y93725
T6
X56010Y47710
X56010Y57870
T7
X24830Y87110
X22290Y87110
X19750Y87110
X17210Y87110
X48280Y87690
X50820Y87690
X53360Y87690
X55900Y87690
X58440Y87690
X60980Y87690
X17690Y80040
X25310Y80040
X22770Y80040
X28300Y16940
X28620Y27620
X28620Y30160
X28620Y32700
X28620Y25080
X28620Y22540
X8400Y6380
X10940Y6380
X13480Y6380
X5860Y6380
X3320Y6380
X20230Y80040
X50600Y52410
X50600Y49870
X66800Y44210
X65530Y42010
X64260Y39810
X29910Y87110
X27370Y87110
X50600Y54950
X15150Y80040
X12610Y80040
X29700Y42970
X29700Y40430
X29700Y37890
X29700Y45510
X28300Y11860
X28300Y14400
T8
X23930Y37740
X23930Y40280
X23930Y42820
X23930Y45360
X8690Y45360
X8690Y42820
X8690Y40280
X8690Y37740
X8690Y35200
X8690Y32660
X8690Y30120
X8690Y27580
X8690Y25040
X8690Y22500
X8690Y19960
X23930Y14880
X8690Y17420
X8690Y14880
X23930Y12340
X8690Y12340
X23930Y47900
X8690Y47900
X23930Y50440
X23930Y52980
X23930Y55520
X23930Y58060
X23930Y60600
X23930Y63140
X23930Y65680
X23930Y68220
X23930Y70760
X8690Y70760
X8690Y68220
X8690Y65680
X8690Y63140
X8690Y60600
X8690Y58060
X8690Y55520
X8690Y52980
X8690Y50440
X11230Y14880
X11230Y19960
X11230Y22500
X11230Y25040
X23930Y17420
X23930Y19960
X23930Y22500
X23930Y25040
X23930Y27580
X23930Y30120
X23930Y32660
X23930Y35200
T9
X72190Y94330
X72190Y96870
X66170Y54920
X66170Y57460
X31140Y55510
X28600Y55510
T10
X74080Y61600
X38520Y84460
X41060Y84460
X43600Y84460
X46140Y84460
X48680Y84460
X51220Y84460
X53760Y84460
X56300Y84460
X58840Y84460
X61380Y84460
X63920Y84460
X66460Y84460
X69000Y84460
X71540Y84460
X74080Y84460
X2860Y38600
X2860Y36060
X2860Y41140
X69000Y61600
X2860Y46220
X2860Y33520
X2860Y30980
X2860Y28440
X58840Y61600
X61380Y61600
X63920Y61600
X66460Y61600
X71540Y61600
X46140Y61600
X38520Y61600
X41060Y61600
X43600Y61600
X2860Y43680
X48680Y61600
X51220Y61600
X53760Y61600
X56300Y61600
T11
X3300Y75600
X64200Y72700
X40000Y80000
M30