G04 EAGLE Gerber RS-274X export*
G75*
%MOMM*%
%FSLAX34Y34*%
%LPD*%
%IN*%
%IPPOS*%
%AMOC8*
5,1,8,0,0,1.08239X$1,22.5*%
G01*
%ADD10C,0.001000*%
%ADD11C,0.000000*%


D10*
X773793Y929524D02*
X771197Y944090D01*
X768332Y958605D01*
X765199Y973065D01*
X765200Y973065D02*
X765029Y973781D01*
X764840Y974491D01*
X764634Y975197D01*
X764411Y975898D01*
X764170Y976593D01*
X763913Y977282D01*
X763639Y977964D01*
X763348Y978640D01*
X763041Y979308D01*
X762718Y979968D01*
X762378Y980620D01*
X762023Y981264D01*
X761652Y981899D01*
X761265Y982524D01*
X760863Y983140D01*
X760446Y983746D01*
X760015Y984342D01*
X759569Y984926D01*
X759109Y985500D01*
X758635Y986062D01*
X758147Y986612D01*
X757646Y987151D01*
X757132Y987676D01*
X756605Y988189D01*
X756066Y988689D01*
X755515Y989176D01*
X754951Y989649D01*
X754377Y990108D01*
X753791Y990553D01*
X753195Y990983D01*
X752588Y991399D01*
X751972Y991799D01*
X751345Y992184D01*
X750710Y992554D01*
X750065Y992908D01*
X749412Y993247D01*
X748751Y993569D01*
X748083Y993875D01*
X747407Y994164D01*
X746724Y994437D01*
X746034Y994693D01*
X745339Y994932D01*
X744638Y995153D01*
X743931Y995358D01*
X743220Y995545D01*
X742505Y995715D01*
X741785Y995867D01*
X741062Y996001D01*
X740336Y996118D01*
X739608Y996217D01*
X738877Y996298D01*
X738144Y996361D01*
X737410Y996406D01*
X736675Y996433D01*
X735940Y996442D01*
X773794Y929524D02*
X774760Y929650D01*
X775729Y929753D01*
X776701Y929832D01*
X777674Y929887D01*
X778648Y929919D01*
X779622Y929927D01*
X780597Y929911D01*
X781570Y929871D01*
X782543Y929808D01*
X783513Y929721D01*
X784482Y929611D01*
X785447Y929476D01*
X786408Y929319D01*
X787366Y929138D01*
X788319Y928934D01*
X789267Y928706D01*
X790208Y928456D01*
X791144Y928183D01*
X792072Y927887D01*
X792993Y927568D01*
X793906Y927227D01*
X794811Y926864D01*
X795706Y926479D01*
X796591Y926073D01*
X797467Y925645D01*
X798332Y925195D01*
X799185Y924725D01*
X800027Y924234D01*
X800857Y923723D01*
X801674Y923192D01*
X802477Y922641D01*
X803268Y922070D01*
X804044Y921481D01*
X804805Y920873D01*
X805551Y920246D01*
X806282Y919601D01*
X806997Y918939D01*
X807696Y918260D01*
X808377Y917564D01*
X809042Y916851D01*
X809689Y916122D01*
X810318Y915378D01*
X810929Y914619D01*
X811521Y913845D01*
X812095Y913057D01*
X812648Y912255D01*
X813182Y911440D01*
X813697Y910612D01*
X814190Y909772D01*
X814663Y908920D01*
X815116Y908056D01*
X815547Y907182D01*
X815956Y906298D01*
X816344Y905404D01*
X816710Y904501D01*
X817054Y903589D01*
X817376Y902669D01*
X817675Y901742D01*
X817952Y900808D01*
X818205Y899867D01*
X818436Y898920D01*
X818644Y897968D01*
X818828Y897011D01*
X818989Y896050D01*
X819126Y895085D01*
X819240Y894117D01*
X819330Y893147D01*
X819397Y892174D01*
X819440Y891201D01*
X819459Y890227D01*
X819454Y889252D01*
X819426Y888278D01*
X819374Y887305D01*
X819298Y886333D01*
X819199Y885364D01*
X819076Y884397D01*
X818929Y883434D01*
X818760Y882474D01*
X818566Y881519D01*
X818350Y880569D01*
X818110Y879624D01*
X817848Y878686D01*
X817563Y877754D01*
X817255Y876829D01*
X816925Y875912D01*
X816572Y875004D01*
X816197Y874104D01*
X815801Y873214D01*
X815383Y872334D01*
X814944Y871464D01*
X814484Y870605D01*
X814002Y869757D01*
X813501Y868922D01*
X812979Y868099D01*
X812437Y867289D01*
X811876Y866492D01*
X811296Y865709D01*
X810696Y864941D01*
X810078Y864187D01*
X809442Y863449D01*
X808788Y862727D01*
X808117Y862020D01*
X807429Y861330D01*
X806724Y860658D01*
X806002Y860002D01*
X805266Y859364D01*
X804513Y858745D01*
X803746Y858144D01*
X802965Y857562D01*
X802169Y856999D01*
X801361Y856455D01*
X800539Y855932D01*
X799704Y855428D01*
X798858Y854945D01*
X798000Y854483D01*
X797131Y854042D01*
X796251Y853622D01*
X795362Y853224D01*
X794463Y852847D01*
X793555Y852493D01*
X792639Y852161D01*
X791715Y851851D01*
X790784Y851563D01*
X789846Y851299D01*
X788902Y851057D01*
X787952Y850839D01*
X786998Y850644D01*
X786038Y850472D01*
X785075Y850323D01*
X784109Y850198D01*
X783140Y850097D01*
X783139Y850097D02*
X784172Y831489D01*
X784771Y812862D01*
X784937Y794226D01*
X784668Y775592D01*
X783966Y756968D01*
X782829Y738366D01*
X781260Y719796D01*
X779258Y701267D01*
X776826Y682790D01*
X773963Y664374D01*
X770673Y646030D01*
X766956Y627768D01*
X762815Y609597D01*
X758251Y591528D01*
X753268Y573570D01*
X747868Y555733D01*
X742054Y538026D01*
X742964Y537677D01*
X743865Y537306D01*
X744757Y536913D01*
X745639Y536499D01*
X746511Y536063D01*
X747372Y535606D01*
X748221Y535129D01*
X749059Y534630D01*
X749884Y534112D01*
X750696Y533574D01*
X751495Y533015D01*
X752280Y532438D01*
X753051Y531842D01*
X753807Y531227D01*
X754548Y530594D01*
X755273Y529943D01*
X755982Y529274D01*
X756674Y528589D01*
X757350Y527887D01*
X758008Y527168D01*
X758649Y526434D01*
X759272Y525684D01*
X759876Y524919D01*
X760461Y524140D01*
X761027Y523347D01*
X761574Y522540D01*
X762101Y521721D01*
X762608Y520888D01*
X763094Y520044D01*
X763560Y519188D01*
X764004Y518321D01*
X764428Y517443D01*
X764830Y516555D01*
X765210Y515658D01*
X765568Y514751D01*
X765904Y513837D01*
X766218Y512914D01*
X766509Y511984D01*
X766777Y511047D01*
X767022Y510104D01*
X767244Y509155D01*
X767444Y508201D01*
X767619Y507243D01*
X767772Y506280D01*
X767901Y505314D01*
X768006Y504345D01*
X768088Y503374D01*
X768146Y502402D01*
X768180Y501428D01*
X768191Y500453D01*
X768178Y499479D01*
X768141Y498505D01*
X768080Y497532D01*
X767996Y496562D01*
X767888Y495593D01*
X767757Y494627D01*
X767602Y493665D01*
X767424Y492707D01*
X767222Y491754D01*
X766997Y490806D01*
X766749Y489863D01*
X766479Y488927D01*
X766185Y487998D01*
X765869Y487076D01*
X765531Y486162D01*
X765171Y485257D01*
X764788Y484360D01*
X764384Y483473D01*
X763958Y482597D01*
X763511Y481731D01*
X763044Y480876D01*
X762555Y480033D01*
X762046Y479202D01*
X761517Y478383D01*
X760968Y477578D01*
X760400Y476786D01*
X759813Y476009D01*
X759207Y475246D01*
X758582Y474498D01*
X757939Y473765D01*
X757279Y473048D01*
X756602Y472348D01*
X755907Y471664D01*
X755196Y470997D01*
X754470Y470348D01*
X753727Y469717D01*
X752970Y469104D01*
X752197Y468510D01*
X751411Y467934D01*
X750610Y467378D01*
X749797Y466842D01*
X748970Y466326D01*
X748131Y465830D01*
X747281Y465354D01*
X746419Y464900D01*
X745546Y464466D01*
X744663Y464054D01*
X743770Y463664D01*
X742868Y463295D01*
X741957Y462948D01*
X741038Y462624D01*
X740111Y462323D01*
X739178Y462043D01*
X738238Y461787D01*
X737291Y461554D01*
X736340Y461344D01*
X735383Y461157D01*
X734423Y460993D01*
X733458Y460853D01*
X732491Y460737D01*
X731521Y460644D01*
X730549Y460575D01*
X729575Y460529D01*
X728601Y460507D01*
X727626Y460509D01*
X726652Y460535D01*
X725679Y460584D01*
X724707Y460657D01*
X723738Y460754D01*
X722771Y460874D01*
X721807Y461018D01*
X720847Y461185D01*
X719891Y461376D01*
X718940Y461589D01*
X717995Y461826D01*
X717056Y462086D01*
X716123Y462369D01*
X715198Y462674D01*
X714280Y463002D01*
X713370Y463352D01*
X712470Y463724D01*
X712469Y463724D02*
X704358Y446530D01*
X695840Y429534D01*
X686921Y412745D01*
X677605Y396173D01*
X667898Y379826D01*
X657805Y363715D01*
X647333Y347849D01*
X636486Y332235D01*
X625271Y316884D01*
X613695Y301804D01*
X601764Y287003D01*
X589484Y272489D01*
X576863Y258272D01*
X563908Y244358D01*
X550625Y230757D01*
X537024Y217474D01*
X523110Y204519D01*
X508893Y191898D01*
X494379Y179618D01*
X479578Y167687D01*
X464498Y156111D01*
X449147Y144896D01*
X433533Y134049D01*
X417667Y123577D01*
X401556Y113484D01*
X385209Y103777D01*
X368637Y94461D01*
X351848Y85542D01*
X334852Y77024D01*
X317658Y68913D01*
X317658Y68912D02*
X318030Y68012D01*
X318380Y67102D01*
X318708Y66184D01*
X319013Y65259D01*
X319296Y64326D01*
X319556Y63387D01*
X319793Y62442D01*
X320006Y61491D01*
X320197Y60535D01*
X320364Y59575D01*
X320508Y58611D01*
X320628Y57644D01*
X320725Y56675D01*
X320798Y55703D01*
X320847Y54730D01*
X320873Y53755D01*
X320875Y52781D01*
X320853Y51807D01*
X320807Y50833D01*
X320738Y49861D01*
X320645Y48891D01*
X320529Y47924D01*
X320389Y46959D01*
X320225Y45999D01*
X320038Y45042D01*
X319828Y44091D01*
X319595Y43144D01*
X319339Y42204D01*
X319059Y41270D01*
X318758Y40344D01*
X318434Y39425D01*
X318087Y38514D01*
X317718Y37612D01*
X317328Y36719D01*
X316916Y35836D01*
X316482Y34963D01*
X316028Y34101D01*
X315552Y33251D01*
X315056Y32412D01*
X314540Y31585D01*
X314004Y30772D01*
X313448Y29971D01*
X312872Y29185D01*
X312278Y28412D01*
X311665Y27655D01*
X311034Y26912D01*
X310385Y26185D01*
X309718Y25475D01*
X309034Y24780D01*
X308334Y24103D01*
X307617Y23443D01*
X306884Y22800D01*
X306136Y22175D01*
X305373Y21569D01*
X304596Y20982D01*
X303804Y20414D01*
X302999Y19865D01*
X302180Y19336D01*
X301349Y18827D01*
X300506Y18338D01*
X299651Y17871D01*
X298785Y17424D01*
X297908Y16998D01*
X297022Y16594D01*
X296125Y16211D01*
X295220Y15851D01*
X294306Y15513D01*
X293384Y15197D01*
X292455Y14903D01*
X291519Y14633D01*
X290576Y14385D01*
X289628Y14160D01*
X288675Y13958D01*
X287717Y13780D01*
X286755Y13625D01*
X285789Y13494D01*
X284820Y13386D01*
X283850Y13302D01*
X282877Y13241D01*
X281903Y13204D01*
X280929Y13191D01*
X279954Y13202D01*
X278980Y13236D01*
X278008Y13294D01*
X277036Y13376D01*
X276068Y13481D01*
X275102Y13610D01*
X274139Y13763D01*
X273181Y13938D01*
X272227Y14138D01*
X271278Y14360D01*
X270335Y14605D01*
X269398Y14873D01*
X268468Y15164D01*
X267545Y15478D01*
X266630Y15814D01*
X265724Y16172D01*
X264827Y16552D01*
X263939Y16954D01*
X263061Y17378D01*
X262194Y17822D01*
X261338Y18288D01*
X260494Y18774D01*
X259661Y19281D01*
X258841Y19808D01*
X258035Y20355D01*
X257242Y20921D01*
X256462Y21506D01*
X255698Y22110D01*
X254948Y22733D01*
X254214Y23374D01*
X253495Y24032D01*
X252793Y24708D01*
X252108Y25400D01*
X251439Y26109D01*
X250788Y26835D01*
X250155Y27575D01*
X249540Y28331D01*
X248944Y29102D01*
X248366Y29887D01*
X247808Y30686D01*
X247270Y31498D01*
X246752Y32323D01*
X246253Y33161D01*
X245776Y34010D01*
X245319Y34871D01*
X244883Y35743D01*
X244469Y36625D01*
X244076Y37517D01*
X243705Y38418D01*
X243356Y39328D01*
X226229Y33697D01*
X208979Y28453D01*
X191615Y23600D01*
X174147Y19138D01*
X156582Y15072D01*
X138930Y11403D01*
X121200Y8132D01*
X103401Y5261D01*
X85542Y2793D01*
X67631Y727D01*
X49679Y-934D01*
X31693Y-2191D01*
X30964Y-2225D01*
X30235Y-2241D01*
X29506Y-2239D01*
X28776Y-2219D01*
X28048Y-2182D01*
X27320Y-2127D01*
X26595Y-2055D01*
X25871Y-1965D01*
X25149Y-1857D01*
X24430Y-1732D01*
X23715Y-1589D01*
X23003Y-1429D01*
X22296Y-1252D01*
X21593Y-1057D01*
X20894Y-846D01*
X20202Y-617D01*
X19514Y-372D01*
X18834Y-110D01*
X18159Y168D01*
X17492Y463D01*
X16832Y773D01*
X16180Y1100D01*
X15535Y1442D01*
X14900Y1800D01*
X14273Y2174D01*
X13656Y2562D01*
X13048Y2966D01*
X12450Y3384D01*
X11863Y3816D01*
X11286Y4263D01*
X10720Y4723D01*
X10166Y5198D01*
X9623Y5685D01*
X9092Y6186D01*
X8574Y6699D01*
X8068Y7225D01*
X7575Y7763D01*
X7096Y8312D01*
X6630Y8873D01*
X6177Y9446D01*
X5739Y10029D01*
X5315Y10623D01*
X4906Y11227D01*
X4511Y11840D01*
X4132Y12463D01*
X3767Y13095D01*
X3419Y13736D01*
X3086Y14385D01*
X2768Y15042D01*
X2467Y15706D01*
X2182Y16378D01*
X1914Y17056D01*
X1662Y17741D01*
X1427Y18431D01*
X1208Y19127D01*
X1007Y19829D01*
X823Y20534D01*
X656Y21245D01*
X506Y21959D01*
X374Y22676D01*
X259Y23396D01*
X161Y24119D01*
X82Y24845D01*
X20Y25571D01*
X-25Y26300D01*
X-51Y27029D01*
X-60Y27758D01*
X-60Y966442D01*
X-59Y966442D02*
X-50Y967167D01*
X-24Y967891D01*
X20Y968615D01*
X81Y969337D01*
X160Y970058D01*
X256Y970777D01*
X369Y971493D01*
X500Y972206D01*
X648Y972916D01*
X813Y973621D01*
X995Y974323D01*
X1194Y975020D01*
X1409Y975713D01*
X1642Y976399D01*
X1891Y977080D01*
X2156Y977755D01*
X2437Y978423D01*
X2735Y979084D01*
X3048Y979738D01*
X3377Y980384D01*
X3722Y981022D01*
X4082Y981651D01*
X4457Y982271D01*
X4847Y982882D01*
X5251Y983484D01*
X5670Y984076D01*
X6104Y984657D01*
X6551Y985228D01*
X7012Y985787D01*
X7486Y986336D01*
X7973Y986872D01*
X8473Y987397D01*
X8986Y987910D01*
X9511Y988410D01*
X10047Y988897D01*
X10596Y989371D01*
X11155Y989832D01*
X11726Y990279D01*
X12307Y990713D01*
X12899Y991132D01*
X13501Y991536D01*
X14112Y991926D01*
X14732Y992301D01*
X15361Y992661D01*
X15999Y993006D01*
X16645Y993335D01*
X17299Y993648D01*
X17960Y993946D01*
X18628Y994227D01*
X19303Y994492D01*
X19984Y994741D01*
X20670Y994974D01*
X21363Y995189D01*
X22060Y995388D01*
X22762Y995570D01*
X23467Y995735D01*
X24177Y995883D01*
X24890Y996014D01*
X25606Y996127D01*
X26325Y996223D01*
X27046Y996302D01*
X27768Y996363D01*
X28492Y996407D01*
X29216Y996433D01*
X29941Y996442D01*
X735940Y996442D01*
D11*
X58830Y781711D02*
X58835Y782104D01*
X58849Y782496D01*
X58873Y782888D01*
X58907Y783279D01*
X58950Y783670D01*
X59003Y784059D01*
X59066Y784446D01*
X59137Y784832D01*
X59219Y785217D01*
X59309Y785599D01*
X59410Y785978D01*
X59519Y786356D01*
X59638Y786730D01*
X59765Y787101D01*
X59902Y787469D01*
X60048Y787834D01*
X60203Y788195D01*
X60366Y788552D01*
X60538Y788905D01*
X60719Y789253D01*
X60909Y789597D01*
X61106Y789937D01*
X61312Y790271D01*
X61526Y790600D01*
X61749Y790924D01*
X61979Y791242D01*
X62216Y791555D01*
X62462Y791861D01*
X62715Y792162D01*
X62975Y792456D01*
X63242Y792744D01*
X63516Y793025D01*
X63797Y793299D01*
X64085Y793566D01*
X64379Y793826D01*
X64680Y794079D01*
X64986Y794325D01*
X65299Y794562D01*
X65617Y794792D01*
X65941Y795015D01*
X66270Y795229D01*
X66604Y795435D01*
X66944Y795632D01*
X67288Y795822D01*
X67636Y796003D01*
X67989Y796175D01*
X68346Y796338D01*
X68707Y796493D01*
X69072Y796639D01*
X69440Y796776D01*
X69811Y796903D01*
X70185Y797022D01*
X70563Y797131D01*
X70942Y797232D01*
X71324Y797322D01*
X71709Y797404D01*
X72095Y797475D01*
X72482Y797538D01*
X72871Y797591D01*
X73262Y797634D01*
X73653Y797668D01*
X74045Y797692D01*
X74437Y797706D01*
X74830Y797711D01*
X75223Y797706D01*
X75615Y797692D01*
X76007Y797668D01*
X76398Y797634D01*
X76789Y797591D01*
X77178Y797538D01*
X77565Y797475D01*
X77951Y797404D01*
X78336Y797322D01*
X78718Y797232D01*
X79097Y797131D01*
X79475Y797022D01*
X79849Y796903D01*
X80220Y796776D01*
X80588Y796639D01*
X80953Y796493D01*
X81314Y796338D01*
X81671Y796175D01*
X82024Y796003D01*
X82372Y795822D01*
X82716Y795632D01*
X83056Y795435D01*
X83390Y795229D01*
X83719Y795015D01*
X84043Y794792D01*
X84361Y794562D01*
X84674Y794325D01*
X84980Y794079D01*
X85281Y793826D01*
X85575Y793566D01*
X85863Y793299D01*
X86144Y793025D01*
X86418Y792744D01*
X86685Y792456D01*
X86945Y792162D01*
X87198Y791861D01*
X87444Y791555D01*
X87681Y791242D01*
X87911Y790924D01*
X88134Y790600D01*
X88348Y790271D01*
X88554Y789937D01*
X88751Y789597D01*
X88941Y789253D01*
X89122Y788905D01*
X89294Y788552D01*
X89457Y788195D01*
X89612Y787834D01*
X89758Y787469D01*
X89895Y787101D01*
X90022Y786730D01*
X90141Y786356D01*
X90250Y785978D01*
X90351Y785599D01*
X90441Y785217D01*
X90523Y784832D01*
X90594Y784446D01*
X90657Y784059D01*
X90710Y783670D01*
X90753Y783279D01*
X90787Y782888D01*
X90811Y782496D01*
X90825Y782104D01*
X90830Y781711D01*
X90825Y781318D01*
X90811Y780926D01*
X90787Y780534D01*
X90753Y780143D01*
X90710Y779752D01*
X90657Y779363D01*
X90594Y778976D01*
X90523Y778590D01*
X90441Y778205D01*
X90351Y777823D01*
X90250Y777444D01*
X90141Y777066D01*
X90022Y776692D01*
X89895Y776321D01*
X89758Y775953D01*
X89612Y775588D01*
X89457Y775227D01*
X89294Y774870D01*
X89122Y774517D01*
X88941Y774169D01*
X88751Y773825D01*
X88554Y773485D01*
X88348Y773151D01*
X88134Y772822D01*
X87911Y772498D01*
X87681Y772180D01*
X87444Y771867D01*
X87198Y771561D01*
X86945Y771260D01*
X86685Y770966D01*
X86418Y770678D01*
X86144Y770397D01*
X85863Y770123D01*
X85575Y769856D01*
X85281Y769596D01*
X84980Y769343D01*
X84674Y769097D01*
X84361Y768860D01*
X84043Y768630D01*
X83719Y768407D01*
X83390Y768193D01*
X83056Y767987D01*
X82716Y767790D01*
X82372Y767600D01*
X82024Y767419D01*
X81671Y767247D01*
X81314Y767084D01*
X80953Y766929D01*
X80588Y766783D01*
X80220Y766646D01*
X79849Y766519D01*
X79475Y766400D01*
X79097Y766291D01*
X78718Y766190D01*
X78336Y766100D01*
X77951Y766018D01*
X77565Y765947D01*
X77178Y765884D01*
X76789Y765831D01*
X76398Y765788D01*
X76007Y765754D01*
X75615Y765730D01*
X75223Y765716D01*
X74830Y765711D01*
X74437Y765716D01*
X74045Y765730D01*
X73653Y765754D01*
X73262Y765788D01*
X72871Y765831D01*
X72482Y765884D01*
X72095Y765947D01*
X71709Y766018D01*
X71324Y766100D01*
X70942Y766190D01*
X70563Y766291D01*
X70185Y766400D01*
X69811Y766519D01*
X69440Y766646D01*
X69072Y766783D01*
X68707Y766929D01*
X68346Y767084D01*
X67989Y767247D01*
X67636Y767419D01*
X67288Y767600D01*
X66944Y767790D01*
X66604Y767987D01*
X66270Y768193D01*
X65941Y768407D01*
X65617Y768630D01*
X65299Y768860D01*
X64986Y769097D01*
X64680Y769343D01*
X64379Y769596D01*
X64085Y769856D01*
X63797Y770123D01*
X63516Y770397D01*
X63242Y770678D01*
X62975Y770966D01*
X62715Y771260D01*
X62462Y771561D01*
X62216Y771867D01*
X61979Y772180D01*
X61749Y772498D01*
X61526Y772822D01*
X61312Y773151D01*
X61106Y773485D01*
X60909Y773825D01*
X60719Y774169D01*
X60538Y774517D01*
X60366Y774870D01*
X60203Y775227D01*
X60048Y775588D01*
X59902Y775953D01*
X59765Y776321D01*
X59638Y776692D01*
X59519Y777066D01*
X59410Y777444D01*
X59309Y777823D01*
X59219Y778205D01*
X59137Y778590D01*
X59066Y778976D01*
X59003Y779363D01*
X58950Y779752D01*
X58907Y780143D01*
X58873Y780534D01*
X58849Y780926D01*
X58835Y781318D01*
X58830Y781711D01*
X590440Y920192D02*
X590445Y920585D01*
X590459Y920977D01*
X590483Y921369D01*
X590517Y921760D01*
X590560Y922151D01*
X590613Y922540D01*
X590676Y922927D01*
X590747Y923313D01*
X590829Y923698D01*
X590919Y924080D01*
X591020Y924459D01*
X591129Y924837D01*
X591248Y925211D01*
X591375Y925582D01*
X591512Y925950D01*
X591658Y926315D01*
X591813Y926676D01*
X591976Y927033D01*
X592148Y927386D01*
X592329Y927734D01*
X592519Y928078D01*
X592716Y928418D01*
X592922Y928752D01*
X593136Y929081D01*
X593359Y929405D01*
X593589Y929723D01*
X593826Y930036D01*
X594072Y930342D01*
X594325Y930643D01*
X594585Y930937D01*
X594852Y931225D01*
X595126Y931506D01*
X595407Y931780D01*
X595695Y932047D01*
X595989Y932307D01*
X596290Y932560D01*
X596596Y932806D01*
X596909Y933043D01*
X597227Y933273D01*
X597551Y933496D01*
X597880Y933710D01*
X598214Y933916D01*
X598554Y934113D01*
X598898Y934303D01*
X599246Y934484D01*
X599599Y934656D01*
X599956Y934819D01*
X600317Y934974D01*
X600682Y935120D01*
X601050Y935257D01*
X601421Y935384D01*
X601795Y935503D01*
X602173Y935612D01*
X602552Y935713D01*
X602934Y935803D01*
X603319Y935885D01*
X603705Y935956D01*
X604092Y936019D01*
X604481Y936072D01*
X604872Y936115D01*
X605263Y936149D01*
X605655Y936173D01*
X606047Y936187D01*
X606440Y936192D01*
X606833Y936187D01*
X607225Y936173D01*
X607617Y936149D01*
X608008Y936115D01*
X608399Y936072D01*
X608788Y936019D01*
X609175Y935956D01*
X609561Y935885D01*
X609946Y935803D01*
X610328Y935713D01*
X610707Y935612D01*
X611085Y935503D01*
X611459Y935384D01*
X611830Y935257D01*
X612198Y935120D01*
X612563Y934974D01*
X612924Y934819D01*
X613281Y934656D01*
X613634Y934484D01*
X613982Y934303D01*
X614326Y934113D01*
X614666Y933916D01*
X615000Y933710D01*
X615329Y933496D01*
X615653Y933273D01*
X615971Y933043D01*
X616284Y932806D01*
X616590Y932560D01*
X616891Y932307D01*
X617185Y932047D01*
X617473Y931780D01*
X617754Y931506D01*
X618028Y931225D01*
X618295Y930937D01*
X618555Y930643D01*
X618808Y930342D01*
X619054Y930036D01*
X619291Y929723D01*
X619521Y929405D01*
X619744Y929081D01*
X619958Y928752D01*
X620164Y928418D01*
X620361Y928078D01*
X620551Y927734D01*
X620732Y927386D01*
X620904Y927033D01*
X621067Y926676D01*
X621222Y926315D01*
X621368Y925950D01*
X621505Y925582D01*
X621632Y925211D01*
X621751Y924837D01*
X621860Y924459D01*
X621961Y924080D01*
X622051Y923698D01*
X622133Y923313D01*
X622204Y922927D01*
X622267Y922540D01*
X622320Y922151D01*
X622363Y921760D01*
X622397Y921369D01*
X622421Y920977D01*
X622435Y920585D01*
X622440Y920192D01*
X622435Y919799D01*
X622421Y919407D01*
X622397Y919015D01*
X622363Y918624D01*
X622320Y918233D01*
X622267Y917844D01*
X622204Y917457D01*
X622133Y917071D01*
X622051Y916686D01*
X621961Y916304D01*
X621860Y915925D01*
X621751Y915547D01*
X621632Y915173D01*
X621505Y914802D01*
X621368Y914434D01*
X621222Y914069D01*
X621067Y913708D01*
X620904Y913351D01*
X620732Y912998D01*
X620551Y912650D01*
X620361Y912306D01*
X620164Y911966D01*
X619958Y911632D01*
X619744Y911303D01*
X619521Y910979D01*
X619291Y910661D01*
X619054Y910348D01*
X618808Y910042D01*
X618555Y909741D01*
X618295Y909447D01*
X618028Y909159D01*
X617754Y908878D01*
X617473Y908604D01*
X617185Y908337D01*
X616891Y908077D01*
X616590Y907824D01*
X616284Y907578D01*
X615971Y907341D01*
X615653Y907111D01*
X615329Y906888D01*
X615000Y906674D01*
X614666Y906468D01*
X614326Y906271D01*
X613982Y906081D01*
X613634Y905900D01*
X613281Y905728D01*
X612924Y905565D01*
X612563Y905410D01*
X612198Y905264D01*
X611830Y905127D01*
X611459Y905000D01*
X611085Y904881D01*
X610707Y904772D01*
X610328Y904671D01*
X609946Y904581D01*
X609561Y904499D01*
X609175Y904428D01*
X608788Y904365D01*
X608399Y904312D01*
X608008Y904269D01*
X607617Y904235D01*
X607225Y904211D01*
X606833Y904197D01*
X606440Y904192D01*
X606047Y904197D01*
X605655Y904211D01*
X605263Y904235D01*
X604872Y904269D01*
X604481Y904312D01*
X604092Y904365D01*
X603705Y904428D01*
X603319Y904499D01*
X602934Y904581D01*
X602552Y904671D01*
X602173Y904772D01*
X601795Y904881D01*
X601421Y905000D01*
X601050Y905127D01*
X600682Y905264D01*
X600317Y905410D01*
X599956Y905565D01*
X599599Y905728D01*
X599246Y905900D01*
X598898Y906081D01*
X598554Y906271D01*
X598214Y906468D01*
X597880Y906674D01*
X597551Y906888D01*
X597227Y907111D01*
X596909Y907341D01*
X596596Y907578D01*
X596290Y907824D01*
X595989Y908077D01*
X595695Y908337D01*
X595407Y908604D01*
X595126Y908878D01*
X594852Y909159D01*
X594585Y909447D01*
X594325Y909741D01*
X594072Y910042D01*
X593826Y910348D01*
X593589Y910661D01*
X593359Y910979D01*
X593136Y911303D01*
X592922Y911632D01*
X592716Y911966D01*
X592519Y912306D01*
X592329Y912650D01*
X592148Y912998D01*
X591976Y913351D01*
X591813Y913708D01*
X591658Y914069D01*
X591512Y914434D01*
X591375Y914802D01*
X591248Y915173D01*
X591129Y915547D01*
X591020Y915925D01*
X590919Y916304D01*
X590829Y916686D01*
X590747Y917071D01*
X590676Y917457D01*
X590613Y917844D01*
X590560Y918233D01*
X590517Y918624D01*
X590483Y919015D01*
X590459Y919407D01*
X590445Y919799D01*
X590440Y920192D01*
X691535Y508730D02*
X691540Y509123D01*
X691554Y509515D01*
X691578Y509907D01*
X691612Y510298D01*
X691655Y510689D01*
X691708Y511078D01*
X691771Y511465D01*
X691842Y511851D01*
X691924Y512236D01*
X692014Y512618D01*
X692115Y512997D01*
X692224Y513375D01*
X692343Y513749D01*
X692470Y514120D01*
X692607Y514488D01*
X692753Y514853D01*
X692908Y515214D01*
X693071Y515571D01*
X693243Y515924D01*
X693424Y516272D01*
X693614Y516616D01*
X693811Y516956D01*
X694017Y517290D01*
X694231Y517619D01*
X694454Y517943D01*
X694684Y518261D01*
X694921Y518574D01*
X695167Y518880D01*
X695420Y519181D01*
X695680Y519475D01*
X695947Y519763D01*
X696221Y520044D01*
X696502Y520318D01*
X696790Y520585D01*
X697084Y520845D01*
X697385Y521098D01*
X697691Y521344D01*
X698004Y521581D01*
X698322Y521811D01*
X698646Y522034D01*
X698975Y522248D01*
X699309Y522454D01*
X699649Y522651D01*
X699993Y522841D01*
X700341Y523022D01*
X700694Y523194D01*
X701051Y523357D01*
X701412Y523512D01*
X701777Y523658D01*
X702145Y523795D01*
X702516Y523922D01*
X702890Y524041D01*
X703268Y524150D01*
X703647Y524251D01*
X704029Y524341D01*
X704414Y524423D01*
X704800Y524494D01*
X705187Y524557D01*
X705576Y524610D01*
X705967Y524653D01*
X706358Y524687D01*
X706750Y524711D01*
X707142Y524725D01*
X707535Y524730D01*
X707928Y524725D01*
X708320Y524711D01*
X708712Y524687D01*
X709103Y524653D01*
X709494Y524610D01*
X709883Y524557D01*
X710270Y524494D01*
X710656Y524423D01*
X711041Y524341D01*
X711423Y524251D01*
X711802Y524150D01*
X712180Y524041D01*
X712554Y523922D01*
X712925Y523795D01*
X713293Y523658D01*
X713658Y523512D01*
X714019Y523357D01*
X714376Y523194D01*
X714729Y523022D01*
X715077Y522841D01*
X715421Y522651D01*
X715761Y522454D01*
X716095Y522248D01*
X716424Y522034D01*
X716748Y521811D01*
X717066Y521581D01*
X717379Y521344D01*
X717685Y521098D01*
X717986Y520845D01*
X718280Y520585D01*
X718568Y520318D01*
X718849Y520044D01*
X719123Y519763D01*
X719390Y519475D01*
X719650Y519181D01*
X719903Y518880D01*
X720149Y518574D01*
X720386Y518261D01*
X720616Y517943D01*
X720839Y517619D01*
X721053Y517290D01*
X721259Y516956D01*
X721456Y516616D01*
X721646Y516272D01*
X721827Y515924D01*
X721999Y515571D01*
X722162Y515214D01*
X722317Y514853D01*
X722463Y514488D01*
X722600Y514120D01*
X722727Y513749D01*
X722846Y513375D01*
X722955Y512997D01*
X723056Y512618D01*
X723146Y512236D01*
X723228Y511851D01*
X723299Y511465D01*
X723362Y511078D01*
X723415Y510689D01*
X723458Y510298D01*
X723492Y509907D01*
X723516Y509515D01*
X723530Y509123D01*
X723535Y508730D01*
X723530Y508337D01*
X723516Y507945D01*
X723492Y507553D01*
X723458Y507162D01*
X723415Y506771D01*
X723362Y506382D01*
X723299Y505995D01*
X723228Y505609D01*
X723146Y505224D01*
X723056Y504842D01*
X722955Y504463D01*
X722846Y504085D01*
X722727Y503711D01*
X722600Y503340D01*
X722463Y502972D01*
X722317Y502607D01*
X722162Y502246D01*
X721999Y501889D01*
X721827Y501536D01*
X721646Y501188D01*
X721456Y500844D01*
X721259Y500504D01*
X721053Y500170D01*
X720839Y499841D01*
X720616Y499517D01*
X720386Y499199D01*
X720149Y498886D01*
X719903Y498580D01*
X719650Y498279D01*
X719390Y497985D01*
X719123Y497697D01*
X718849Y497416D01*
X718568Y497142D01*
X718280Y496875D01*
X717986Y496615D01*
X717685Y496362D01*
X717379Y496116D01*
X717066Y495879D01*
X716748Y495649D01*
X716424Y495426D01*
X716095Y495212D01*
X715761Y495006D01*
X715421Y494809D01*
X715077Y494619D01*
X714729Y494438D01*
X714376Y494266D01*
X714019Y494103D01*
X713658Y493948D01*
X713293Y493802D01*
X712925Y493665D01*
X712554Y493538D01*
X712180Y493419D01*
X711802Y493310D01*
X711423Y493209D01*
X711041Y493119D01*
X710656Y493037D01*
X710270Y492966D01*
X709883Y492903D01*
X709494Y492850D01*
X709103Y492807D01*
X708712Y492773D01*
X708320Y492749D01*
X707928Y492735D01*
X707535Y492730D01*
X707142Y492735D01*
X706750Y492749D01*
X706358Y492773D01*
X705967Y492807D01*
X705576Y492850D01*
X705187Y492903D01*
X704800Y492966D01*
X704414Y493037D01*
X704029Y493119D01*
X703647Y493209D01*
X703268Y493310D01*
X702890Y493419D01*
X702516Y493538D01*
X702145Y493665D01*
X701777Y493802D01*
X701412Y493948D01*
X701051Y494103D01*
X700694Y494266D01*
X700341Y494438D01*
X699993Y494619D01*
X699649Y494809D01*
X699309Y495006D01*
X698975Y495212D01*
X698646Y495426D01*
X698322Y495649D01*
X698004Y495879D01*
X697691Y496116D01*
X697385Y496362D01*
X697084Y496615D01*
X696790Y496875D01*
X696502Y497142D01*
X696221Y497416D01*
X695947Y497697D01*
X695680Y497985D01*
X695420Y498279D01*
X695167Y498580D01*
X694921Y498886D01*
X694684Y499199D01*
X694454Y499517D01*
X694231Y499841D01*
X694017Y500170D01*
X693811Y500504D01*
X693614Y500844D01*
X693424Y501188D01*
X693243Y501536D01*
X693071Y501889D01*
X692908Y502246D01*
X692753Y502607D01*
X692607Y502972D01*
X692470Y503340D01*
X692343Y503711D01*
X692224Y504085D01*
X692115Y504463D01*
X692014Y504842D01*
X691924Y505224D01*
X691842Y505609D01*
X691771Y505995D01*
X691708Y506382D01*
X691655Y506771D01*
X691612Y507162D01*
X691578Y507553D01*
X691554Y507945D01*
X691540Y508337D01*
X691535Y508730D01*
X256652Y73848D02*
X256657Y74241D01*
X256671Y74633D01*
X256695Y75025D01*
X256729Y75416D01*
X256772Y75807D01*
X256825Y76196D01*
X256888Y76583D01*
X256959Y76969D01*
X257041Y77354D01*
X257131Y77736D01*
X257232Y78115D01*
X257341Y78493D01*
X257460Y78867D01*
X257587Y79238D01*
X257724Y79606D01*
X257870Y79971D01*
X258025Y80332D01*
X258188Y80689D01*
X258360Y81042D01*
X258541Y81390D01*
X258731Y81734D01*
X258928Y82074D01*
X259134Y82408D01*
X259348Y82737D01*
X259571Y83061D01*
X259801Y83379D01*
X260038Y83692D01*
X260284Y83998D01*
X260537Y84299D01*
X260797Y84593D01*
X261064Y84881D01*
X261338Y85162D01*
X261619Y85436D01*
X261907Y85703D01*
X262201Y85963D01*
X262502Y86216D01*
X262808Y86462D01*
X263121Y86699D01*
X263439Y86929D01*
X263763Y87152D01*
X264092Y87366D01*
X264426Y87572D01*
X264766Y87769D01*
X265110Y87959D01*
X265458Y88140D01*
X265811Y88312D01*
X266168Y88475D01*
X266529Y88630D01*
X266894Y88776D01*
X267262Y88913D01*
X267633Y89040D01*
X268007Y89159D01*
X268385Y89268D01*
X268764Y89369D01*
X269146Y89459D01*
X269531Y89541D01*
X269917Y89612D01*
X270304Y89675D01*
X270693Y89728D01*
X271084Y89771D01*
X271475Y89805D01*
X271867Y89829D01*
X272259Y89843D01*
X272652Y89848D01*
X273045Y89843D01*
X273437Y89829D01*
X273829Y89805D01*
X274220Y89771D01*
X274611Y89728D01*
X275000Y89675D01*
X275387Y89612D01*
X275773Y89541D01*
X276158Y89459D01*
X276540Y89369D01*
X276919Y89268D01*
X277297Y89159D01*
X277671Y89040D01*
X278042Y88913D01*
X278410Y88776D01*
X278775Y88630D01*
X279136Y88475D01*
X279493Y88312D01*
X279846Y88140D01*
X280194Y87959D01*
X280538Y87769D01*
X280878Y87572D01*
X281212Y87366D01*
X281541Y87152D01*
X281865Y86929D01*
X282183Y86699D01*
X282496Y86462D01*
X282802Y86216D01*
X283103Y85963D01*
X283397Y85703D01*
X283685Y85436D01*
X283966Y85162D01*
X284240Y84881D01*
X284507Y84593D01*
X284767Y84299D01*
X285020Y83998D01*
X285266Y83692D01*
X285503Y83379D01*
X285733Y83061D01*
X285956Y82737D01*
X286170Y82408D01*
X286376Y82074D01*
X286573Y81734D01*
X286763Y81390D01*
X286944Y81042D01*
X287116Y80689D01*
X287279Y80332D01*
X287434Y79971D01*
X287580Y79606D01*
X287717Y79238D01*
X287844Y78867D01*
X287963Y78493D01*
X288072Y78115D01*
X288173Y77736D01*
X288263Y77354D01*
X288345Y76969D01*
X288416Y76583D01*
X288479Y76196D01*
X288532Y75807D01*
X288575Y75416D01*
X288609Y75025D01*
X288633Y74633D01*
X288647Y74241D01*
X288652Y73848D01*
X288647Y73455D01*
X288633Y73063D01*
X288609Y72671D01*
X288575Y72280D01*
X288532Y71889D01*
X288479Y71500D01*
X288416Y71113D01*
X288345Y70727D01*
X288263Y70342D01*
X288173Y69960D01*
X288072Y69581D01*
X287963Y69203D01*
X287844Y68829D01*
X287717Y68458D01*
X287580Y68090D01*
X287434Y67725D01*
X287279Y67364D01*
X287116Y67007D01*
X286944Y66654D01*
X286763Y66306D01*
X286573Y65962D01*
X286376Y65622D01*
X286170Y65288D01*
X285956Y64959D01*
X285733Y64635D01*
X285503Y64317D01*
X285266Y64004D01*
X285020Y63698D01*
X284767Y63397D01*
X284507Y63103D01*
X284240Y62815D01*
X283966Y62534D01*
X283685Y62260D01*
X283397Y61993D01*
X283103Y61733D01*
X282802Y61480D01*
X282496Y61234D01*
X282183Y60997D01*
X281865Y60767D01*
X281541Y60544D01*
X281212Y60330D01*
X280878Y60124D01*
X280538Y59927D01*
X280194Y59737D01*
X279846Y59556D01*
X279493Y59384D01*
X279136Y59221D01*
X278775Y59066D01*
X278410Y58920D01*
X278042Y58783D01*
X277671Y58656D01*
X277297Y58537D01*
X276919Y58428D01*
X276540Y58327D01*
X276158Y58237D01*
X275773Y58155D01*
X275387Y58084D01*
X275000Y58021D01*
X274611Y57968D01*
X274220Y57925D01*
X273829Y57891D01*
X273437Y57867D01*
X273045Y57853D01*
X272652Y57848D01*
X272259Y57853D01*
X271867Y57867D01*
X271475Y57891D01*
X271084Y57925D01*
X270693Y57968D01*
X270304Y58021D01*
X269917Y58084D01*
X269531Y58155D01*
X269146Y58237D01*
X268764Y58327D01*
X268385Y58428D01*
X268007Y58537D01*
X267633Y58656D01*
X267262Y58783D01*
X266894Y58920D01*
X266529Y59066D01*
X266168Y59221D01*
X265811Y59384D01*
X265458Y59556D01*
X265110Y59737D01*
X264766Y59927D01*
X264426Y60124D01*
X264092Y60330D01*
X263763Y60544D01*
X263439Y60767D01*
X263121Y60997D01*
X262808Y61234D01*
X262502Y61480D01*
X262201Y61733D01*
X261907Y61993D01*
X261619Y62260D01*
X261338Y62534D01*
X261064Y62815D01*
X260797Y63103D01*
X260537Y63397D01*
X260284Y63698D01*
X260038Y64004D01*
X259801Y64317D01*
X259571Y64635D01*
X259348Y64959D01*
X259134Y65288D01*
X258928Y65622D01*
X258731Y65962D01*
X258541Y66306D01*
X258360Y66654D01*
X258188Y67007D01*
X258025Y67364D01*
X257870Y67725D01*
X257724Y68090D01*
X257587Y68458D01*
X257460Y68829D01*
X257341Y69203D01*
X257232Y69581D01*
X257131Y69960D01*
X257041Y70342D01*
X256959Y70727D01*
X256888Y71113D01*
X256825Y71500D01*
X256772Y71889D01*
X256729Y72280D01*
X256695Y72671D01*
X256671Y73063D01*
X256657Y73455D01*
X256652Y73848D01*
X159440Y920192D02*
X159445Y920585D01*
X159459Y920977D01*
X159483Y921369D01*
X159517Y921760D01*
X159560Y922151D01*
X159613Y922540D01*
X159676Y922927D01*
X159747Y923313D01*
X159829Y923698D01*
X159919Y924080D01*
X160020Y924459D01*
X160129Y924837D01*
X160248Y925211D01*
X160375Y925582D01*
X160512Y925950D01*
X160658Y926315D01*
X160813Y926676D01*
X160976Y927033D01*
X161148Y927386D01*
X161329Y927734D01*
X161519Y928078D01*
X161716Y928418D01*
X161922Y928752D01*
X162136Y929081D01*
X162359Y929405D01*
X162589Y929723D01*
X162826Y930036D01*
X163072Y930342D01*
X163325Y930643D01*
X163585Y930937D01*
X163852Y931225D01*
X164126Y931506D01*
X164407Y931780D01*
X164695Y932047D01*
X164989Y932307D01*
X165290Y932560D01*
X165596Y932806D01*
X165909Y933043D01*
X166227Y933273D01*
X166551Y933496D01*
X166880Y933710D01*
X167214Y933916D01*
X167554Y934113D01*
X167898Y934303D01*
X168246Y934484D01*
X168599Y934656D01*
X168956Y934819D01*
X169317Y934974D01*
X169682Y935120D01*
X170050Y935257D01*
X170421Y935384D01*
X170795Y935503D01*
X171173Y935612D01*
X171552Y935713D01*
X171934Y935803D01*
X172319Y935885D01*
X172705Y935956D01*
X173092Y936019D01*
X173481Y936072D01*
X173872Y936115D01*
X174263Y936149D01*
X174655Y936173D01*
X175047Y936187D01*
X175440Y936192D01*
X175833Y936187D01*
X176225Y936173D01*
X176617Y936149D01*
X177008Y936115D01*
X177399Y936072D01*
X177788Y936019D01*
X178175Y935956D01*
X178561Y935885D01*
X178946Y935803D01*
X179328Y935713D01*
X179707Y935612D01*
X180085Y935503D01*
X180459Y935384D01*
X180830Y935257D01*
X181198Y935120D01*
X181563Y934974D01*
X181924Y934819D01*
X182281Y934656D01*
X182634Y934484D01*
X182982Y934303D01*
X183326Y934113D01*
X183666Y933916D01*
X184000Y933710D01*
X184329Y933496D01*
X184653Y933273D01*
X184971Y933043D01*
X185284Y932806D01*
X185590Y932560D01*
X185891Y932307D01*
X186185Y932047D01*
X186473Y931780D01*
X186754Y931506D01*
X187028Y931225D01*
X187295Y930937D01*
X187555Y930643D01*
X187808Y930342D01*
X188054Y930036D01*
X188291Y929723D01*
X188521Y929405D01*
X188744Y929081D01*
X188958Y928752D01*
X189164Y928418D01*
X189361Y928078D01*
X189551Y927734D01*
X189732Y927386D01*
X189904Y927033D01*
X190067Y926676D01*
X190222Y926315D01*
X190368Y925950D01*
X190505Y925582D01*
X190632Y925211D01*
X190751Y924837D01*
X190860Y924459D01*
X190961Y924080D01*
X191051Y923698D01*
X191133Y923313D01*
X191204Y922927D01*
X191267Y922540D01*
X191320Y922151D01*
X191363Y921760D01*
X191397Y921369D01*
X191421Y920977D01*
X191435Y920585D01*
X191440Y920192D01*
X191435Y919799D01*
X191421Y919407D01*
X191397Y919015D01*
X191363Y918624D01*
X191320Y918233D01*
X191267Y917844D01*
X191204Y917457D01*
X191133Y917071D01*
X191051Y916686D01*
X190961Y916304D01*
X190860Y915925D01*
X190751Y915547D01*
X190632Y915173D01*
X190505Y914802D01*
X190368Y914434D01*
X190222Y914069D01*
X190067Y913708D01*
X189904Y913351D01*
X189732Y912998D01*
X189551Y912650D01*
X189361Y912306D01*
X189164Y911966D01*
X188958Y911632D01*
X188744Y911303D01*
X188521Y910979D01*
X188291Y910661D01*
X188054Y910348D01*
X187808Y910042D01*
X187555Y909741D01*
X187295Y909447D01*
X187028Y909159D01*
X186754Y908878D01*
X186473Y908604D01*
X186185Y908337D01*
X185891Y908077D01*
X185590Y907824D01*
X185284Y907578D01*
X184971Y907341D01*
X184653Y907111D01*
X184329Y906888D01*
X184000Y906674D01*
X183666Y906468D01*
X183326Y906271D01*
X182982Y906081D01*
X182634Y905900D01*
X182281Y905728D01*
X181924Y905565D01*
X181563Y905410D01*
X181198Y905264D01*
X180830Y905127D01*
X180459Y905000D01*
X180085Y904881D01*
X179707Y904772D01*
X179328Y904671D01*
X178946Y904581D01*
X178561Y904499D01*
X178175Y904428D01*
X177788Y904365D01*
X177399Y904312D01*
X177008Y904269D01*
X176617Y904235D01*
X176225Y904211D01*
X175833Y904197D01*
X175440Y904192D01*
X175047Y904197D01*
X174655Y904211D01*
X174263Y904235D01*
X173872Y904269D01*
X173481Y904312D01*
X173092Y904365D01*
X172705Y904428D01*
X172319Y904499D01*
X171934Y904581D01*
X171552Y904671D01*
X171173Y904772D01*
X170795Y904881D01*
X170421Y905000D01*
X170050Y905127D01*
X169682Y905264D01*
X169317Y905410D01*
X168956Y905565D01*
X168599Y905728D01*
X168246Y905900D01*
X167898Y906081D01*
X167554Y906271D01*
X167214Y906468D01*
X166880Y906674D01*
X166551Y906888D01*
X166227Y907111D01*
X165909Y907341D01*
X165596Y907578D01*
X165290Y907824D01*
X164989Y908077D01*
X164695Y908337D01*
X164407Y908604D01*
X164126Y908878D01*
X163852Y909159D01*
X163585Y909447D01*
X163325Y909741D01*
X163072Y910042D01*
X162826Y910348D01*
X162589Y910661D01*
X162359Y910979D01*
X162136Y911303D01*
X161922Y911632D01*
X161716Y911966D01*
X161519Y912306D01*
X161329Y912650D01*
X161148Y912998D01*
X160976Y913351D01*
X160813Y913708D01*
X160658Y914069D01*
X160512Y914434D01*
X160375Y914802D01*
X160248Y915173D01*
X160129Y915547D01*
X160020Y915925D01*
X159919Y916304D01*
X159829Y916686D01*
X159747Y917071D01*
X159676Y917457D01*
X159613Y917844D01*
X159560Y918233D01*
X159517Y918624D01*
X159483Y919015D01*
X159459Y919407D01*
X159445Y919799D01*
X159440Y920192D01*
X590440Y555192D02*
X590445Y555585D01*
X590459Y555977D01*
X590483Y556369D01*
X590517Y556760D01*
X590560Y557151D01*
X590613Y557540D01*
X590676Y557927D01*
X590747Y558313D01*
X590829Y558698D01*
X590919Y559080D01*
X591020Y559459D01*
X591129Y559837D01*
X591248Y560211D01*
X591375Y560582D01*
X591512Y560950D01*
X591658Y561315D01*
X591813Y561676D01*
X591976Y562033D01*
X592148Y562386D01*
X592329Y562734D01*
X592519Y563078D01*
X592716Y563418D01*
X592922Y563752D01*
X593136Y564081D01*
X593359Y564405D01*
X593589Y564723D01*
X593826Y565036D01*
X594072Y565342D01*
X594325Y565643D01*
X594585Y565937D01*
X594852Y566225D01*
X595126Y566506D01*
X595407Y566780D01*
X595695Y567047D01*
X595989Y567307D01*
X596290Y567560D01*
X596596Y567806D01*
X596909Y568043D01*
X597227Y568273D01*
X597551Y568496D01*
X597880Y568710D01*
X598214Y568916D01*
X598554Y569113D01*
X598898Y569303D01*
X599246Y569484D01*
X599599Y569656D01*
X599956Y569819D01*
X600317Y569974D01*
X600682Y570120D01*
X601050Y570257D01*
X601421Y570384D01*
X601795Y570503D01*
X602173Y570612D01*
X602552Y570713D01*
X602934Y570803D01*
X603319Y570885D01*
X603705Y570956D01*
X604092Y571019D01*
X604481Y571072D01*
X604872Y571115D01*
X605263Y571149D01*
X605655Y571173D01*
X606047Y571187D01*
X606440Y571192D01*
X606833Y571187D01*
X607225Y571173D01*
X607617Y571149D01*
X608008Y571115D01*
X608399Y571072D01*
X608788Y571019D01*
X609175Y570956D01*
X609561Y570885D01*
X609946Y570803D01*
X610328Y570713D01*
X610707Y570612D01*
X611085Y570503D01*
X611459Y570384D01*
X611830Y570257D01*
X612198Y570120D01*
X612563Y569974D01*
X612924Y569819D01*
X613281Y569656D01*
X613634Y569484D01*
X613982Y569303D01*
X614326Y569113D01*
X614666Y568916D01*
X615000Y568710D01*
X615329Y568496D01*
X615653Y568273D01*
X615971Y568043D01*
X616284Y567806D01*
X616590Y567560D01*
X616891Y567307D01*
X617185Y567047D01*
X617473Y566780D01*
X617754Y566506D01*
X618028Y566225D01*
X618295Y565937D01*
X618555Y565643D01*
X618808Y565342D01*
X619054Y565036D01*
X619291Y564723D01*
X619521Y564405D01*
X619744Y564081D01*
X619958Y563752D01*
X620164Y563418D01*
X620361Y563078D01*
X620551Y562734D01*
X620732Y562386D01*
X620904Y562033D01*
X621067Y561676D01*
X621222Y561315D01*
X621368Y560950D01*
X621505Y560582D01*
X621632Y560211D01*
X621751Y559837D01*
X621860Y559459D01*
X621961Y559080D01*
X622051Y558698D01*
X622133Y558313D01*
X622204Y557927D01*
X622267Y557540D01*
X622320Y557151D01*
X622363Y556760D01*
X622397Y556369D01*
X622421Y555977D01*
X622435Y555585D01*
X622440Y555192D01*
X622435Y554799D01*
X622421Y554407D01*
X622397Y554015D01*
X622363Y553624D01*
X622320Y553233D01*
X622267Y552844D01*
X622204Y552457D01*
X622133Y552071D01*
X622051Y551686D01*
X621961Y551304D01*
X621860Y550925D01*
X621751Y550547D01*
X621632Y550173D01*
X621505Y549802D01*
X621368Y549434D01*
X621222Y549069D01*
X621067Y548708D01*
X620904Y548351D01*
X620732Y547998D01*
X620551Y547650D01*
X620361Y547306D01*
X620164Y546966D01*
X619958Y546632D01*
X619744Y546303D01*
X619521Y545979D01*
X619291Y545661D01*
X619054Y545348D01*
X618808Y545042D01*
X618555Y544741D01*
X618295Y544447D01*
X618028Y544159D01*
X617754Y543878D01*
X617473Y543604D01*
X617185Y543337D01*
X616891Y543077D01*
X616590Y542824D01*
X616284Y542578D01*
X615971Y542341D01*
X615653Y542111D01*
X615329Y541888D01*
X615000Y541674D01*
X614666Y541468D01*
X614326Y541271D01*
X613982Y541081D01*
X613634Y540900D01*
X613281Y540728D01*
X612924Y540565D01*
X612563Y540410D01*
X612198Y540264D01*
X611830Y540127D01*
X611459Y540000D01*
X611085Y539881D01*
X610707Y539772D01*
X610328Y539671D01*
X609946Y539581D01*
X609561Y539499D01*
X609175Y539428D01*
X608788Y539365D01*
X608399Y539312D01*
X608008Y539269D01*
X607617Y539235D01*
X607225Y539211D01*
X606833Y539197D01*
X606440Y539192D01*
X606047Y539197D01*
X605655Y539211D01*
X605263Y539235D01*
X604872Y539269D01*
X604481Y539312D01*
X604092Y539365D01*
X603705Y539428D01*
X603319Y539499D01*
X602934Y539581D01*
X602552Y539671D01*
X602173Y539772D01*
X601795Y539881D01*
X601421Y540000D01*
X601050Y540127D01*
X600682Y540264D01*
X600317Y540410D01*
X599956Y540565D01*
X599599Y540728D01*
X599246Y540900D01*
X598898Y541081D01*
X598554Y541271D01*
X598214Y541468D01*
X597880Y541674D01*
X597551Y541888D01*
X597227Y542111D01*
X596909Y542341D01*
X596596Y542578D01*
X596290Y542824D01*
X595989Y543077D01*
X595695Y543337D01*
X595407Y543604D01*
X595126Y543878D01*
X594852Y544159D01*
X594585Y544447D01*
X594325Y544741D01*
X594072Y545042D01*
X593826Y545348D01*
X593589Y545661D01*
X593359Y545979D01*
X593136Y546303D01*
X592922Y546632D01*
X592716Y546966D01*
X592519Y547306D01*
X592329Y547650D01*
X592148Y547998D01*
X591976Y548351D01*
X591813Y548708D01*
X591658Y549069D01*
X591512Y549434D01*
X591375Y549802D01*
X591248Y550173D01*
X591129Y550547D01*
X591020Y550925D01*
X590919Y551304D01*
X590829Y551686D01*
X590747Y552071D01*
X590676Y552457D01*
X590613Y552844D01*
X590560Y553233D01*
X590517Y553624D01*
X590483Y554015D01*
X590459Y554407D01*
X590445Y554799D01*
X590440Y555192D01*
X741378Y887330D02*
X741383Y887723D01*
X741397Y888115D01*
X741421Y888507D01*
X741455Y888898D01*
X741498Y889289D01*
X741551Y889678D01*
X741614Y890065D01*
X741685Y890451D01*
X741767Y890836D01*
X741857Y891218D01*
X741958Y891597D01*
X742067Y891975D01*
X742186Y892349D01*
X742313Y892720D01*
X742450Y893088D01*
X742596Y893453D01*
X742751Y893814D01*
X742914Y894171D01*
X743086Y894524D01*
X743267Y894872D01*
X743457Y895216D01*
X743654Y895556D01*
X743860Y895890D01*
X744074Y896219D01*
X744297Y896543D01*
X744527Y896861D01*
X744764Y897174D01*
X745010Y897480D01*
X745263Y897781D01*
X745523Y898075D01*
X745790Y898363D01*
X746064Y898644D01*
X746345Y898918D01*
X746633Y899185D01*
X746927Y899445D01*
X747228Y899698D01*
X747534Y899944D01*
X747847Y900181D01*
X748165Y900411D01*
X748489Y900634D01*
X748818Y900848D01*
X749152Y901054D01*
X749492Y901251D01*
X749836Y901441D01*
X750184Y901622D01*
X750537Y901794D01*
X750894Y901957D01*
X751255Y902112D01*
X751620Y902258D01*
X751988Y902395D01*
X752359Y902522D01*
X752733Y902641D01*
X753111Y902750D01*
X753490Y902851D01*
X753872Y902941D01*
X754257Y903023D01*
X754643Y903094D01*
X755030Y903157D01*
X755419Y903210D01*
X755810Y903253D01*
X756201Y903287D01*
X756593Y903311D01*
X756985Y903325D01*
X757378Y903330D01*
X757771Y903325D01*
X758163Y903311D01*
X758555Y903287D01*
X758946Y903253D01*
X759337Y903210D01*
X759726Y903157D01*
X760113Y903094D01*
X760499Y903023D01*
X760884Y902941D01*
X761266Y902851D01*
X761645Y902750D01*
X762023Y902641D01*
X762397Y902522D01*
X762768Y902395D01*
X763136Y902258D01*
X763501Y902112D01*
X763862Y901957D01*
X764219Y901794D01*
X764572Y901622D01*
X764920Y901441D01*
X765264Y901251D01*
X765604Y901054D01*
X765938Y900848D01*
X766267Y900634D01*
X766591Y900411D01*
X766909Y900181D01*
X767222Y899944D01*
X767528Y899698D01*
X767829Y899445D01*
X768123Y899185D01*
X768411Y898918D01*
X768692Y898644D01*
X768966Y898363D01*
X769233Y898075D01*
X769493Y897781D01*
X769746Y897480D01*
X769992Y897174D01*
X770229Y896861D01*
X770459Y896543D01*
X770682Y896219D01*
X770896Y895890D01*
X771102Y895556D01*
X771299Y895216D01*
X771489Y894872D01*
X771670Y894524D01*
X771842Y894171D01*
X772005Y893814D01*
X772160Y893453D01*
X772306Y893088D01*
X772443Y892720D01*
X772570Y892349D01*
X772689Y891975D01*
X772798Y891597D01*
X772899Y891218D01*
X772989Y890836D01*
X773071Y890451D01*
X773142Y890065D01*
X773205Y889678D01*
X773258Y889289D01*
X773301Y888898D01*
X773335Y888507D01*
X773359Y888115D01*
X773373Y887723D01*
X773378Y887330D01*
X773373Y886937D01*
X773359Y886545D01*
X773335Y886153D01*
X773301Y885762D01*
X773258Y885371D01*
X773205Y884982D01*
X773142Y884595D01*
X773071Y884209D01*
X772989Y883824D01*
X772899Y883442D01*
X772798Y883063D01*
X772689Y882685D01*
X772570Y882311D01*
X772443Y881940D01*
X772306Y881572D01*
X772160Y881207D01*
X772005Y880846D01*
X771842Y880489D01*
X771670Y880136D01*
X771489Y879788D01*
X771299Y879444D01*
X771102Y879104D01*
X770896Y878770D01*
X770682Y878441D01*
X770459Y878117D01*
X770229Y877799D01*
X769992Y877486D01*
X769746Y877180D01*
X769493Y876879D01*
X769233Y876585D01*
X768966Y876297D01*
X768692Y876016D01*
X768411Y875742D01*
X768123Y875475D01*
X767829Y875215D01*
X767528Y874962D01*
X767222Y874716D01*
X766909Y874479D01*
X766591Y874249D01*
X766267Y874026D01*
X765938Y873812D01*
X765604Y873606D01*
X765264Y873409D01*
X764920Y873219D01*
X764572Y873038D01*
X764219Y872866D01*
X763862Y872703D01*
X763501Y872548D01*
X763136Y872402D01*
X762768Y872265D01*
X762397Y872138D01*
X762023Y872019D01*
X761645Y871910D01*
X761266Y871809D01*
X760884Y871719D01*
X760499Y871637D01*
X760113Y871566D01*
X759726Y871503D01*
X759337Y871450D01*
X758946Y871407D01*
X758555Y871373D01*
X758163Y871349D01*
X757771Y871335D01*
X757378Y871330D01*
X756985Y871335D01*
X756593Y871349D01*
X756201Y871373D01*
X755810Y871407D01*
X755419Y871450D01*
X755030Y871503D01*
X754643Y871566D01*
X754257Y871637D01*
X753872Y871719D01*
X753490Y871809D01*
X753111Y871910D01*
X752733Y872019D01*
X752359Y872138D01*
X751988Y872265D01*
X751620Y872402D01*
X751255Y872548D01*
X750894Y872703D01*
X750537Y872866D01*
X750184Y873038D01*
X749836Y873219D01*
X749492Y873409D01*
X749152Y873606D01*
X748818Y873812D01*
X748489Y874026D01*
X748165Y874249D01*
X747847Y874479D01*
X747534Y874716D01*
X747228Y874962D01*
X746927Y875215D01*
X746633Y875475D01*
X746345Y875742D01*
X746064Y876016D01*
X745790Y876297D01*
X745523Y876585D01*
X745263Y876879D01*
X745010Y877180D01*
X744764Y877486D01*
X744527Y877799D01*
X744297Y878117D01*
X744074Y878441D01*
X743860Y878770D01*
X743654Y879104D01*
X743457Y879444D01*
X743267Y879788D01*
X743086Y880136D01*
X742914Y880489D01*
X742751Y880846D01*
X742596Y881207D01*
X742450Y881572D01*
X742313Y881940D01*
X742186Y882311D01*
X742067Y882685D01*
X741958Y883063D01*
X741857Y883442D01*
X741767Y883824D01*
X741685Y884209D01*
X741614Y884595D01*
X741551Y884982D01*
X741498Y885371D01*
X741455Y885762D01*
X741421Y886153D01*
X741397Y886545D01*
X741383Y886937D01*
X741378Y887330D01*
M02*
