G04 EAGLE Gerber RS-274X export*
G75*
%MOMM*%
%FSLAX34Y34*%
%LPD*%
%INSoldermask Bottom*%
%IPPOS*%
%AMOC8*
5,1,8,0,0,1.08239X$1,22.5*%
G01*
%ADD10C,3.504800*%
%ADD11C,2.095500*%
%ADD12P,2.061953X8X202.500000*%
%ADD13C,1.905000*%
%ADD14P,2.061953X8X112.500000*%
%ADD15R,2.104800X1.904800*%
%ADD16C,1.981200*%
%ADD17C,2.184400*%
%ADD18C,2.844800*%
%ADD19C,1.828800*%
%ADD20R,1.904800X2.304800*%
%ADD21R,2.304800X1.904800*%
%ADD22P,3.587798X8X337.500000*%
%ADD23C,1.778000*%
%ADD24C,2.235200*%
%ADD25C,2.082800*%
%ADD26P,6.841571X8X327.500000*%
%ADD27R,3.154800X1.554800*%
%ADD28R,6.804800X5.854800*%
%ADD29C,1.111200*%


D10*
X74830Y781711D03*
X606440Y920192D03*
X707535Y508730D03*
X272652Y73848D03*
X175440Y920192D03*
X606440Y555192D03*
X757378Y887330D03*
D11*
X358800Y928297D02*
X358800Y946204D01*
X409600Y946204D02*
X409600Y928297D01*
D12*
X286000Y555100D03*
D13*
X311400Y555100D03*
D14*
X661700Y574600D03*
D13*
X661700Y549200D03*
D15*
X587100Y429000D03*
X587100Y457000D03*
D16*
X560100Y477100D03*
X560100Y578700D03*
D17*
X721900Y968700D03*
X721900Y943300D03*
D11*
X49100Y944204D02*
X49100Y926297D01*
X99900Y926297D02*
X99900Y944204D01*
D18*
X383600Y353478D02*
X409000Y353478D01*
X409000Y578522D02*
X383600Y578522D01*
D19*
X661404Y445907D02*
X674602Y438287D01*
X661902Y416290D02*
X648704Y423910D01*
X636004Y401913D02*
X649202Y394293D01*
X299100Y863480D02*
X299100Y878720D01*
X273700Y878720D02*
X273700Y863480D01*
X248300Y863480D02*
X248300Y878720D01*
X222900Y878720D02*
X222900Y863480D01*
X197500Y863480D02*
X197500Y878720D01*
X172100Y878720D02*
X172100Y863480D01*
X482800Y869280D02*
X482800Y884520D01*
X508200Y884520D02*
X508200Y869280D01*
X533600Y869280D02*
X533600Y884520D01*
X559000Y884520D02*
X559000Y869280D01*
X584400Y869280D02*
X584400Y884520D01*
X609800Y884520D02*
X609800Y869280D01*
D11*
X467500Y928297D02*
X467500Y946204D01*
X518300Y946204D02*
X518300Y928297D01*
X248200Y928297D02*
X248200Y946204D01*
X299000Y946204D02*
X299000Y928297D01*
D19*
X293820Y276200D02*
X278580Y276200D01*
X278580Y301600D02*
X293820Y301600D01*
X293820Y327000D02*
X278580Y327000D01*
X278580Y250800D02*
X293820Y250800D01*
X293820Y225400D02*
X278580Y225400D01*
X84000Y71420D02*
X84000Y56180D01*
X109400Y56180D02*
X109400Y71420D01*
X134800Y71420D02*
X134800Y56180D01*
X58600Y56180D02*
X58600Y71420D01*
X33200Y71420D02*
X33200Y56180D01*
X498380Y549500D02*
X513620Y549500D01*
X513620Y524100D02*
X498380Y524100D01*
X498380Y498700D02*
X513620Y498700D01*
D20*
X619000Y765100D03*
X591000Y765100D03*
X618500Y726100D03*
X590500Y726100D03*
D21*
X560100Y511000D03*
X560100Y539000D03*
X32900Y802500D03*
X32900Y774500D03*
D22*
X507240Y330005D03*
X535617Y358383D03*
X563995Y386760D03*
X597760Y352995D03*
X569383Y324617D03*
X541005Y296240D03*
D23*
X239300Y174200D03*
X239300Y199600D03*
X239300Y225000D03*
X239300Y250400D03*
X239300Y275800D03*
X239300Y301200D03*
X239300Y326600D03*
X239300Y352000D03*
X239300Y377400D03*
X239300Y402800D03*
X239300Y428200D03*
X239300Y453600D03*
X86900Y453600D03*
X86900Y428200D03*
X86900Y402800D03*
X86900Y377400D03*
X86900Y352000D03*
X86900Y326600D03*
X86900Y301200D03*
X86900Y275800D03*
X86900Y250400D03*
X86900Y225000D03*
X86900Y199600D03*
X239300Y148800D03*
X86900Y174200D03*
X86900Y148800D03*
X239300Y123400D03*
X86900Y123400D03*
X239300Y479000D03*
X86900Y479000D03*
X239300Y504400D03*
X239300Y529800D03*
X239300Y555200D03*
X239300Y580600D03*
X239300Y606000D03*
X239300Y631400D03*
X239300Y656800D03*
X239300Y682200D03*
X239300Y707600D03*
X86900Y707600D03*
X86900Y682200D03*
X86900Y656800D03*
X86900Y631400D03*
X86900Y606000D03*
X86900Y580600D03*
X86900Y555200D03*
X86900Y529800D03*
X86900Y504400D03*
X112300Y148800D03*
X112300Y199600D03*
X112300Y225000D03*
X112300Y250400D03*
D24*
X385200Y616000D03*
X410600Y616000D03*
X436000Y616000D03*
X461400Y616000D03*
X486800Y616000D03*
X512200Y616000D03*
X537600Y616000D03*
X563000Y616000D03*
X588400Y616000D03*
X613800Y616000D03*
X639200Y616000D03*
X664600Y616000D03*
X690000Y616000D03*
X715400Y616000D03*
X740800Y616000D03*
X385200Y844600D03*
X410600Y844600D03*
X436000Y844600D03*
X461400Y844600D03*
X486800Y844600D03*
X512200Y844600D03*
X537600Y844600D03*
X563000Y844600D03*
X588400Y844600D03*
X613800Y844600D03*
X639200Y844600D03*
X664600Y844600D03*
X690000Y844600D03*
X715400Y844600D03*
X740800Y844600D03*
D25*
X37490Y386000D02*
X19710Y386000D01*
X19710Y360600D02*
X37490Y360600D01*
X37490Y411400D02*
X19710Y411400D01*
X19710Y436800D02*
X37490Y436800D01*
X37490Y462200D02*
X19710Y462200D01*
X19710Y335200D02*
X37490Y335200D01*
X37490Y309800D02*
X19710Y309800D01*
X19710Y284400D02*
X37490Y284400D01*
D11*
X360700Y152064D02*
X370971Y137395D01*
X412584Y166533D02*
X402313Y181201D01*
D26*
X432111Y274138D03*
X472261Y216798D03*
D19*
X202300Y792780D02*
X202300Y808020D01*
X227700Y808020D02*
X227700Y792780D01*
X253100Y792780D02*
X253100Y808020D01*
X176900Y808020D02*
X176900Y792780D01*
X151500Y792780D02*
X151500Y808020D01*
X126100Y808020D02*
X126100Y792780D01*
X289380Y429700D02*
X304620Y429700D01*
X304620Y404300D02*
X289380Y404300D01*
X289380Y378900D02*
X304620Y378900D01*
X304620Y455100D02*
X289380Y455100D01*
X290620Y118600D02*
X275380Y118600D01*
X275380Y144000D02*
X290620Y144000D01*
X290620Y169400D02*
X275380Y169400D01*
D27*
X33000Y833200D03*
X33000Y878800D03*
D28*
X97000Y856000D03*
D29*
X33000Y756000D03*
X642000Y727000D03*
X400000Y800000D03*
M02*
